<?xml version="1.0" encoding="utf-8"?>
<!-- Generator: Adobe Illustrator 15.1.0, SVG Export Plug-In . SVG Version: 6.00 Build 0)  -->
<!DOCTYPE svg PUBLIC "-//W3C//DTD SVG 1.0//EN" "http://www.w3.org/TR/2001/REC-SVG-20010904/DTD/svg10.dtd">
<svg version="1.0" id="Layer_1" xmlns="http://www.w3.org/2000/svg" xmlns:xlink="http://www.w3.org/1999/xlink" x="0px" y="0px"
	 width="216.225px" height="363.927px" viewBox="0 0 216.225 363.927" enable-background="new 0 0 216.225 363.927"
	 xml:space="preserve">
<g>
	<path fill="#00A2BC" d="M216.225,9.372c0-5.176-4.196-9.372-9.373-9.372H9.372C4.196,0,0,4.196,0,9.372v322.547l0,0l0,0
		c0,8.45,4.32,15.888,10.868,20.236l-0.001,0.002c0,0,12.142,11.771,98.648,11.771c54.448,0,78.611-4.979,89.045-8.667
		c10.163-2.899,17.606-12.249,17.606-23.342l0,0h0.058V9.372z"/>
	<path opacity="0.15" fill="#FFFFFF" d="M181.612,0h-147v309.135l0,0v0.001c0,5.744,2.937,10.801,7.389,13.758L42,322.894
		c0,0,8.255,4.395,67.066,4.395c37.016,0,53.443,0.223,60.536-2.285c6.909-1.972,11.97-8.327,11.97-15.868v-3.607h0.04V0z"/>
	<circle fill="#333334" cx="145.341" cy="244.351" r="13.392"/>
	<circle fill="#333334" cx="184.924" cy="232.15" r="13.393"/>
	<path fill="#333334" d="M66.93,228.376H53.24v-13.69c0-1.505-1.22-2.725-2.725-2.725H37.023c-1.504,0-2.724,1.22-2.724,2.725v13.69
		h-13.69c-1.505,0-2.725,1.219-2.725,2.725v13.491c0,1.505,1.22,2.725,2.725,2.725h13.69v13.689c0,1.506,1.22,2.726,2.724,2.726
		h13.492c1.505,0,2.725-1.22,2.725-2.726v-13.689h13.69c1.505,0,2.725-1.22,2.725-2.725v-13.491
		C69.655,229.595,68.435,228.376,66.93,228.376z"/>
	<path d="M97.157,296.853H84.327c-1.771,0-3.207,1.436-3.207,3.208c0,1.771,1.436,3.207,3.207,3.207h12.831
		c1.771,0,3.208-1.437,3.208-3.207C100.365,298.289,98.929,296.853,97.157,296.853z"/>
	<path d="M129.563,296.853h-12.83c-1.771,0-3.208,1.436-3.208,3.208c0,1.771,1.437,3.207,3.208,3.207h12.83
		c1.771,0,3.208-1.437,3.208-3.207C132.771,298.289,131.335,296.853,129.563,296.853z"/>
	<circle fill="#414042" cx="43.819" cy="237.846" r="5.225"/>
	<path fill="#414042" d="M48.627,251.792l-0.002-0.003c0.034-0.094,0.056-0.195,0.056-0.301c0-0.493-0.4-0.894-0.893-0.894h-7.937
		c-0.493,0-0.893,0.4-0.893,0.894c0,0.119,0.024,0.232,0.067,0.336l0,0.002l0.001,0.003c0.023,0.056,0.052,0.108,0.085,0.158
		l3.885,7.285c0.135,0.322,0.453,0.549,0.824,0.549c0.35,0,0.648-0.202,0.795-0.495h0l3.9-7.323
		c0.043-0.061,0.078-0.126,0.104-0.196L48.627,251.792z"/>
	<path fill="#414042" d="M39.011,223.901l0.002,0.003c-0.034,0.095-0.056,0.195-0.056,0.302c0,0.492,0.399,0.893,0.893,0.893h7.937
		c0.493,0,0.893-0.4,0.893-0.893c0-0.12-0.024-0.233-0.067-0.337v-0.002l-0.001-0.002c-0.023-0.056-0.052-0.109-0.085-0.159
		l-3.885-7.284c-0.135-0.322-0.453-0.55-0.824-0.55c-0.349,0-0.648,0.203-0.795,0.495h-0.001l-3.899,7.323
		c-0.043,0.061-0.078,0.126-0.104,0.196L39.011,223.901z"/>
	<path fill="#414042" d="M57.765,233.039l-0.003,0.002c-0.095-0.034-0.195-0.056-0.302-0.056c-0.493,0-0.893,0.4-0.893,0.893v7.938
		c0,0.493,0.4,0.893,0.893,0.893c0.12,0,0.233-0.024,0.337-0.067l0,0.001l0.003-0.002c0.056-0.023,0.109-0.051,0.159-0.084
		l7.285-3.886c0.322-0.135,0.549-0.452,0.549-0.823c0-0.35-0.202-0.648-0.495-0.796l0,0l-7.323-3.899
		c-0.061-0.044-0.126-0.078-0.196-0.104L57.765,233.039z"/>
	<path fill="#414042" d="M29.874,242.655l0.003-0.003c0.094,0.034,0.195,0.056,0.301,0.056c0.493,0,0.893-0.399,0.893-0.893v-7.938
		c0-0.492-0.4-0.893-0.893-0.893c-0.12,0-0.233,0.024-0.337,0.067l-0.001-0.001l-0.003,0.001c-0.056,0.023-0.109,0.052-0.159,0.085
		l-7.285,3.885c-0.322,0.135-0.548,0.454-0.548,0.824c0,0.35,0.202,0.648,0.494,0.795v0.001l7.324,3.9
		c0.06,0.042,0.126,0.077,0.196,0.104L29.874,242.655z"/>
	<g>
		<path fill="#414042" d="M142.388,251.008h-3.274v-12.321h3.098c1.954,0,3.415,0.968,3.415,3.257c0,1.003-0.457,2.094-1.443,2.552
			c1.039,0.37,1.654,1.461,1.654,2.799C145.837,249.758,144.429,251.008,142.388,251.008z M142.264,240.359h-1.443v3.345h1.408
			c0.916,0,1.637-0.528,1.637-1.707C143.865,240.782,143.196,240.359,142.264,240.359z M142.193,245.358h-1.373v3.978h1.55
			c1.038,0,1.707-0.562,1.707-2.041C144.077,245.921,143.268,245.358,142.193,245.358z"/>
	</g>
	<g>
		<path fill="#414042" d="M184.629,238.905l-0.722-3.256h-2.676l-0.704,3.256h-1.83l3.027-12.32h1.778l3.01,12.32H184.629z
			 M183.098,231.935c-0.176-0.81-0.44-2.235-0.528-2.693c-0.088,0.458-0.352,1.866-0.527,2.693l-0.458,2.076h1.972L183.098,231.935z
			"/>
	</g>
	<path d="M196.163,13.253H19.58c-3.577,0-6.477,2.899-6.477,6.477v147.615c0,3.41,2.637,6.198,5.981,6.452v0.024
		c0,0,29.429,5.494,88.787,5.494s88.788-5.494,88.788-5.494v-0.024c3.344-0.254,5.98-3.042,5.98-6.452V19.73
		C202.64,16.152,199.74,13.253,196.163,13.253z"/>
	<path fill="#333334" d="M23.796,15.976h-1.321c-3.459,0-6.265,2.805-6.265,6.265v142.775c0,3.298,2.551,5.994,5.785,6.24v0.024
		c0,0,28.465,5.312,85.876,5.312c57.412,0,85.875-5.312,85.875-5.312v-0.024c2.69-0.204,4.903-2.107,5.572-4.639L23.796,15.976z"/>
	<rect x="45.802" y="34.809" fill="#DCDDDE" width="124.335" height="106.876"/>
	<g>
		<path fill="#414042" d="M19.58,71.789h1.185c0.184,0,0.36,0.018,0.527,0.054s0.316,0.096,0.446,0.18s0.233,0.197,0.311,0.338
			s0.115,0.315,0.115,0.522c0,0.218-0.042,0.399-0.124,0.542c-0.083,0.143-0.189,0.256-0.319,0.339
			c-0.129,0.083-0.271,0.141-0.426,0.175c-0.154,0.034-0.301,0.051-0.44,0.051h-0.801v1.793H19.58V71.789z M20.054,73.549h0.801
			c0.237,0,0.43-0.053,0.578-0.161c0.148-0.107,0.223-0.273,0.223-0.499s-0.075-0.393-0.223-0.5s-0.341-0.161-0.578-0.161h-0.801
			V73.549z"/>
		<path fill="#414042" d="M24.668,75.884c-0.305,0-0.583-0.053-0.837-0.158c-0.254-0.105-0.474-0.251-0.66-0.437
			c-0.186-0.187-0.331-0.408-0.435-0.666c-0.104-0.257-0.155-0.537-0.155-0.837s0.051-0.581,0.155-0.838s0.249-0.479,0.435-0.666
			s0.406-0.332,0.66-0.438c0.254-0.105,0.533-0.158,0.837-0.158s0.584,0.053,0.838,0.158c0.254,0.105,0.474,0.251,0.66,0.438
			c0.186,0.186,0.331,0.408,0.434,0.666c0.104,0.257,0.155,0.537,0.155,0.838s-0.052,0.58-0.155,0.837
			c-0.103,0.258-0.248,0.479-0.434,0.666c-0.187,0.186-0.406,0.332-0.66,0.437C25.252,75.832,24.973,75.884,24.668,75.884z
			 M24.668,75.444c0.233,0,0.447-0.043,0.64-0.13c0.194-0.086,0.361-0.205,0.5-0.355c0.139-0.151,0.247-0.326,0.324-0.528
			c0.077-0.201,0.115-0.416,0.115-0.646s-0.038-0.445-0.115-0.646s-0.186-0.377-0.324-0.528c-0.139-0.15-0.306-0.269-0.5-0.355
			c-0.193-0.086-0.407-0.13-0.64-0.13s-0.446,0.043-0.64,0.13s-0.36,0.205-0.499,0.355c-0.139,0.15-0.247,0.327-0.324,0.528
			s-0.116,0.417-0.116,0.646s0.039,0.444,0.116,0.646c0.077,0.202,0.185,0.377,0.324,0.528c0.139,0.15,0.305,0.269,0.499,0.355
			S24.435,75.444,24.668,75.444z"/>
		<path fill="#414042" d="M26.941,71.789h0.524l0.909,3.317h0.011l0.981-3.317h0.53l0.976,3.317h0.011l0.925-3.317h0.497
			l-1.173,3.994H30.62l-0.987-3.384h-0.011l-0.993,3.384h-0.519L26.941,71.789z"/>
		<path fill="#414042" d="M32.836,71.789h2.511v0.44h-2.037v1.252h1.901v0.44h-1.901v1.422h2.138v0.439h-2.612V71.789z"/>
		<path fill="#414042" d="M36.182,71.789h1.021c0.192,0,0.382,0.011,0.572,0.034s0.361,0.072,0.511,0.147
			c0.15,0.075,0.272,0.185,0.367,0.33c0.094,0.145,0.141,0.341,0.141,0.59c0,0.293-0.088,0.53-0.265,0.71
			c-0.177,0.181-0.421,0.295-0.733,0.344l1.134,1.839h-0.581l-1.083-1.793h-0.609v1.793h-0.474V71.789z M36.655,73.549h0.423
			c0.131,0,0.268-0.003,0.409-0.011c0.141-0.008,0.271-0.032,0.389-0.074c0.119-0.042,0.216-0.106,0.293-0.194
			s0.116-0.215,0.116-0.381c0-0.143-0.028-0.258-0.084-0.344c-0.056-0.086-0.131-0.153-0.223-0.2
			c-0.092-0.047-0.195-0.078-0.31-0.093c-0.114-0.016-0.23-0.023-0.347-0.023h-0.666V73.549z"/>
	</g>
	<circle fill="#CE181E" cx="21.068" cy="64.967" r="2.91"/>
	<path fill="#414042" d="M37.592,62.421c0.559,0.698,0.894,1.582,0.894,2.546c0,0.963-0.335,1.848-0.894,2.546
		c1.165-0.263,2.035-1.302,2.035-2.546C39.626,63.723,38.756,62.684,37.592,62.421z"/>
	<path fill="#414042" d="M32.458,62.366c0.584,0.707,0.935,1.612,0.935,2.601c0,0.988-0.351,1.894-0.935,2.6
		c1.331-0.121,2.374-1.238,2.374-2.6S33.789,62.487,32.458,62.366z"/>
	<path fill="#414042" d="M26.879,62.354c-0.022,0-0.044,0.002-0.067,0.003c0.589,0.708,0.943,1.617,0.943,2.609
		s-0.354,1.901-0.943,2.609c0.023,0,0.044,0.003,0.067,0.003c1.442,0,2.612-1.169,2.612-2.612S28.322,62.354,26.879,62.354z"/>
	<g>
		<polygon fill="#414042" points="82.649,163.086 88.347,163.086 88.677,161.086 85.093,161.086 85.482,158.739 88.599,158.739 
			88.928,156.743 85.813,156.743 86.19,154.469 89.77,154.469 90.086,152.52 84.393,152.52 		"/>
		<path fill="#414042" d="M79.443,152.52l-2.577,5.746l-1.244-5.746h-2l-2.901,8.92l-1.407-8.92H66.8l-3.896,8.54l0.358-3.052
			h-3.907v1.949h1.497l-0.068,0.939c0,0-0.51,0.414-1.6,0.395c-1.388-0.025-2.738-1.089-2.616-3.078
			c0.128-2.077,2.308-3.924,4.745-3.949c1.574-0.016,2.333,0.436,2.333,0.436v-2c0,0-0.154-0.517-2.206-0.517
			c-3.427,0-6.896,2.729-6.898,6.235c-0.002,2.744,1.847,4.873,4.787,4.736c1.619-0.075,2.548-0.547,3.035-0.912l-0.385,0.844h2.309
			l1.387-3.129h2.651l0.527,3.129h1.333h0.795h1.436l1.855-6.069l1.453,6.069h1.333l2.945-6.583l0.184,6.583h2.051l-0.436-10.566
			H79.443z M66.539,158.008l1.057-2.385l0.401,2.385H66.539z"/>
		<path fill="#414042" d="M106.337,152.557c-2.336-0.601-4.833,1.26-5.58,4.158c-0.745,2.897,0.544,5.732,2.88,6.334
			c2.334,0.601,4.833-1.261,5.578-4.158C109.961,155.994,108.672,153.159,106.337,152.557z M107.296,158.397
			c-0.464,1.802-1.874,2.997-3.149,2.668s-1.934-2.055-1.471-3.857c0.465-1.803,1.875-2.997,3.15-2.668
			C107.101,154.869,107.76,156.596,107.296,158.397z"/>
		<polygon fill="#414042" points="114.424,152.52 112.271,156.11 110.731,152.52 108.474,152.52 110.947,157.718 110.295,163.086 
			112.321,163.086 112.937,158.316 116.809,152.52 		"/>
		<path fill="#414042" d="M100.276,155.255c0-1.983-1.265-2.735-2.428-2.735h-3.949l-1.744,10.566h4.633
			c1.539,0,3.214-1.112,3.214-3.13c0-2.017-1.351-2.29-1.351-2.29S100.276,157.238,100.276,155.255z M96.959,154.469
			c0.717,0,1.129,0.342,1.111,1.025c-0.018,0.77-0.411,1.249-1.128,1.249h-1.623l0.377-2.274H96.959z M94.988,158.739h1.664
			c0.991,0.039,1.299,0.415,1.299,1.167c0,0.701-0.352,1.181-1.441,1.181h-1.911L94.988,158.739z"/>
	</g>
	<g>
		<path fill="#00A2BC" d="M159.927,164.036c-0.296,0-0.592-0.102-0.832-0.311c-0.03-0.025-3.002-2.597-3.889-3.339
			c-0.085-0.07-0.168-0.136-0.248-0.195c0.009,1.446-0.104,2.464-0.111,2.525c-0.078,0.698-0.711,1.201-1.408,1.121
			c-0.698-0.079-1.2-0.709-1.122-1.407l0,0c0.002-0.02,0.213-1.952-0.002-4.194c-0.361-3.771-0.393-4.792,1.146-5.602l0.041-0.022
			c1.124-0.595,3.057-0.473,4.304-0.056c0.854,0.285,1.917,0.64,2.385,1.623c0.185,0.388,0.338,1.03,0.017,1.88
			c-0.438,1.164-1.755,2.058-3.043,2.646c1.129,0.957,3.487,2.999,3.598,3.094c0.531,0.461,0.59,1.265,0.129,1.797
			C160.639,163.887,160.284,164.036,159.927,164.036z M154.668,154.876c-0.035,0.396,0.019,1.253,0.081,2.009
			c1.208-0.31,2.684-1.096,3.022-1.625c-0.23-0.108-0.592-0.229-0.772-0.289c-0.905-0.302-2.037-0.251-2.307-0.109L154.668,154.876z
			"/>
		<path fill="#DC1F40" d="M124.515,163.94c-1.987,0-3.401-0.414-4.363-1.262c-0.922-0.812-1.388-1.995-1.388-3.517
			c0-3.201,3.73-7.611,6.438-7.611c1.255,0,1.954,0.487,2.32,0.896c0.679,0.759,0.617,1.649,0.599,1.82
			c-0.077,0.699-0.707,1.204-1.407,1.125c-0.646-0.073-1.125-0.617-1.132-1.252c-0.069-0.02-0.193-0.042-0.38-0.042
			c-0.876,0-3.893,2.875-3.893,5.065c0,1.024,0.3,1.406,0.524,1.605c0.493,0.434,1.737,0.868,4.863,0.471
			c0.694-0.089,1.335,0.404,1.424,1.102c0.089,0.698-0.404,1.336-1.103,1.424C126.098,163.881,125.266,163.94,124.515,163.94z"/>
		<path fill="#622D91" d="M131.684,163.447c-2.449,0-4.305-1.491-4.617-3.711c-0.179-1.268,0.219-2.649,1.092-3.793
			c0.961-1.259,2.387-2.093,3.912-2.289c0.155-0.02,0.312-0.029,0.47-0.029c2.207,0,4.12,1.918,4.355,4.368
			c0.265,2.763-1.414,4.921-4.177,5.369C132.371,163.418,132.022,163.447,131.684,163.447z M132.54,156.171
			c-0.05,0-0.099,0.002-0.146,0.009c-0.854,0.108-1.66,0.585-2.211,1.307c-0.462,0.605-0.679,1.295-0.595,1.893
			c0.193,1.371,1.53,1.52,2.096,1.52c0.203,0,0.414-0.018,0.627-0.053c1.418-0.229,2.184-1.206,2.05-2.611
			C134.237,156.96,133.32,156.171,132.54,156.171z"/>
		<path fill="#F9D308" d="M146.936,163.376c-2.152,0-3.793-1.317-4.391-3.524c-0.335-1.236-0.049-2.595,0.783-3.728
			c0.975-1.324,2.535-2.123,4.284-2.189c0.068-0.003,0.139-0.004,0.208-0.004c2.49,0,4.448,1.659,4.653,3.943
			c0.236,2.637-1.375,4.685-4.206,5.343C147.813,163.324,147.365,163.376,146.936,163.376z M147.82,156.478
			c-0.037,0-0.074,0.001-0.11,0.002c-0.97,0.037-1.818,0.458-2.329,1.153c-0.365,0.496-0.507,1.077-0.377,1.554
			c0.295,1.091,0.945,1.644,1.932,1.644c0.234,0,0.49-0.031,0.756-0.094c0.908-0.211,2.407-0.834,2.245-2.635
			C149.821,156.82,148.552,156.478,147.82,156.478z"/>
		<path fill="#8DC13E" d="M138.608,163.847c-0.234,0-0.476-0.054-0.716-0.188c-0.846-0.468-0.846-1.335-0.846-2.433
			c0-0.755-0.12-2.29-0.226-3.645c-0.045-0.577-0.089-1.133-0.121-1.611c-0.093-1.329-0.532-2.223-0.537-2.231
			c-0.322-0.625-0.076-1.39,0.55-1.712c0.623-0.323,1.394-0.075,1.717,0.55c0.069,0.135,0.684,1.368,0.811,3.218
			c0.033,0.472,0.075,1.021,0.119,1.589c0.094,1.203,0.19,2.439,0.223,3.316c1.168-0.475,2.534-0.634,2.996-0.634
			c0.703,0,1.273,0.57,1.273,1.273s-0.57,1.273-1.273,1.273c-0.327,0-1.725,0.199-2.427,0.639
			C139.75,163.503,139.2,163.847,138.608,163.847z"/>
	</g>
	<path opacity="0.3" fill="#FFFFFF" d="M199.532,165.015V22.24c0-3.46-2.805-6.265-6.265-6.265H23.796l175.523,150.641
		C199.455,166.105,199.532,165.57,199.532,165.015z"/>
	<g>
		<circle cx="157.705" cy="309.075" r="1.625"/>
		<circle cx="170.073" cy="307.351" r="1.625"/>
		<circle cx="182.614" cy="305.405" r="1.625"/>
		<circle cx="195.155" cy="302.987" r="1.625"/>
		<circle cx="163.888" cy="314.341" r="1.625"/>
		<circle cx="176.38" cy="312.543" r="1.625"/>
		<circle cx="188.872" cy="310.423" r="1.625"/>
		<circle cx="163.888" cy="301.983" r="1.625"/>
		<circle cx="176.38" cy="300.111" r="1.625"/>
		<circle cx="188.872" cy="298.139" r="1.625"/>
		<circle cx="201.388" cy="307.856" r="1.625"/>
		<circle cx="157.705" cy="321.443" r="1.625"/>
		<circle cx="170.073" cy="319.819" r="1.625"/>
		<circle cx="182.614" cy="317.698" r="1.625"/>
		<circle cx="195.155" cy="315.395" r="1.625"/>
		<circle cx="163.888" cy="326.84" r="1.625"/>
		<circle cx="176.256" cy="324.912" r="1.625"/>
		<circle cx="188.872" cy="322.873" r="1.625"/>
		<circle cx="201.388" cy="320.25" r="1.625"/>
		<circle cx="157.705" cy="333.811" r="1.625"/>
		<circle cx="170.073" cy="332.186" r="1.625"/>
		<circle cx="182.614" cy="330.338" r="1.625"/>
		<circle cx="195.155" cy="327.821" r="1.625"/>
		<circle cx="163.888" cy="339.349" r="1.625"/>
		<circle cx="176.256" cy="337.577" r="1.625"/>
		<circle cx="188.872" cy="335.406" r="1.625"/>
		<circle cx="201.388" cy="332.79" r="1.625"/>
		<circle cx="170.073" cy="344.728" r="1.625"/>
		<circle cx="182.614" cy="342.755" r="1.625"/>
		<circle cx="195.155" cy="340.288" r="1.625"/>
	</g>
</g>
</svg>
