<?xml version="1.0" encoding="utf-8"?>
<!-- Generator: Adobe Illustrator 15.1.0, SVG Export Plug-In . SVG Version: 6.00 Build 0)  -->
<!DOCTYPE svg PUBLIC "-//W3C//DTD SVG 1.0//EN" "http://www.w3.org/TR/2001/REC-SVG-20010904/DTD/svg10.dtd">
<svg version="1.0" id="Layer_1" xmlns="http://www.w3.org/2000/svg" xmlns:xlink="http://www.w3.org/1999/xlink" x="0px" y="0px"
	 width="216px" height="135.535px" viewBox="0 0 216 135.535" enable-background="new 0 0 216 135.535" xml:space="preserve">
<g>
	<path fill="#DC1F40" d="M52.506,12.877c0-1.257-1.019-2.275-2.276-2.275H2.276C1.018,10.602,0,11.621,0,12.877v78.325l0,0l0,0
		c0,2.052,1.048,3.859,2.639,4.914l0,0c0,0,2.948,2.858,23.955,2.858c13.221,0,19.088-1.209,21.623-2.105
		c2.468-0.704,4.274-2.973,4.274-5.667l0,0h0.015V12.877z"/>
	<path opacity="0.15" fill="#FFFFFF" d="M44.101,10.602H8.405v75.069l0,0l0,0c0,1.393,0.713,2.623,1.794,3.341l0,0
		c0,0,2.004,1.066,16.285,1.066c8.99,0,12.978,0.055,14.702-0.555c1.676-0.479,2.904-2.021,2.904-3.853v-0.875h0.01V10.602z"/>
	<circle fill="#333334" cx="35.294" cy="69.938" r="3.252"/>
	<path fill="#333334" d="M48.158,66.978c0,1.793-1.457,3.249-3.252,3.249c-1.796,0-3.253-1.456-3.253-3.249
		c0-1.799,1.457-3.255,3.253-3.255C46.701,63.723,48.158,65.179,48.158,66.978z"/>
	<path fill="#333334" d="M16.253,66.059h-3.325v-3.324c0-0.364-0.295-0.661-0.661-0.661H8.991c-0.366,0-0.663,0.297-0.663,0.661
		v3.324H5.003c-0.364,0-0.661,0.296-0.661,0.663v3.276c0,0.363,0.296,0.658,0.661,0.658h3.325v3.327
		c0,0.364,0.297,0.663,0.663,0.663h3.276c0.366,0,0.661-0.299,0.661-0.663v-3.327h3.325c0.364,0,0.662-0.295,0.662-0.658v-3.276
		C16.915,66.354,16.618,66.059,16.253,66.059z"/>
	<path d="M23.593,82.686h-3.115c-0.431,0-0.779,0.35-0.779,0.781c0,0.429,0.348,0.777,0.779,0.777h3.115
		c0.429,0,0.779-0.349,0.779-0.777C24.372,83.035,24.021,82.686,23.593,82.686z"/>
	<path d="M31.461,82.686h-3.115c-0.43,0-0.778,0.35-0.778,0.781c0,0.429,0.348,0.777,0.778,0.777h3.115
		c0.43,0,0.779-0.349,0.779-0.777C32.24,83.035,31.891,82.686,31.461,82.686z"/>
	<circle fill="#414042" cx="10.64" cy="68.359" r="1.269"/>
	<path fill="#414042" d="M11.809,71.745h-0.001c0.009-0.024,0.014-0.049,0.014-0.074c0-0.12-0.097-0.216-0.217-0.216H9.675
		c-0.119,0-0.216,0.096-0.216,0.216c0,0.028,0.007,0.058,0.016,0.084l0,0l0,0c0.006,0.014,0.013,0.025,0.022,0.036l0.942,1.77
		c0.034,0.078,0.111,0.133,0.201,0.133c0.084,0,0.157-0.048,0.192-0.118h0.001l0.946-1.78c0.011-0.013,0.021-0.029,0.026-0.046
		L11.809,71.745z"/>
	<path fill="#414042" d="M9.471,64.973L9.471,64.973c-0.007,0.021-0.012,0.049-0.012,0.073c0,0.119,0.097,0.217,0.216,0.217h1.929
		c0.12,0,0.217-0.098,0.217-0.217c0-0.029-0.006-0.058-0.017-0.083l0,0h0c-0.005-0.014-0.012-0.025-0.021-0.036l-0.942-1.772
		c-0.032-0.076-0.111-0.131-0.2-0.131c-0.086,0-0.157,0.048-0.193,0.119l0,0l-0.946,1.778c-0.012,0.016-0.021,0.03-0.027,0.046
		L9.471,64.973z"/>
	<path fill="#414042" d="M14.027,67.19L14.027,67.19c-0.024-0.007-0.048-0.012-0.074-0.012c-0.12,0-0.218,0.095-0.218,0.217v1.927
		c0,0.12,0.098,0.217,0.218,0.217c0.03,0,0.057-0.005,0.082-0.019l0,0h0.002c0.012-0.006,0.026-0.011,0.038-0.019l1.769-0.942
		c0.079-0.033,0.134-0.109,0.134-0.2c0-0.086-0.048-0.157-0.12-0.193l0,0l-1.778-0.947c-0.015-0.012-0.032-0.021-0.049-0.026
		L14.027,67.19z"/>
	<path fill="#414042" d="M7.254,69.526h0.002c0.022,0.01,0.046,0.013,0.073,0.013c0.118,0,0.215-0.097,0.215-0.217v-1.927
		c0-0.122-0.097-0.217-0.215-0.217c-0.029,0-0.057,0.005-0.083,0.015v-0.001l-0.001,0.001c-0.013,0.008-0.028,0.014-0.039,0.021
		l-1.769,0.945c-0.079,0.031-0.134,0.109-0.134,0.2c0,0.085,0.05,0.156,0.121,0.19l0,0l1.778,0.948
		c0.014,0.012,0.031,0.019,0.047,0.023L7.254,69.526z"/>
	<g>
		<path fill="#414042" d="M34.576,71.555H33.78v-2.993h0.753c0.475,0,0.828,0.236,0.828,0.789c0,0.248-0.11,0.509-0.349,0.622
			c0.251,0.091,0.402,0.355,0.402,0.68C35.414,71.252,35.071,71.555,34.576,71.555z M34.545,68.97h-0.349v0.811h0.341
			c0.222,0,0.397-0.128,0.397-0.414C34.935,69.071,34.772,68.97,34.545,68.97z M34.529,70.181h-0.333v0.967h0.376
			c0.25,0,0.412-0.137,0.412-0.495C34.985,70.318,34.791,70.181,34.529,70.181z"/>
	</g>
	<g>
		<path fill="#414042" d="M44.835,68.613l-0.176-0.79h-0.651l-0.17,0.79h-0.443l0.735-2.99h0.431l0.73,2.99H44.835z M44.462,66.923
			c-0.042-0.196-0.106-0.541-0.129-0.654c-0.021,0.113-0.085,0.454-0.128,0.654l-0.111,0.506h0.478L44.462,66.923z"/>
	</g>
	<path d="M47.634,13.82H4.755c-0.869,0-1.573,0.705-1.573,1.573v35.846c0,0.828,0.64,1.506,1.453,1.566v0.008
		c0,0,7.146,1.331,21.559,1.331c14.415,0,21.561-1.331,21.561-1.331v-0.008c0.813-0.061,1.452-0.738,1.452-1.566V15.393
		C49.207,14.525,48.503,13.82,47.634,13.82z"/>
	<path fill="#333334" d="M5.777,14.481h-0.32c-0.839,0-1.521,0.68-1.521,1.522v34.669c0,0.801,0.619,1.458,1.405,1.515v0.008
		c0,0,6.912,1.289,20.853,1.289c13.942,0,20.854-1.289,20.854-1.289v-0.008c0.654-0.049,1.192-0.511,1.353-1.125L5.777,14.481z"/>
	<rect x="11.123" y="19.053" fill="#DCDDDE" width="30.192" height="25.954"/>
	<g>
		<path fill="#414042" d="M4.755,28.033h0.286c0.045,0,0.087,0.005,0.129,0.015c0.041,0.007,0.077,0.022,0.107,0.044
			c0.031,0.018,0.058,0.048,0.077,0.081c0.017,0.035,0.027,0.076,0.027,0.127c0,0.054-0.011,0.095-0.031,0.132
			c-0.019,0.035-0.046,0.061-0.077,0.081c-0.032,0.021-0.066,0.036-0.103,0.044c-0.039,0.006-0.075,0.01-0.108,0.01H4.87v0.438
			H4.755V28.033z M4.87,28.464h0.194c0.058,0,0.105-0.015,0.141-0.04c0.036-0.028,0.053-0.067,0.053-0.122
			c0-0.056-0.017-0.097-0.053-0.122c-0.036-0.025-0.083-0.039-0.141-0.039H4.87V28.464z"/>
		<path fill="#414042" d="M5.99,29.028c-0.073,0-0.141-0.012-0.203-0.036c-0.061-0.027-0.114-0.063-0.161-0.109
			c-0.046-0.044-0.081-0.1-0.106-0.162c-0.023-0.062-0.038-0.128-0.038-0.203c0-0.072,0.015-0.139,0.038-0.202
			c0.025-0.062,0.06-0.117,0.106-0.162c0.046-0.046,0.1-0.082,0.161-0.106c0.062-0.025,0.13-0.039,0.203-0.039
			c0.075,0,0.141,0.014,0.203,0.039c0.062,0.024,0.116,0.06,0.162,0.106c0.043,0.044,0.08,0.1,0.104,0.162
			c0.026,0.063,0.038,0.13,0.038,0.202c0,0.075-0.012,0.142-0.038,0.203c-0.024,0.062-0.061,0.118-0.104,0.162
			c-0.046,0.046-0.1,0.082-0.162,0.109C6.131,29.016,6.064,29.028,5.99,29.028z M5.99,28.923c0.057,0,0.109-0.009,0.155-0.032
			c0.047-0.021,0.089-0.048,0.122-0.087c0.033-0.036,0.06-0.079,0.079-0.128c0.019-0.047,0.028-0.101,0.028-0.158
			c0-0.053-0.009-0.105-0.028-0.155c-0.019-0.05-0.045-0.092-0.079-0.129c-0.033-0.039-0.075-0.063-0.122-0.085
			c-0.046-0.023-0.099-0.033-0.155-0.033c-0.058,0-0.109,0.01-0.155,0.033c-0.048,0.021-0.088,0.046-0.122,0.085
			c-0.034,0.038-0.061,0.08-0.079,0.129c-0.018,0.049-0.028,0.102-0.028,0.155c0,0.057,0.01,0.111,0.028,0.158
			c0.018,0.049,0.045,0.092,0.079,0.128c0.033,0.039,0.073,0.066,0.122,0.087C5.881,28.914,5.932,28.923,5.99,28.923z"/>
		<path fill="#414042" d="M6.542,28.033h0.127l0.219,0.806h0.004l0.238-0.806H7.26l0.236,0.806h0.003l0.223-0.806h0.122L7.56,29.005
			H7.434l-0.239-0.821H7.192l-0.241,0.821H6.826L6.542,28.033z"/>
		<path fill="#414042" d="M7.975,28.033h0.608v0.108H8.088v0.304H8.55v0.108H8.088v0.344h0.52v0.107H7.975V28.033z"/>
		<path fill="#414042" d="M8.786,28.033h0.248c0.046,0,0.093,0.003,0.139,0.009c0.047,0.005,0.087,0.018,0.123,0.036
			c0.037,0.018,0.068,0.045,0.09,0.078c0.021,0.036,0.034,0.085,0.034,0.146c0,0.071-0.021,0.128-0.064,0.173
			c-0.043,0.042-0.102,0.073-0.179,0.082l0.276,0.448H9.311L9.05,28.567H8.9v0.438H8.786V28.033z M8.9,28.464h0.103
			c0.032,0,0.065-0.001,0.1-0.004c0.034-0.001,0.065-0.008,0.094-0.019c0.029-0.009,0.052-0.025,0.072-0.046
			c0.016-0.023,0.027-0.053,0.027-0.094c0-0.035-0.006-0.063-0.02-0.083c-0.014-0.023-0.032-0.038-0.054-0.048
			c-0.023-0.014-0.048-0.021-0.076-0.022c-0.028-0.003-0.057-0.007-0.085-0.007H8.9V28.464z"/>
	</g>
	<circle fill="#CE181E" cx="5.115" cy="26.379" r="0.707"/>
	<path fill="#414042" d="M9.129,25.759c0.135,0.168,0.215,0.384,0.215,0.62c0,0.233-0.08,0.445-0.215,0.616
		c0.282-0.064,0.492-0.315,0.492-0.616C9.622,26.074,9.411,25.824,9.129,25.759z"/>
	<path fill="#414042" d="M7.882,25.746c0.142,0.171,0.227,0.393,0.227,0.633c0,0.24-0.085,0.459-0.227,0.629
		c0.323-0.028,0.576-0.299,0.576-0.629C8.458,26.046,8.205,25.776,7.882,25.746z"/>
	<path fill="#414042" d="M6.527,25.744c-0.005,0-0.011,0-0.016,0c0.142,0.172,0.228,0.392,0.228,0.635
		c0,0.24-0.086,0.46-0.228,0.631c0.005,0,0.01,0.003,0.016,0.003c0.35,0,0.635-0.287,0.635-0.634
		C7.162,26.026,6.877,25.744,6.527,25.744z"/>
	<g>
		<polygon fill="#414042" points="20.07,50.206 21.453,50.206 21.533,49.718 20.663,49.718 20.758,49.149 21.515,49.149 
			21.593,48.665 20.837,48.665 20.93,48.111 21.798,48.111 21.875,47.639 20.493,47.639 		"/>
		<path fill="#414042" d="M19.291,47.639l-0.625,1.394l-0.303-1.394h-0.486l-0.703,2.167l-0.341-2.167h-0.611l-0.946,2.073
			l0.087-0.742h-0.948v0.474h0.362l-0.015,0.228c0,0-0.125,0.098-0.389,0.095c-0.337-0.007-0.666-0.264-0.635-0.747
			c0.03-0.503,0.56-0.952,1.151-0.96c0.383-0.004,0.567,0.108,0.567,0.108v-0.486c0,0-0.037-0.124-0.536-0.124
			c-0.833,0-1.675,0.661-1.675,1.511c0,0.667,0.449,1.185,1.163,1.15c0.393-0.019,0.619-0.13,0.736-0.222l-0.095,0.207h0.562
			l0.335-0.761h0.645l0.127,0.761h0.324h0.193h0.349l0.451-1.476l0.352,1.476h0.324l0.716-1.6l0.043,1.6h0.499l-0.107-2.566H19.291z
			 M16.158,48.971l0.256-0.578l0.098,0.578H16.158z"/>
		<path fill="#414042" d="M25.821,47.648c-0.566-0.148-1.174,0.306-1.354,1.01c-0.181,0.705,0.132,1.391,0.699,1.538
			c0.568,0.144,1.174-0.306,1.355-1.009C26.702,48.481,26.389,47.793,25.821,47.648z M26.053,49.067
			c-0.111,0.437-0.454,0.728-0.764,0.646c-0.31-0.079-0.469-0.498-0.356-0.935c0.113-0.438,0.455-0.729,0.765-0.646
			C26.007,48.21,26.167,48.628,26.053,49.067z"/>
		<polygon fill="#414042" points="27.785,47.639 27.264,48.51 26.889,47.639 26.341,47.639 26.941,48.899 26.783,50.206 
			27.275,50.206 27.424,49.045 28.365,47.639 		"/>
		<path fill="#414042" d="M24.35,48.304c0-0.483-0.308-0.665-0.59-0.665h-0.959l-0.423,2.566h1.125c0.375,0,0.781-0.271,0.781-0.761
			c0-0.491-0.329-0.556-0.329-0.556S24.35,48.786,24.35,48.304z M23.545,48.111c0.174,0,0.273,0.083,0.271,0.248
			c-0.005,0.189-0.101,0.306-0.274,0.306h-0.396l0.092-0.554H23.545z M23.065,49.149h0.405c0.24,0.008,0.315,0.1,0.315,0.283
			c0,0.17-0.085,0.285-0.351,0.285h-0.463L23.065,49.149z"/>
	</g>
	<g>
		<path fill="#00A2BC" d="M38.835,50.435c-0.072,0-0.144-0.024-0.202-0.074c-0.007-0.007-0.729-0.631-0.945-0.812
			c-0.02-0.018-0.04-0.03-0.06-0.047c0.001,0.352-0.025,0.598-0.027,0.614c-0.019,0.169-0.172,0.292-0.341,0.271
			c-0.17-0.021-0.292-0.17-0.273-0.339l0,0c0.001-0.007,0.051-0.474,0-1.018c-0.088-0.917-0.095-1.167,0.279-1.362l0.008-0.007
			c0.273-0.142,0.743-0.115,1.046-0.012c0.208,0.069,0.466,0.154,0.58,0.394c0.044,0.095,0.083,0.25,0.004,0.458
			c-0.107,0.283-0.426,0.498-0.739,0.64c0.273,0.233,0.847,0.729,0.874,0.751c0.129,0.113,0.143,0.309,0.031,0.438
			C39.007,50.397,38.922,50.435,38.835,50.435z M37.559,48.211c-0.009,0.094,0.005,0.302,0.02,0.488
			c0.292-0.076,0.651-0.268,0.732-0.396c-0.054-0.025-0.143-0.054-0.188-0.069c-0.219-0.073-0.495-0.062-0.56-0.026L37.559,48.211z"
			/>
		<path fill="#DC1F40" d="M30.236,50.412c-0.482,0-0.826-0.102-1.059-0.307c-0.224-0.198-0.338-0.486-0.338-0.856
			c0-0.777,0.905-1.846,1.562-1.846c0.307,0,0.477,0.117,0.564,0.217c0.165,0.185,0.15,0.398,0.146,0.442
			c-0.018,0.17-0.17,0.292-0.341,0.272c-0.157-0.017-0.274-0.148-0.275-0.302c-0.018-0.008-0.047-0.012-0.094-0.012
			c-0.21,0-0.944,0.699-0.944,1.229c0,0.251,0.074,0.345,0.129,0.392c0.118,0.104,0.422,0.211,1.181,0.116
			c0.169-0.024,0.324,0.096,0.345,0.264c0.022,0.169-0.099,0.325-0.267,0.348C30.62,50.397,30.419,50.412,30.236,50.412z"/>
		<path fill="#622D91" d="M31.977,50.292c-0.594,0-1.045-0.362-1.123-0.901c-0.042-0.307,0.054-0.642,0.266-0.921
			c0.233-0.306,0.579-0.507,0.95-0.555c0.038-0.006,0.076-0.009,0.114-0.009c0.537,0,1,0.468,1.058,1.062
			c0.065,0.671-0.344,1.196-1.014,1.302C32.144,50.285,32.058,50.292,31.977,50.292z M32.185,48.526c-0.011,0-0.025,0-0.036,0.001
			c-0.207,0.028-0.404,0.142-0.536,0.317c-0.113,0.147-0.165,0.314-0.145,0.458c0.046,0.334,0.371,0.371,0.509,0.371
			c0.049,0,0.101-0.004,0.152-0.014c0.344-0.054,0.53-0.293,0.498-0.631C32.597,48.715,32.374,48.526,32.185,48.526z"/>
		<path fill="#F9D308" d="M35.681,50.275c-0.523,0-0.922-0.321-1.067-0.855c-0.082-0.301-0.013-0.63,0.19-0.906
			c0.236-0.32,0.614-0.515,1.04-0.534c0.017,0,0.034-0.001,0.05-0.001c0.606,0,1.081,0.406,1.129,0.96
			c0.059,0.642-0.333,1.139-1.021,1.298C35.894,50.262,35.785,50.275,35.681,50.275z M35.895,48.599c-0.008,0-0.018,0-0.027,0.001
			c-0.235,0.008-0.442,0.11-0.565,0.279c-0.089,0.121-0.123,0.263-0.091,0.378c0.071,0.267,0.23,0.398,0.47,0.398
			c0.056,0,0.118-0.007,0.182-0.021c0.222-0.051,0.585-0.203,0.547-0.64C36.381,48.682,36.073,48.599,35.895,48.599z"/>
		<path fill="#8DC13E" d="M33.658,50.389c-0.058,0-0.115-0.013-0.174-0.046c-0.205-0.114-0.205-0.324-0.205-0.59
			c0-0.186-0.029-0.557-0.055-0.883c-0.012-0.143-0.021-0.278-0.029-0.395c-0.023-0.321-0.13-0.537-0.131-0.54
			c-0.079-0.153-0.018-0.338,0.134-0.417c0.151-0.078,0.339-0.02,0.417,0.133c0.017,0.032,0.165,0.333,0.197,0.781
			c0.007,0.115,0.018,0.248,0.028,0.387c0.022,0.291,0.047,0.591,0.054,0.803c0.284-0.113,0.615-0.152,0.728-0.152
			c0.17,0,0.307,0.138,0.307,0.309c0,0.171-0.137,0.309-0.307,0.309c-0.08,0-0.419,0.049-0.589,0.157
			C33.935,50.304,33.802,50.389,33.658,50.389z"/>
	</g>
	<path opacity="0.3" fill="#FFFFFF" d="M48.453,50.672V16.003c0-0.842-0.682-1.522-1.521-1.522H5.777L48.4,51.062
		C48.433,50.937,48.453,50.809,48.453,50.672z"/>
	<g>
		<circle cx="38.296" cy="85.656" r="0.395"/>
		<circle cx="41.299" cy="85.237" r="0.395"/>
		<circle cx="44.345" cy="84.766" r="0.394"/>
		<path d="M47.784,84.178c0,0.218-0.176,0.392-0.394,0.392c-0.219,0-0.396-0.174-0.396-0.392c0-0.22,0.177-0.395,0.396-0.395
			C47.608,83.783,47.784,83.958,47.784,84.178z"/>
		<circle cx="39.797" cy="86.934" r="0.395"/>
		<circle cx="42.83" cy="86.497" r="0.394"/>
		<path d="M46.259,85.984c0,0.217-0.177,0.393-0.395,0.393s-0.395-0.176-0.395-0.393c0-0.22,0.177-0.397,0.395-0.397
			S46.259,85.765,46.259,85.984z"/>
		<circle cx="39.797" cy="83.932" r="0.395"/>
		<circle cx="42.83" cy="83.479" r="0.394"/>
		<circle cx="45.864" cy="82.999" r="0.395"/>
		<path d="M49.298,85.361c0,0.216-0.178,0.391-0.396,0.391c-0.217,0-0.394-0.175-0.394-0.391c0-0.222,0.177-0.395,0.394-0.395
			C49.121,84.967,49.298,85.14,49.298,85.361z"/>
		<circle cx="38.296" cy="88.658" r="0.395"/>
		<circle cx="41.299" cy="88.265" r="0.395"/>
		<path d="M44.739,87.748c0,0.217-0.177,0.395-0.395,0.395c-0.218,0-0.394-0.178-0.394-0.395c0-0.215,0.176-0.394,0.394-0.394
			C44.562,87.354,44.739,87.533,44.739,87.748z"/>
		<circle cx="47.389" cy="87.189" r="0.395"/>
		<circle cx="39.797" cy="89.968" r="0.395"/>
		<circle cx="42.801" cy="89.501" r="0.394"/>
		<circle cx="45.864" cy="89.007" r="0.395"/>
		<circle cx="48.904" cy="88.369" r="0.395"/>
		<path d="M38.69,91.662c0,0.215-0.177,0.397-0.396,0.397c-0.217,0-0.394-0.183-0.394-0.397c0-0.217,0.176-0.395,0.394-0.395
			C38.514,91.268,38.69,91.445,38.69,91.662z"/>
		<circle cx="41.299" cy="91.268" r="0.395"/>
		<path d="M44.739,90.816c0,0.221-0.177,0.397-0.395,0.397c-0.218,0-0.394-0.177-0.394-0.397c0-0.216,0.176-0.392,0.394-0.392
			C44.562,90.425,44.739,90.601,44.739,90.816z"/>
		<path d="M47.784,90.206c0,0.22-0.176,0.395-0.394,0.395c-0.219,0-0.396-0.175-0.396-0.395c0-0.215,0.177-0.393,0.396-0.393
			C47.608,89.813,47.784,89.991,47.784,90.206z"/>
		<circle cx="39.797" cy="93.006" r="0.395"/>
		<circle cx="42.801" cy="92.577" r="0.394"/>
		<circle cx="45.864" cy="92.048" r="0.395"/>
		<path d="M49.298,91.416c0,0.215-0.178,0.39-0.396,0.39c-0.217,0-0.394-0.175-0.394-0.39c0-0.22,0.177-0.395,0.394-0.395
			C49.121,91.021,49.298,91.196,49.298,91.416z"/>
		<circle cx="41.299" cy="94.312" r="0.395"/>
		<circle cx="44.345" cy="93.834" r="0.394"/>
		<path d="M47.784,93.235c0,0.218-0.176,0.391-0.394,0.391c-0.219,0-0.396-0.173-0.396-0.391c0-0.22,0.177-0.395,0.396-0.395
			C47.608,92.841,47.784,93.016,47.784,93.235z"/>
	</g>
</g>
<g>
	<path fill="#8DC13E" d="M94.356,8.927c0-1.546-1.254-2.799-2.799-2.799h-58.98c-1.546,0-2.799,1.253-2.799,2.799v96.333l0,0l0,0
		c0,2.523,1.289,4.746,3.245,6.045l0,0c0,0,3.626,3.517,29.462,3.517c16.261,0,23.479-1.488,26.595-2.589
		c3.035-0.87,5.258-3.659,5.258-6.973l0,0h0.018V8.927z"/>
	<path opacity="0.15" fill="#FFFFFF" d="M84.019,6.128H40.115v92.328l0,0l0,0c0,1.716,0.877,3.226,2.207,4.109l0,0
		c0,0,2.466,1.313,20.03,1.313c11.056,0,15.961,0.066,18.081-0.684c2.063-0.588,3.575-2.485,3.575-4.739v-1.078h0.012V6.128z"/>
	<path fill="#333334" d="M77.187,79.109c0,2.21-1.792,3.999-4,3.999c-2.209,0-4-1.789-4-3.999c0-2.212,1.791-4.002,4-4.002
		C75.394,75.107,77.187,76.897,77.187,79.109z"/>
	<circle fill="#333334" cx="85.008" cy="75.463" r="4.001"/>
	<path fill="#333334" d="M49.768,74.334H45.68v-4.087c0-0.45-0.365-0.813-0.815-0.813h-4.029c-0.449,0-0.814,0.363-0.814,0.813
		v4.087h-4.088c-0.449,0-0.815,0.366-0.815,0.814v4.031c0,0.449,0.366,0.813,0.815,0.813h4.088v4.089
		c0,0.448,0.365,0.812,0.814,0.812h4.029c0.45,0,0.815-0.364,0.815-0.812v-4.089h4.088c0.448,0,0.813-0.364,0.813-0.813v-4.031
		C50.581,74.7,50.215,74.334,49.768,74.334z"/>
	<path d="M58.795,94.788h-3.833c-0.529,0-0.958,0.43-0.958,0.959s0.429,0.956,0.958,0.956h3.833c0.528,0,0.957-0.427,0.957-0.956
		S59.323,94.788,58.795,94.788z"/>
	<path d="M68.474,94.788h-3.831c-0.528,0-0.958,0.43-0.958,0.959s0.43,0.956,0.958,0.956h3.831c0.529,0,0.958-0.427,0.958-0.956
		S69.002,94.788,68.474,94.788z"/>
	<circle fill="#414042" cx="42.864" cy="77.165" r="1.561"/>
	<path fill="#414042" d="M44.301,81.331L44.301,81.331c0.009-0.031,0.016-0.06,0.016-0.091c0-0.148-0.12-0.268-0.267-0.268h-2.37
		c-0.147,0-0.268,0.119-0.268,0.268c0,0.034,0.009,0.068,0.021,0.101l0,0h0.002c0.005,0.016,0.015,0.033,0.023,0.048l1.162,2.175
		c0.04,0.099,0.134,0.164,0.246,0.164c0.103,0,0.192-0.062,0.236-0.147l0,0l1.166-2.188c0.013-0.019,0.023-0.038,0.03-0.059
		L44.301,81.331z"/>
	<path fill="#414042" d="M41.428,73h0.002c-0.012,0.03-0.019,0.061-0.019,0.093c0,0.144,0.121,0.265,0.268,0.265h2.37
		c0.147,0,0.267-0.121,0.267-0.265c0-0.037-0.006-0.071-0.02-0.105l0,0l0,0c-0.007-0.015-0.015-0.032-0.026-0.046l-1.159-2.176
		c-0.042-0.096-0.136-0.164-0.246-0.164c-0.106,0-0.195,0.062-0.239,0.15l0,0l-1.166,2.185c-0.012,0.019-0.023,0.038-0.03,0.058
		L41.428,73z"/>
	<path fill="#414042" d="M47.029,75.729v0.003c-0.028-0.014-0.058-0.02-0.09-0.02c-0.147,0-0.266,0.12-0.266,0.269v2.37
		c0,0.146,0.119,0.266,0.266,0.266c0.037,0,0.07-0.006,0.101-0.02l0,0h0.001c0.016-0.007,0.033-0.016,0.047-0.026l2.176-1.16
		c0.096-0.039,0.164-0.134,0.164-0.245c0-0.104-0.061-0.195-0.148-0.238l0,0l-2.188-1.165c-0.017-0.011-0.037-0.021-0.058-0.03
		L47.029,75.729z"/>
	<path fill="#414042" d="M38.701,78.603l0.001-0.003c0.026,0.011,0.057,0.017,0.089,0.017c0.147,0,0.267-0.119,0.267-0.266v-2.37
		c0-0.148-0.12-0.269-0.267-0.269c-0.035,0-0.07,0.006-0.1,0.021v-0.001l-0.002,0.001c-0.016,0.007-0.031,0.018-0.047,0.024
		l-2.175,1.162c-0.098,0.039-0.164,0.135-0.164,0.245c0,0.102,0.06,0.192,0.146,0.237l0,0l2.188,1.165
		c0.019,0.014,0.038,0.023,0.058,0.032L38.701,78.603z"/>
	<g>
		<path fill="#414042" d="M72.305,81.096h-0.978v-3.681h0.924c0.584,0,1.02,0.288,1.02,0.975c0,0.297-0.135,0.623-0.43,0.761
			c0.309,0.111,0.493,0.436,0.493,0.837C73.333,80.722,72.914,81.096,72.305,81.096z M72.267,77.916h-0.43v0.998h0.42
			c0.273,0,0.488-0.158,0.488-0.51C72.746,78.04,72.544,77.916,72.267,77.916z M72.247,79.407h-0.41v1.189h0.462
			c0.31,0,0.509-0.167,0.509-0.609C72.808,79.576,72.566,79.407,72.247,79.407z"/>
	</g>
	<g>
		<path fill="#414042" d="M84.919,77.481l-0.216-0.972h-0.799l-0.209,0.972h-0.546l0.902-3.683h0.533l0.899,3.683H84.919z
			 M84.462,75.399c-0.052-0.243-0.131-0.666-0.156-0.803c-0.027,0.137-0.106,0.556-0.159,0.803l-0.136,0.62H84.6L84.462,75.399z"/>
	</g>
	<path d="M88.365,10.086H35.626c-1.069,0-1.935,0.868-1.935,1.935v44.086c0,1.019,0.787,1.852,1.787,1.927v0.007
		c0,0,8.789,1.641,26.518,1.641c17.726,0,26.517-1.641,26.517-1.641v-0.007c0.999-0.075,1.787-0.908,1.787-1.927V12.021
		C90.299,10.954,89.433,10.086,88.365,10.086z"/>
	<path fill="#333334" d="M36.886,10.899h-0.395c-1.033,0-1.873,0.84-1.873,1.872v42.64c0,0.988,0.764,1.792,1.728,1.864v0.008
		c0,0,8.502,1.587,25.649,1.587c17.146,0,25.648-1.587,25.648-1.587v-0.008c0.804-0.06,1.463-0.628,1.664-1.384L36.886,10.899z"/>
	<rect x="43.458" y="16.524" fill="#DCDDDE" width="37.134" height="31.922"/>
	<g>
		<path fill="#414042" d="M35.626,27.569h0.354c0.054,0,0.107,0.005,0.158,0.017c0.05,0.009,0.094,0.029,0.132,0.054
			c0.04,0.024,0.069,0.056,0.093,0.1c0.024,0.041,0.035,0.094,0.035,0.157c0,0.063-0.013,0.119-0.038,0.16
			c-0.024,0.043-0.056,0.078-0.096,0.1c-0.037,0.028-0.081,0.042-0.126,0.056c-0.046,0.008-0.089,0.012-0.132,0.012h-0.239v0.536
			h-0.141V27.569z M35.767,28.096h0.239c0.071,0,0.129-0.015,0.173-0.049c0.044-0.03,0.067-0.081,0.067-0.149
			c0-0.066-0.022-0.118-0.067-0.148c-0.044-0.033-0.102-0.048-0.173-0.048h-0.239V28.096z"/>
		<path fill="#414042" d="M37.145,28.795c-0.091,0-0.174-0.018-0.25-0.049c-0.076-0.033-0.141-0.075-0.196-0.13
			c-0.056-0.056-0.099-0.122-0.131-0.199c-0.031-0.076-0.046-0.161-0.046-0.249c0-0.093,0.016-0.173,0.046-0.253
			c0.032-0.076,0.075-0.14,0.131-0.198c0.055-0.055,0.12-0.1,0.196-0.13c0.077-0.032,0.16-0.048,0.25-0.048
			c0.092,0,0.175,0.016,0.25,0.048c0.076,0.03,0.141,0.076,0.197,0.13c0.056,0.058,0.099,0.122,0.13,0.198
			c0.029,0.08,0.045,0.16,0.045,0.253c0,0.087-0.016,0.172-0.045,0.249c-0.032,0.077-0.075,0.144-0.13,0.199
			c-0.056,0.055-0.122,0.097-0.197,0.13C37.32,28.777,37.237,28.795,37.145,28.795z M37.145,28.661c0.069,0,0.133-0.013,0.192-0.037
			c0.057-0.029,0.107-0.063,0.149-0.109c0.041-0.045,0.074-0.095,0.096-0.155c0.024-0.061,0.035-0.125,0.035-0.193
			c0-0.069-0.011-0.135-0.035-0.193c-0.022-0.062-0.055-0.115-0.096-0.161c-0.042-0.043-0.092-0.078-0.149-0.104
			c-0.059-0.027-0.123-0.039-0.192-0.039s-0.133,0.011-0.191,0.039c-0.057,0.027-0.108,0.061-0.149,0.104
			c-0.042,0.045-0.073,0.098-0.097,0.161c-0.023,0.058-0.034,0.124-0.034,0.193c0,0.068,0.011,0.132,0.034,0.193
			c0.023,0.06,0.055,0.109,0.097,0.155c0.042,0.046,0.092,0.08,0.149,0.109C37.012,28.648,37.076,28.661,37.145,28.661z"/>
		<path fill="#414042" d="M37.826,27.569h0.156l0.271,0.99h0.004l0.291-0.99h0.159l0.291,0.99h0.005l0.275-0.99h0.148l-0.351,1.192
			h-0.153l-0.294-1.01h-0.004l-0.297,1.01h-0.155L37.826,27.569z"/>
		<path fill="#414042" d="M39.585,27.569h0.751v0.132h-0.609v0.373h0.569v0.131h-0.569v0.426h0.638v0.13h-0.78V27.569z"/>
		<path fill="#414042" d="M40.583,27.569h0.305c0.058,0,0.114,0.002,0.171,0.011c0.057,0.006,0.108,0.021,0.153,0.043
			c0.044,0.023,0.081,0.057,0.109,0.098c0.028,0.045,0.043,0.104,0.043,0.177c0,0.086-0.026,0.159-0.08,0.212
			c-0.054,0.055-0.126,0.088-0.22,0.104l0.34,0.548h-0.173l-0.323-0.536h-0.182v0.536h-0.142V27.569z M40.726,28.096h0.127
			c0.038,0,0.079,0,0.121-0.004c0.043-0.001,0.082-0.01,0.118-0.024c0.034-0.011,0.062-0.032,0.087-0.056
			c0.024-0.028,0.035-0.064,0.035-0.115c0-0.041-0.008-0.078-0.026-0.103c-0.015-0.027-0.039-0.045-0.065-0.059
			c-0.026-0.016-0.059-0.024-0.094-0.028c-0.035-0.005-0.067-0.006-0.103-0.006h-0.199V28.096z"/>
	</g>
	<circle fill="#CE181E" cx="36.07" cy="25.532" r="0.869"/>
	<path fill="#414042" d="M41.006,24.772c0.166,0.208,0.266,0.471,0.266,0.76s-0.101,0.551-0.266,0.759
		c0.347-0.077,0.607-0.389,0.607-0.759C41.613,25.163,41.353,24.848,41.006,24.772z"/>
	<path fill="#414042" d="M39.472,24.755c0.175,0.211,0.28,0.481,0.28,0.777c0,0.294-0.105,0.566-0.28,0.777
		c0.398-0.039,0.709-0.37,0.709-0.777S39.87,24.791,39.472,24.755z"/>
	<path fill="#414042" d="M37.807,24.752c-0.007,0-0.015,0.001-0.021,0.001c0.176,0.211,0.281,0.483,0.281,0.779
		s-0.105,0.568-0.281,0.778c0.006,0,0.014,0.001,0.021,0.001c0.431,0,0.779-0.35,0.779-0.779
		C38.586,25.101,38.237,24.752,37.807,24.752z"/>
	<g>
		<polygon fill="#414042" points="54.462,54.836 56.164,54.836 56.263,54.239 55.192,54.239 55.309,53.537 56.239,53.537 
			56.337,52.943 55.407,52.943 55.521,52.261 56.588,52.261 56.683,51.68 54.983,51.68 		"/>
		<path fill="#414042" d="M53.504,51.68l-0.77,1.716l-0.37-1.716h-0.599L50.9,54.345l-0.421-2.665h-0.75l-1.164,2.552l0.107-0.913
			h-1.167v0.583h0.446l-0.021,0.28c0,0-0.151,0.125-0.477,0.117c-0.415-0.006-0.817-0.326-0.782-0.917
			c0.038-0.622,0.689-1.172,1.418-1.18c0.469-0.006,0.696,0.129,0.696,0.129v-0.598c0,0-0.046-0.154-0.658-0.154
			c-1.025,0-2.061,0.815-2.062,1.862c-0.001,0.821,0.552,1.455,1.431,1.417c0.483-0.025,0.76-0.165,0.906-0.274l-0.116,0.251h0.689
			l0.415-0.933h0.792l0.158,0.933h0.398h0.236h0.429l0.555-1.811l0.433,1.811h0.397l0.882-1.967l0.054,1.967h0.612l-0.13-3.156
			H53.504z M49.65,53.319l0.316-0.71l0.12,0.71H49.65z"/>
		<path fill="#414042" d="M61.537,51.692c-0.698-0.178-1.444,0.376-1.667,1.243c-0.222,0.865,0.162,1.712,0.86,1.889
			c0.697,0.181,1.444-0.374,1.667-1.241C62.62,52.718,62.235,51.872,61.537,51.692z M61.823,53.436
			c-0.139,0.539-0.56,0.896-0.94,0.797c-0.382-0.098-0.578-0.614-0.441-1.151c0.14-0.541,0.561-0.896,0.942-0.796
			C61.765,52.382,61.962,52.899,61.823,53.436z"/>
		<polygon fill="#414042" points="63.951,51.68 63.309,52.754 62.849,51.68 62.174,51.68 62.915,53.233 62.719,54.836 
			63.324,54.836 63.508,53.411 64.665,51.68 		"/>
		<path fill="#414042" d="M59.727,52.496c0-0.588-0.379-0.816-0.726-0.816h-1.179l-0.521,3.156h1.384c0.458,0,0.96-0.333,0.96-0.933
			c0-0.603-0.404-0.685-0.404-0.685S59.727,53.091,59.727,52.496z M58.734,52.261c0.216,0,0.339,0.104,0.334,0.307
			c-0.006,0.23-0.123,0.375-0.337,0.375h-0.484l0.112-0.682H58.734z M58.148,53.537h0.497c0.295,0.012,0.387,0.126,0.387,0.35
			c0,0.208-0.106,0.353-0.431,0.353h-0.57L58.148,53.537z"/>
	</g>
	<g>
		<path fill="#00A2BC" d="M77.542,55.12c-0.089,0-0.177-0.03-0.25-0.09c-0.009-0.009-0.896-0.777-1.161-1
			c-0.025-0.021-0.05-0.04-0.073-0.059c0.002,0.434-0.032,0.737-0.035,0.755c-0.022,0.208-0.212,0.357-0.42,0.334
			c-0.21-0.023-0.358-0.212-0.336-0.42l0,0c0-0.007,0.064-0.582,0-1.251c-0.107-1.127-0.118-1.431,0.343-1.674l0.012-0.008
			c0.335-0.177,0.913-0.14,1.285-0.015c0.256,0.085,0.573,0.193,0.713,0.486c0.055,0.116,0.101,0.306,0.005,0.561
			c-0.13,0.347-0.524,0.615-0.91,0.79c0.337,0.285,1.042,0.896,1.074,0.924c0.16,0.136,0.177,0.376,0.038,0.536
			C77.755,55.076,77.649,55.12,77.542,55.12z M75.972,52.385c-0.013,0.118,0.005,0.375,0.024,0.6
			c0.36-0.094,0.802-0.326,0.902-0.486c-0.068-0.032-0.176-0.068-0.23-0.084c-0.271-0.093-0.609-0.079-0.69-0.035L75.972,52.385z"/>
		<path fill="#DC1F40" d="M66.967,55.091c-0.595,0-1.016-0.123-1.304-0.376c-0.275-0.241-0.414-0.595-0.414-1.05
			c0-0.956,1.113-2.274,1.921-2.274c0.375,0,0.584,0.146,0.695,0.269c0.201,0.227,0.183,0.492,0.178,0.544
			c-0.022,0.208-0.212,0.358-0.42,0.335c-0.192-0.022-0.337-0.185-0.337-0.374c-0.021-0.006-0.059-0.011-0.115-0.011
			c-0.26,0-1.162,0.859-1.162,1.511c0,0.306,0.09,0.421,0.156,0.481c0.147,0.128,0.521,0.258,1.454,0.141
			c0.207-0.028,0.397,0.122,0.425,0.328c0.026,0.209-0.121,0.399-0.33,0.426C67.438,55.074,67.19,55.091,66.967,55.091z"/>
		<path fill="#622D91" d="M69.107,54.945c-0.731,0-1.285-0.445-1.379-1.109c-0.054-0.378,0.066-0.791,0.326-1.132
			c0.287-0.378,0.713-0.625,1.167-0.685c0.048-0.004,0.094-0.009,0.14-0.009c0.66,0,1.232,0.574,1.303,1.305
			c0.079,0.826-0.423,1.468-1.249,1.604C69.313,54.937,69.209,54.945,69.107,54.945z M69.361,52.773
			c-0.013,0-0.027,0.001-0.042,0.001c-0.256,0.032-0.496,0.174-0.661,0.391c-0.137,0.182-0.202,0.386-0.177,0.565
			c0.058,0.409,0.458,0.453,0.625,0.453c0.061,0,0.124-0.004,0.188-0.014c0.423-0.069,0.65-0.362,0.612-0.78
			C69.872,53.006,69.595,52.773,69.361,52.773z"/>
		<path fill="#F9D308" d="M73.664,54.922c-0.644,0-1.134-0.392-1.313-1.05c-0.1-0.372-0.016-0.776,0.233-1.114
			c0.292-0.398,0.757-0.635,1.28-0.656c0.021,0,0.042,0,0.061,0c0.745,0,1.33,0.496,1.392,1.177c0.07,0.79-0.411,1.4-1.256,1.595
			C73.924,54.908,73.791,54.922,73.664,54.922z M73.925,52.862c-0.009,0-0.021,0-0.032,0.001c-0.289,0.012-0.543,0.136-0.696,0.344
			c-0.108,0.148-0.151,0.322-0.111,0.466c0.087,0.325,0.282,0.49,0.578,0.49c0.068,0,0.146-0.011,0.224-0.029
			c0.271-0.063,0.72-0.248,0.671-0.786C74.523,52.966,74.145,52.862,73.925,52.862z"/>
		<path fill="#8DC13E" d="M71.175,55.063c-0.07,0-0.143-0.017-0.214-0.055c-0.251-0.141-0.251-0.398-0.251-0.727
			c0-0.227-0.036-0.683-0.068-1.089c-0.013-0.168-0.025-0.337-0.036-0.48c-0.027-0.395-0.16-0.665-0.16-0.666
			c-0.097-0.186-0.023-0.416,0.163-0.512c0.186-0.098,0.417-0.022,0.514,0.165c0.02,0.04,0.204,0.409,0.241,0.962
			c0.011,0.138,0.023,0.303,0.036,0.473c0.028,0.36,0.057,0.729,0.066,0.991c0.35-0.144,0.758-0.19,0.895-0.19
			c0.21,0,0.382,0.17,0.382,0.38c0,0.211-0.172,0.381-0.382,0.381c-0.097,0-0.514,0.059-0.724,0.192
			C71.517,54.96,71.352,55.063,71.175,55.063z"/>
	</g>
	<path opacity="0.3" fill="#FFFFFF" d="M89.371,55.411v-42.64c0-1.032-0.837-1.872-1.871-1.872H36.886l52.421,44.992
		C89.348,55.737,89.371,55.578,89.371,55.411z"/>
	<g>
		<circle cx="76.878" cy="98.437" r="0.485"/>
		<path d="M81.057,97.926c0,0.267-0.216,0.482-0.484,0.482c-0.27,0-0.486-0.216-0.486-0.482c0-0.27,0.217-0.486,0.486-0.486
			C80.841,97.439,81.057,97.656,81.057,97.926z"/>
		<path d="M84.803,97.34c0,0.271-0.217,0.487-0.485,0.487c-0.267,0-0.484-0.217-0.484-0.487c0-0.265,0.217-0.48,0.484-0.48
			C84.585,96.859,84.803,97.075,84.803,97.34z"/>
		<circle cx="88.064" cy="96.62" r="0.485"/>
		<circle cx="78.725" cy="100.011" r="0.485"/>
		<circle cx="82.456" cy="99.476" r="0.485"/>
		<circle cx="86.188" cy="98.841" r="0.485"/>
		<circle cx="78.725" cy="96.32" r="0.485"/>
		<path d="M82.94,95.763c0,0.267-0.215,0.483-0.485,0.483c-0.268,0-0.484-0.217-0.484-0.483c0-0.271,0.217-0.488,0.484-0.488
			C82.725,95.274,82.94,95.492,82.94,95.763z"/>
		<path d="M86.673,95.171c0,0.27-0.218,0.486-0.486,0.486c-0.267,0-0.483-0.217-0.483-0.486c0-0.266,0.216-0.483,0.483-0.483
			C86.455,94.688,86.673,94.905,86.673,95.171z"/>
		<circle cx="89.925" cy="98.074" r="0.486"/>
		<path d="M77.363,102.134c0,0.267-0.216,0.484-0.484,0.484c-0.269,0-0.487-0.218-0.487-0.484c0-0.271,0.218-0.485,0.487-0.485
			C77.147,101.648,77.363,101.863,77.363,102.134z"/>
		<circle cx="80.572" cy="101.648" r="0.485"/>
		<circle cx="84.318" cy="101.014" r="0.485"/>
		<circle cx="88.064" cy="100.326" r="0.485"/>
		<circle cx="78.725" cy="103.744" r="0.485"/>
		<path d="M82.905,103.166c0,0.271-0.218,0.488-0.486,0.488c-0.269,0-0.484-0.218-0.484-0.488c0-0.267,0.215-0.482,0.484-0.482
			C82.687,102.684,82.905,102.899,82.905,103.166z"/>
		<circle cx="86.188" cy="102.558" r="0.485"/>
		<circle cx="89.925" cy="101.776" r="0.486"/>
		<circle cx="76.878" cy="105.825" r="0.485"/>
		<circle cx="80.572" cy="105.341" r="0.485"/>
		<circle cx="84.318" cy="104.789" r="0.485"/>
		<circle cx="88.064" cy="104.036" r="0.485"/>
		<circle cx="78.725" cy="107.482" r="0.485"/>
		<circle cx="82.42" cy="106.95" r="0.485"/>
		<path d="M86.673,106.304c0,0.265-0.218,0.484-0.486,0.484c-0.267,0-0.483-0.22-0.483-0.484c0-0.269,0.216-0.486,0.483-0.486
			C86.455,105.817,86.673,106.035,86.673,106.304z"/>
		<circle cx="89.925" cy="105.522" r="0.486"/>
		<path d="M81.057,109.084c0,0.271-0.216,0.487-0.484,0.487c-0.27,0-0.486-0.216-0.486-0.487c0-0.266,0.217-0.48,0.486-0.48
			C80.841,108.604,81.057,108.818,81.057,109.084z"/>
		<circle cx="84.318" cy="108.498" r="0.485"/>
		<circle cx="88.064" cy="107.76" r="0.485"/>
	</g>
</g>
<g>
	<path fill="#622D91" d="M216,12.296c0-1.255-1.018-2.272-2.273-2.272h-47.881c-1.257,0-2.271,1.018-2.271,2.272v78.206l0,0l0,0
		c0,2.048,1.046,3.852,2.633,4.906l0,0c0,0,2.945,2.855,23.92,2.855c13.2,0,19.059-1.209,21.588-2.104
		c2.465-0.701,4.271-2.97,4.271-5.658l0,0H216V12.296z"/>
	<path opacity="0.15" fill="#FFFFFF" d="M207.606,10.024h-35.641v74.954l0,0l0,0c0,1.393,0.711,2.618,1.791,3.335l0,0
		c0,0,2.001,1.066,16.26,1.066c8.977,0,12.959,0.053,14.679-0.554c1.677-0.478,2.902-2.02,2.902-3.848v-0.874h0.009V10.024z"/>
	<path fill="#333334" d="M202.06,69.268c0,1.795-1.453,3.25-3.246,3.25c-1.794,0-3.247-1.455-3.247-3.25
		c0-1.791,1.453-3.245,3.247-3.245C200.606,66.022,202.06,67.477,202.06,69.268z"/>
	<circle fill="#333334" cx="208.41" cy="66.312" r="3.248"/>
	<path fill="#333334" d="M179.8,65.397h-3.318v-3.318c0-0.364-0.296-0.663-0.66-0.663h-3.272c-0.365,0-0.659,0.299-0.659,0.663
		v3.318h-3.319c-0.366,0-0.659,0.294-0.659,0.66v3.269c0,0.366,0.293,0.664,0.659,0.664h3.319v3.318c0,0.364,0.294,0.66,0.659,0.66
		h3.272c0.364,0,0.66-0.296,0.66-0.66V69.99h3.318c0.365,0,0.662-0.298,0.662-0.664v-3.269
		C180.462,65.691,180.165,65.397,179.8,65.397z"/>
	<path d="M187.13,82.001h-3.111c-0.429,0-0.776,0.349-0.776,0.776c0,0.431,0.348,0.776,0.776,0.776h3.111
		c0.429,0,0.778-0.346,0.778-0.776C187.908,82.35,187.559,82.001,187.13,82.001z"/>
	<path d="M194.986,82.001h-3.108c-0.431,0-0.777,0.349-0.777,0.776c0,0.431,0.347,0.776,0.777,0.776h3.108
		c0.43,0,0.777-0.346,0.777-0.776C195.764,82.35,195.416,82.001,194.986,82.001z"/>
	<circle fill="#414042" cx="174.197" cy="67.693" r="1.267"/>
	<path fill="#414042" d="M175.362,71.073L175.362,71.073c0.009-0.022,0.015-0.049,0.015-0.073c0-0.121-0.098-0.217-0.217-0.217
		h-1.925c-0.12,0-0.216,0.096-0.216,0.217c0,0.027,0.006,0.057,0.016,0.082l0,0v0.002c0.007,0.012,0.012,0.025,0.021,0.038
		l0.941,1.765c0.034,0.08,0.11,0.135,0.199,0.135c0.085,0,0.158-0.048,0.194-0.122l0,0l0.945-1.774
		c0.011-0.015,0.02-0.03,0.026-0.048V71.073z"/>
	<path fill="#414042" d="M173.033,64.312L173.033,64.312c-0.009,0.022-0.014,0.047-0.014,0.074c0,0.118,0.096,0.217,0.216,0.217
		h1.925c0.119,0,0.217-0.099,0.217-0.217c0-0.029-0.007-0.059-0.017-0.083l0,0l0,0c-0.006-0.016-0.014-0.025-0.021-0.038
		l-0.942-1.768c-0.033-0.078-0.11-0.131-0.201-0.131c-0.083,0-0.156,0.049-0.192,0.117l0,0l-0.943,1.777
		c-0.011,0.013-0.021,0.027-0.026,0.047L173.033,64.312z"/>
	<path fill="#414042" d="M177.579,66.527L177.579,66.527c-0.023-0.007-0.048-0.013-0.074-0.013c-0.12,0-0.216,0.095-0.216,0.217
		v1.922c0,0.12,0.096,0.218,0.216,0.218c0.029,0,0.057-0.007,0.08-0.016h0.001l0,0c0.015-0.006,0.026-0.014,0.039-0.021l1.767-0.942
		c0.079-0.032,0.134-0.11,0.134-0.199c0-0.086-0.05-0.158-0.121-0.191l0,0l-1.775-0.946c-0.015-0.013-0.029-0.021-0.047-0.027
		L177.579,66.527z"/>
	<path fill="#414042" d="M170.815,68.856L170.815,68.856c0.024,0.009,0.049,0.015,0.075,0.015c0.119,0,0.215-0.098,0.215-0.218
		v-1.922c0-0.122-0.096-0.217-0.215-0.217c-0.029,0-0.057,0.006-0.083,0.017V66.53v0.001c-0.015,0.004-0.025,0.011-0.04,0.021
		l-1.765,0.94c-0.079,0.033-0.132,0.111-0.132,0.201c0,0.084,0.049,0.155,0.12,0.192l0,0l1.773,0.945
		c0.016,0.011,0.031,0.019,0.047,0.024L170.815,68.856z"/>
	<g>
		<path fill="#414042" d="M198.097,70.885h-0.793v-2.988h0.75c0.475,0,0.829,0.233,0.829,0.79c0,0.245-0.112,0.508-0.352,0.617
			c0.251,0.089,0.402,0.356,0.402,0.68C198.934,70.58,198.593,70.885,198.097,70.885z M198.066,68.301h-0.35v0.812h0.342
			c0.221,0,0.396-0.127,0.396-0.414C198.455,68.406,198.291,68.301,198.066,68.301z M198.049,69.513h-0.332v0.968h0.377
			c0.251,0,0.414-0.139,0.414-0.497C198.508,69.652,198.311,69.513,198.049,69.513z"/>
	</g>
	<g>
		<path fill="#414042" d="M208.337,67.949l-0.174-0.789h-0.647l-0.172,0.789h-0.442l0.733-2.987h0.431l0.729,2.987H208.337z
			 M207.968,66.261c-0.043-0.197-0.106-0.546-0.13-0.653c-0.021,0.107-0.084,0.451-0.126,0.653l-0.113,0.503h0.479L207.968,66.261z"
			/>
	</g>
	<path d="M211.136,13.238H168.32c-0.867,0-1.568,0.703-1.568,1.57v35.791c0,0.829,0.637,1.503,1.448,1.565v0.007
		c0,0,7.136,1.332,21.527,1.332s21.528-1.332,21.528-1.332v-0.007c0.811-0.062,1.449-0.736,1.449-1.565V14.808
		C212.705,13.941,212.003,13.238,211.136,13.238z"/>
	<path fill="#333334" d="M169.344,13.897h-0.321c-0.84,0-1.519,0.681-1.519,1.519v34.617c0,0.801,0.617,1.454,1.402,1.517v0.006
		c0,0,6.902,1.288,20.821,1.288c13.921,0,20.822-1.288,20.822-1.288v-0.006c0.652-0.051,1.189-0.513,1.352-1.128L169.344,13.897z"/>
	<rect x="174.68" y="18.464" fill="#DCDDDE" width="30.145" height="25.913"/>
	<g>
		<path fill="#414042" d="M168.32,27.429h0.287c0.045,0,0.087,0.005,0.127,0.014c0.042,0.007,0.078,0.023,0.109,0.043
			c0.03,0.02,0.057,0.046,0.076,0.082c0.018,0.032,0.028,0.076,0.028,0.125c0,0.054-0.012,0.099-0.032,0.135
			c-0.021,0.032-0.045,0.061-0.075,0.08c-0.032,0.022-0.067,0.033-0.104,0.042c-0.038,0.008-0.073,0.013-0.107,0.013h-0.193v0.434
			h-0.115V27.429z M168.436,27.855h0.193c0.059,0,0.105-0.011,0.142-0.039c0.036-0.025,0.054-0.063,0.054-0.12
			c0-0.056-0.018-0.095-0.054-0.122c-0.036-0.024-0.083-0.039-0.142-0.039h-0.193V27.855z"/>
		<path fill="#414042" d="M169.554,28.423c-0.073,0-0.143-0.013-0.203-0.038c-0.062-0.025-0.114-0.062-0.158-0.107
			c-0.047-0.045-0.079-0.098-0.106-0.161c-0.025-0.062-0.037-0.131-0.037-0.202c0-0.075,0.012-0.143,0.037-0.205
			c0.027-0.062,0.06-0.117,0.106-0.161c0.044-0.046,0.097-0.081,0.158-0.105c0.061-0.026,0.13-0.041,0.203-0.041
			c0.074,0,0.141,0.015,0.202,0.041c0.062,0.024,0.117,0.059,0.16,0.105c0.046,0.044,0.081,0.099,0.107,0.161
			c0.023,0.062,0.036,0.13,0.036,0.205c0,0.071-0.013,0.14-0.036,0.202c-0.026,0.063-0.062,0.116-0.107,0.161
			c-0.043,0.046-0.099,0.082-0.16,0.107S169.628,28.423,169.554,28.423z M169.554,28.316c0.057,0,0.11-0.011,0.156-0.033
			c0.046-0.02,0.086-0.049,0.121-0.085c0.033-0.036,0.06-0.079,0.079-0.129c0.018-0.046,0.026-0.1,0.026-0.154
			c0-0.057-0.009-0.107-0.026-0.158c-0.02-0.049-0.046-0.09-0.079-0.129c-0.035-0.036-0.075-0.064-0.121-0.085s-0.1-0.03-0.156-0.03
			c-0.058,0-0.108,0.01-0.154,0.03c-0.047,0.021-0.088,0.049-0.12,0.085c-0.035,0.039-0.062,0.08-0.079,0.129
			c-0.019,0.051-0.028,0.101-0.028,0.158c0,0.055,0.01,0.108,0.028,0.154c0.018,0.05,0.044,0.093,0.079,0.129
			c0.032,0.036,0.073,0.065,0.12,0.085C169.445,28.305,169.496,28.316,169.554,28.316z"/>
		<path fill="#414042" d="M170.105,27.429h0.128l0.221,0.804h0.003l0.235-0.804h0.129l0.238,0.804h0.002l0.225-0.804h0.12
			l-0.284,0.968h-0.124l-0.242-0.821h-0.002l-0.239,0.821h-0.127L170.105,27.429z"/>
		<path fill="#414042" d="M171.535,27.429h0.608v0.106h-0.492v0.305h0.459v0.106h-0.459v0.345h0.517v0.105h-0.633V27.429z"/>
		<path fill="#414042" d="M172.345,27.429h0.247c0.05,0,0.094,0.003,0.14,0.007c0.049,0.008,0.089,0.017,0.125,0.038
			c0.036,0.016,0.065,0.045,0.087,0.08c0.024,0.036,0.036,0.083,0.036,0.143c0,0.072-0.022,0.128-0.066,0.172
			c-0.041,0.042-0.101,0.072-0.176,0.084l0.275,0.444h-0.142l-0.265-0.434h-0.145v0.434h-0.117V27.429z M172.462,27.855h0.101
			c0.032,0,0.065,0,0.1,0c0.034-0.002,0.065-0.01,0.094-0.019c0.029-0.011,0.052-0.026,0.072-0.049
			c0.019-0.019,0.028-0.05,0.028-0.091c0-0.035-0.007-0.061-0.021-0.082c-0.015-0.021-0.032-0.039-0.055-0.05
			c-0.021-0.011-0.048-0.019-0.075-0.021c-0.028-0.004-0.057-0.007-0.084-0.007h-0.16V27.855z"/>
	</g>
	<circle fill="#CE181E" cx="168.681" cy="25.775" r="0.705"/>
	<path fill="#414042" d="M172.688,25.16c0.137,0.168,0.217,0.38,0.217,0.616c0,0.234-0.08,0.45-0.217,0.615
		c0.283-0.061,0.493-0.315,0.493-0.615C173.181,25.472,172.971,25.222,172.688,25.16z"/>
	<path fill="#414042" d="M171.443,25.146c0.141,0.172,0.225,0.388,0.225,0.63c0,0.24-0.084,0.459-0.225,0.631
		c0.322-0.029,0.573-0.301,0.573-0.631S171.766,25.175,171.443,25.146z"/>
	<path fill="#414042" d="M170.09,25.143c-0.006,0-0.01,0.001-0.016,0.001c0.143,0.172,0.229,0.39,0.229,0.632
		c0,0.243-0.087,0.46-0.229,0.633c0.006,0,0.01,0,0.016,0c0.353,0,0.634-0.283,0.634-0.633
		C170.724,25.425,170.442,25.143,170.09,25.143z"/>
	<g>
		<polygon fill="#414042" points="183.613,49.567 184.993,49.567 185.073,49.081 184.205,49.081 184.299,48.512 185.057,48.512 
			185.134,48.026 184.379,48.026 184.471,47.477 185.338,47.477 185.415,47.004 184.034,47.004 		"/>
		<path fill="#414042" d="M182.835,47.004l-0.624,1.395l-0.301-1.395h-0.487l-0.701,2.163l-0.343-2.163h-0.609l-0.945,2.068
			l0.087-0.738h-0.947v0.472h0.364l-0.018,0.228c0,0-0.122,0.101-0.388,0.098c-0.338-0.006-0.664-0.264-0.634-0.749
			c0.031-0.502,0.561-0.948,1.149-0.956c0.382-0.005,0.569,0.105,0.569,0.105v-0.484c0,0-0.04-0.125-0.538-0.125
			c-0.83,0-1.671,0.66-1.673,1.51c0,0.666,0.448,1.181,1.161,1.148c0.394-0.019,0.616-0.133,0.736-0.221l-0.094,0.205h0.56
			l0.336-0.76h0.644l0.126,0.76h0.325h0.191h0.349l0.45-1.472l0.354,1.472h0.32l0.716-1.596l0.044,1.596h0.498l-0.104-2.562H182.835
			z M179.705,48.334l0.258-0.577l0.098,0.577H179.705z"/>
		<path fill="#414042" d="M189.355,47.013c-0.566-0.146-1.17,0.306-1.354,1.007c-0.181,0.703,0.134,1.392,0.698,1.537
			c0.568,0.145,1.172-0.307,1.352-1.01C190.234,47.847,189.922,47.158,189.355,47.013z M189.59,48.429
			c-0.113,0.438-0.455,0.726-0.765,0.646c-0.309-0.08-0.47-0.498-0.357-0.935s0.455-0.726,0.765-0.647
			C189.541,47.575,189.7,47.994,189.59,48.429z"/>
		<polygon fill="#414042" points="191.316,47.004 190.796,47.874 190.421,47.004 189.872,47.004 190.473,48.265 190.315,49.567 
			190.809,49.567 190.956,48.411 191.896,47.004 		"/>
		<path fill="#414042" d="M187.886,47.667c0-0.482-0.307-0.663-0.589-0.663h-0.958l-0.421,2.562h1.122c0.373,0,0.78-0.27,0.78-0.76
			c0-0.488-0.328-0.554-0.328-0.554S187.886,48.147,187.886,47.667z M187.083,47.477c0.173,0,0.272,0.083,0.268,0.249
			c-0.003,0.186-0.099,0.301-0.271,0.301h-0.396l0.094-0.549H187.083z M186.604,48.512h0.403c0.241,0.011,0.314,0.1,0.314,0.283
			c0,0.17-0.083,0.287-0.348,0.287h-0.465L186.604,48.512z"/>
	</g>
	<g>
		<path fill="#00A2BC" d="M202.35,49.798c-0.071,0-0.143-0.028-0.203-0.077c-0.008-0.005-0.727-0.628-0.94-0.81
			c-0.021-0.016-0.041-0.034-0.062-0.047c0.003,0.35-0.024,0.596-0.025,0.611c-0.02,0.169-0.175,0.292-0.343,0.271
			c-0.169-0.017-0.29-0.17-0.271-0.34l0,0c0-0.004,0.051-0.472,0-1.017c-0.089-0.913-0.098-1.161,0.277-1.359l0.01-0.003
			c0.271-0.145,0.738-0.116,1.043-0.014c0.208,0.067,0.464,0.156,0.577,0.393c0.046,0.094,0.083,0.25,0.005,0.457
			c-0.107,0.281-0.424,0.498-0.737,0.64c0.273,0.235,0.847,0.729,0.871,0.752c0.131,0.109,0.144,0.306,0.032,0.434
			C202.523,49.76,202.437,49.798,202.35,49.798z M201.075,47.577c-0.01,0.096,0.003,0.302,0.021,0.486
			c0.291-0.077,0.648-0.266,0.731-0.394c-0.056-0.026-0.144-0.056-0.189-0.068c-0.218-0.077-0.492-0.063-0.559-0.029L201.075,47.577
			z"/>
		<path fill="#DC1F40" d="M193.764,49.773c-0.481,0-0.824-0.1-1.06-0.305c-0.223-0.197-0.335-0.483-0.335-0.854
			c0-0.776,0.906-1.846,1.561-1.846c0.305,0,0.475,0.118,0.562,0.217c0.165,0.184,0.15,0.399,0.146,0.442
			c-0.018,0.168-0.172,0.29-0.34,0.273c-0.158-0.018-0.273-0.15-0.277-0.302c-0.016-0.007-0.045-0.012-0.091-0.012
			c-0.213,0-0.942,0.7-0.942,1.229c0,0.249,0.071,0.341,0.125,0.389c0.119,0.106,0.422,0.208,1.18,0.113
			c0.168-0.021,0.325,0.1,0.346,0.268c0.021,0.169-0.098,0.324-0.268,0.344C194.147,49.76,193.944,49.773,193.764,49.773z"/>
		<path fill="#622D91" d="M195.501,49.653c-0.594,0-1.043-0.362-1.121-0.899c-0.04-0.307,0.056-0.643,0.269-0.918
			c0.23-0.306,0.576-0.509,0.946-0.557c0.037-0.003,0.075-0.005,0.115-0.005c0.533,0,0.998,0.464,1.055,1.058
			c0.064,0.669-0.344,1.194-1.011,1.304C195.669,49.645,195.583,49.653,195.501,49.653z M195.71,47.888
			c-0.013,0-0.025,0-0.035,0.004c-0.208,0.026-0.404,0.14-0.537,0.317c-0.113,0.144-0.164,0.313-0.144,0.458
			c0.045,0.332,0.37,0.367,0.507,0.367c0.05,0,0.101-0.002,0.153-0.01c0.344-0.058,0.53-0.293,0.496-0.635
			C196.121,48.081,195.897,47.888,195.71,47.888z"/>
		<path fill="#F9D308" d="M199.198,49.637c-0.521,0-0.919-0.321-1.062-0.854c-0.082-0.3-0.013-0.631,0.19-0.904
			c0.235-0.321,0.612-0.516,1.038-0.532c0.016,0,0.034,0,0.05,0c0.604,0,1.08,0.402,1.128,0.956
			c0.057,0.639-0.333,1.133-1.021,1.296C199.413,49.623,199.303,49.637,199.198,49.637z M199.414,47.964
			c-0.009,0-0.019,0.001-0.027,0.001c-0.235,0.008-0.44,0.109-0.564,0.279c-0.088,0.121-0.122,0.261-0.091,0.375
			c0.069,0.266,0.227,0.401,0.467,0.401c0.058,0,0.121-0.009,0.186-0.024c0.22-0.05,0.582-0.202,0.544-0.638
			C199.899,48.047,199.591,47.964,199.414,47.964z"/>
		<path fill="#8DC13E" d="M197.181,49.75c-0.056,0-0.115-0.013-0.174-0.043c-0.205-0.114-0.205-0.325-0.205-0.592
			c0-0.182-0.029-0.555-0.055-0.882c-0.011-0.14-0.021-0.275-0.029-0.39c-0.021-0.324-0.131-0.542-0.131-0.542
			c-0.077-0.151-0.018-0.337,0.134-0.415c0.152-0.078,0.338-0.019,0.417,0.132c0.015,0.034,0.166,0.333,0.197,0.782
			c0.009,0.111,0.019,0.245,0.029,0.383c0.022,0.293,0.044,0.592,0.053,0.803c0.282-0.116,0.613-0.152,0.728-0.152
			c0.169,0,0.307,0.137,0.307,0.308s-0.138,0.309-0.307,0.309c-0.082,0-0.42,0.048-0.591,0.155
			C197.459,49.669,197.325,49.75,197.181,49.75z"/>
	</g>
	<path opacity="0.3" fill="#FFFFFF" d="M211.952,50.032V15.416c0-0.838-0.68-1.519-1.52-1.519h-41.089l42.558,36.523
		C211.933,50.297,211.952,50.168,211.952,50.032z"/>
	<g>
		<circle cx="201.81" cy="84.963" r="0.395"/>
		<circle cx="204.81" cy="84.545" r="0.394"/>
		<circle cx="207.849" cy="84.071" r="0.394"/>
		<circle cx="210.891" cy="83.487" r="0.395"/>
		<circle cx="203.31" cy="86.239" r="0.394"/>
		<circle cx="206.338" cy="85.804" r="0.394"/>
		<circle cx="209.368" cy="85.289" r="0.394"/>
		<path d="M203.703,83.244c0,0.215-0.176,0.393-0.394,0.393s-0.394-0.178-0.394-0.393c0-0.22,0.176-0.395,0.394-0.395
			S203.703,83.024,203.703,83.244z"/>
		<circle cx="206.338" cy="82.789" r="0.394"/>
		<circle cx="209.368" cy="82.312" r="0.394"/>
		<circle cx="212.402" cy="84.666" r="0.395"/>
		<circle cx="201.81" cy="87.962" r="0.395"/>
		<path d="M205.203,87.57c0,0.213-0.176,0.392-0.395,0.392c-0.216,0-0.393-0.179-0.393-0.392c0-0.222,0.177-0.397,0.393-0.397
			C205.027,87.173,205.203,87.349,205.203,87.57z"/>
		<circle cx="207.849" cy="87.055" r="0.394"/>
		<circle cx="210.891" cy="86.496" r="0.395"/>
		<circle cx="203.31" cy="89.271" r="0.394"/>
		<path d="M206.703,88.803c0,0.217-0.177,0.395-0.396,0.395c-0.215,0-0.393-0.178-0.393-0.395c0-0.218,0.178-0.393,0.393-0.393
			C206.526,88.41,206.703,88.585,206.703,88.803z"/>
		<circle cx="209.368" cy="88.309" r="0.394"/>
		<path d="M212.797,87.671c0,0.219-0.177,0.396-0.395,0.396s-0.395-0.178-0.395-0.396c0-0.215,0.177-0.393,0.395-0.393
			S212.797,87.456,212.797,87.671z"/>
		<circle cx="201.81" cy="90.962" r="0.395"/>
		<circle cx="204.81" cy="90.568" r="0.394"/>
		<circle cx="207.849" cy="90.117" r="0.394"/>
		<circle cx="210.891" cy="89.508" r="0.395"/>
		<circle cx="203.31" cy="92.304" r="0.394"/>
		<path d="M206.703,91.874c0,0.219-0.177,0.394-0.396,0.394c-0.215,0-0.393-0.175-0.393-0.394c0-0.217,0.178-0.395,0.393-0.395
			C206.526,91.479,206.703,91.657,206.703,91.874z"/>
		<circle cx="209.368" cy="91.347" r="0.394"/>
		<circle cx="212.402" cy="90.713" r="0.395"/>
		<circle cx="204.81" cy="93.607" r="0.394"/>
		<circle cx="207.849" cy="93.13" r="0.394"/>
		<circle cx="210.891" cy="92.529" r="0.395"/>
	</g>
</g>
<g>
	<path fill="#00A2BC" d="M185.201,8.269c0-1.564-1.265-2.829-2.829-2.829H122.76c-1.562,0-2.83,1.265-2.83,2.829v97.364l0,0l0,0
		c0,2.553,1.304,4.798,3.282,6.109v0.003c0,0,3.665,3.551,29.777,3.551c16.436,0,23.73-1.502,26.88-2.615
		c3.068-0.876,5.314-3.697,5.314-7.048l0,0h0.018V8.269z"/>
	<path opacity="0.15" fill="#FFFFFF" d="M174.753,5.44h-44.375v93.318l0,0l0,0c0,1.733,0.886,3.261,2.231,4.155l0,0
		c0,0,2.492,1.325,20.246,1.325c11.172,0,16.132,0.067,18.274-0.692c2.083-0.593,3.61-2.512,3.61-4.788v-1.09h0.013V5.44z"/>
	<circle fill="#333334" cx="163.805" cy="79.201" r="4.042"/>
	<path fill="#333334" d="M179.797,75.516c0,2.235-1.812,4.046-4.044,4.046s-4.042-1.811-4.042-4.046c0-2.23,1.81-4.041,4.042-4.041
		S179.797,73.285,179.797,75.516z"/>
	<path fill="#333334" d="M140.134,74.378h-4.132v-4.133c0-0.452-0.367-0.821-0.822-0.821h-4.073c-0.453,0-0.823,0.369-0.823,0.821
		v4.133h-4.132c-0.454,0-0.822,0.367-0.822,0.823v4.07c0,0.458,0.368,0.824,0.822,0.824h4.132v4.134c0,0.452,0.37,0.82,0.823,0.82
		h4.073c0.455,0,0.822-0.368,0.822-0.82v-4.134h4.132c0.456,0,0.824-0.366,0.824-0.824v-4.07
		C140.958,74.745,140.59,74.378,140.134,74.378z"/>
	<path d="M149.259,95.05h-3.873c-0.533,0-0.968,0.432-0.968,0.967s0.435,0.971,0.968,0.971h3.873c0.535,0,0.969-0.436,0.969-0.971
		S149.794,95.05,149.259,95.05z"/>
	<path d="M159.042,95.05h-3.873c-0.534,0-0.969,0.432-0.969,0.967s0.435,0.971,0.969,0.971h3.873c0.535,0,0.968-0.436,0.968-0.971
		S159.577,95.05,159.042,95.05z"/>
	<circle fill="#414042" cx="133.16" cy="77.236" r="1.578"/>
	<path fill="#414042" d="M134.61,81.447l-0.001-0.003c0.013-0.025,0.016-0.059,0.016-0.09c0-0.148-0.119-0.269-0.268-0.269h-2.397
		c-0.147,0-0.269,0.12-0.269,0.269c0,0.037,0.007,0.07,0.02,0.102v0.003l0,0c0.007,0.016,0.017,0.032,0.025,0.046l1.174,2.199
		c0.04,0.098,0.137,0.166,0.247,0.166c0.106,0,0.198-0.06,0.241-0.15l0,0l1.177-2.208c0.013-0.021,0.025-0.039,0.032-0.061
		L134.61,81.447z"/>
	<path fill="#414042" d="M131.707,73.028L131.707,73.028c-0.009,0.027-0.016,0.06-0.016,0.092c0,0.147,0.121,0.269,0.269,0.269
		h2.397c0.148,0,0.268-0.121,0.268-0.269c0-0.035-0.006-0.071-0.02-0.104l0,0l0,0c-0.008-0.017-0.015-0.033-0.024-0.047
		l-1.174-2.198c-0.041-0.099-0.137-0.166-0.25-0.166c-0.104,0-0.194,0.059-0.238,0.147h-0.002l-1.175,2.211
		c-0.015,0.016-0.025,0.037-0.032,0.06L131.707,73.028z"/>
	<path fill="#414042" d="M137.368,75.786L137.368,75.786c-0.028-0.011-0.059-0.015-0.092-0.015c-0.15,0-0.271,0.118-0.271,0.269
		v2.396c0,0.147,0.121,0.267,0.271,0.267c0.035,0,0.07-0.006,0.102-0.019h0.003h0.001c0.014-0.008,0.031-0.016,0.044-0.025
		l2.2-1.174c0.099-0.04,0.165-0.135,0.165-0.249c0-0.105-0.059-0.195-0.147-0.24l0,0l-2.212-1.175
		c-0.019-0.015-0.038-0.026-0.061-0.033L137.368,75.786z"/>
	<path fill="#414042" d="M128.948,78.687L128.948,78.687c0.028,0.011,0.06,0.017,0.094,0.017c0.149,0,0.267-0.119,0.267-0.267V76.04
		c0-0.15-0.117-0.269-0.267-0.269c-0.037,0-0.072,0.004-0.104,0.017l0,0h-0.002c-0.016,0.008-0.031,0.017-0.046,0.026l-2.199,1.175
		c-0.099,0.038-0.165,0.138-0.165,0.247c0,0.106,0.059,0.195,0.147,0.24v0.001l2.211,1.177c0.019,0.015,0.038,0.022,0.059,0.032
		H128.948z"/>
	<g>
		<path fill="#414042" d="M162.914,81.21h-0.988v-3.718h0.934c0.59,0,1.033,0.293,1.033,0.982c0,0.302-0.139,0.632-0.438,0.77
			c0.313,0.111,0.501,0.44,0.501,0.845C163.956,80.833,163.528,81.21,162.914,81.21z M162.876,77.995h-0.437v1.01h0.426
			c0.276,0,0.494-0.159,0.494-0.515C163.359,78.124,163.156,77.995,162.876,77.995z M162.854,79.505h-0.415v1.2h0.47
			c0.312,0,0.515-0.172,0.515-0.616C163.424,79.674,163.179,79.505,162.854,79.505z"/>
	</g>
	<g>
		<path fill="#414042" d="M175.665,77.557l-0.22-0.982h-0.806l-0.214,0.982h-0.552l0.914-3.719h0.535l0.909,3.719H175.665z
			 M175.201,75.453c-0.052-0.245-0.132-0.675-0.158-0.812c-0.026,0.138-0.108,0.562-0.159,0.812l-0.139,0.627h0.597L175.201,75.453z
			"/>
	</g>
	<path d="M179.145,9.439h-53.303c-1.083,0-1.956,0.877-1.956,1.956v44.561c0,1.029,0.794,1.87,1.807,1.946v0.009
		c0,0,8.883,1.656,26.801,1.656s26.802-1.656,26.802-1.656v-0.009c1.01-0.076,1.806-0.917,1.806-1.946V11.396
		C181.101,10.316,180.226,9.439,179.145,9.439z"/>
	<path fill="#333334" d="M127.114,10.262h-0.398c-1.044,0-1.893,0.847-1.893,1.892v43.098c0,0.996,0.771,1.809,1.748,1.885v0.007
		c0,0,8.591,1.602,25.922,1.602s25.923-1.602,25.923-1.602v-0.007c0.814-0.063,1.481-0.638,1.684-1.402L127.114,10.262z"/>
	<rect x="133.756" y="15.948" fill="#DCDDDE" width="37.535" height="32.263"/>
	<g>
		<path fill="#414042" d="M125.842,27.112h0.356c0.056,0,0.109,0.003,0.16,0.013c0.049,0.011,0.095,0.031,0.135,0.056
			c0.038,0.023,0.071,0.058,0.094,0.101c0.021,0.044,0.034,0.094,0.034,0.158c0,0.067-0.013,0.121-0.036,0.165
			c-0.027,0.042-0.059,0.076-0.098,0.103c-0.039,0.024-0.082,0.042-0.129,0.052c-0.045,0.008-0.091,0.016-0.133,0.016h-0.241v0.539
			h-0.143V27.112z M125.984,27.641h0.241c0.072,0,0.131-0.017,0.174-0.047c0.045-0.033,0.069-0.084,0.069-0.152
			c0-0.068-0.024-0.116-0.069-0.15c-0.043-0.034-0.102-0.047-0.174-0.047h-0.241V27.641z"/>
		<path fill="#414042" d="M127.378,28.346c-0.094,0-0.177-0.014-0.254-0.048c-0.077-0.03-0.142-0.074-0.199-0.13
			c-0.056-0.058-0.098-0.124-0.132-0.202c-0.03-0.077-0.046-0.162-0.046-0.253s0.016-0.175,0.046-0.253
			c0.034-0.078,0.076-0.144,0.132-0.202c0.058-0.054,0.122-0.1,0.199-0.133c0.077-0.028,0.16-0.043,0.254-0.043
			c0.089,0,0.175,0.015,0.252,0.043c0.077,0.033,0.144,0.079,0.201,0.133c0.054,0.058,0.1,0.124,0.13,0.202
			c0.031,0.078,0.046,0.162,0.046,0.253s-0.015,0.176-0.046,0.253c-0.03,0.078-0.076,0.144-0.13,0.202
			c-0.058,0.057-0.124,0.1-0.201,0.13C127.553,28.332,127.467,28.346,127.378,28.346z M127.378,28.215
			c0.068,0,0.134-0.014,0.193-0.04c0.059-0.026,0.107-0.062,0.151-0.108c0.04-0.046,0.073-0.097,0.097-0.161
			c0.024-0.057,0.035-0.125,0.035-0.193c0-0.071-0.011-0.133-0.035-0.195c-0.023-0.062-0.057-0.114-0.097-0.159
			c-0.044-0.045-0.093-0.081-0.151-0.107c-0.06-0.027-0.125-0.041-0.193-0.041c-0.071,0-0.136,0.014-0.194,0.041
			c-0.059,0.026-0.108,0.062-0.149,0.107c-0.042,0.045-0.075,0.097-0.099,0.159c-0.021,0.062-0.034,0.124-0.034,0.195
			c0,0.068,0.013,0.136,0.034,0.193c0.023,0.063,0.057,0.115,0.099,0.161c0.041,0.047,0.091,0.083,0.149,0.108
			C127.242,28.201,127.307,28.215,127.378,28.215z"/>
		<path fill="#414042" d="M128.063,27.112h0.16l0.273,1h0.002l0.295-1h0.162l0.295,1h0.004l0.278-1h0.15l-0.354,1.203h-0.154
			l-0.299-1.022h-0.004l-0.301,1.022h-0.156L128.063,27.112z"/>
		<path fill="#414042" d="M129.844,27.112h0.759v0.132h-0.616v0.375h0.575v0.136h-0.575v0.427h0.646v0.132h-0.788V27.112z"/>
		<path fill="#414042" d="M130.854,27.112h0.307c0.06,0,0.116,0.002,0.174,0.008c0.059,0.005,0.108,0.021,0.152,0.045
			c0.048,0.02,0.084,0.054,0.111,0.098c0.029,0.043,0.044,0.104,0.044,0.178c0,0.089-0.027,0.161-0.079,0.214
			c-0.055,0.054-0.129,0.088-0.222,0.104l0.342,0.554h-0.176l-0.326-0.539h-0.184v0.539h-0.144V27.112z M130.997,27.641h0.125
			c0.042,0,0.083,0,0.124-0.001c0.045-0.004,0.081-0.014,0.118-0.024c0.036-0.013,0.063-0.031,0.09-0.058
			c0.022-0.027,0.032-0.065,0.032-0.116c0-0.042-0.007-0.077-0.024-0.102c-0.018-0.026-0.039-0.048-0.067-0.062
			c-0.028-0.016-0.059-0.024-0.094-0.027c-0.035-0.005-0.067-0.006-0.104-0.006h-0.2V27.641z"/>
	</g>
	<circle fill="#CE181E" cx="126.291" cy="25.051" r="0.879"/>
	<path fill="#414042" d="M131.279,24.281c0.166,0.211,0.271,0.477,0.271,0.77c0,0.29-0.104,0.559-0.271,0.768
		c0.351-0.078,0.614-0.392,0.614-0.768C131.894,24.676,131.63,24.36,131.279,24.281z"/>
	<path fill="#414042" d="M129.729,24.266c0.175,0.212,0.282,0.487,0.282,0.785c0,0.297-0.107,0.571-0.282,0.785
		c0.401-0.036,0.716-0.373,0.716-0.785C130.445,24.638,130.131,24.303,129.729,24.266z"/>
	<path fill="#414042" d="M128.046,24.262c-0.007,0-0.014,0.001-0.021,0.001c0.178,0.215,0.286,0.489,0.286,0.788
		c0,0.297-0.108,0.574-0.286,0.789c0.007,0,0.014,0,0.021,0c0.436,0,0.788-0.353,0.788-0.789
		C128.834,24.615,128.481,24.262,128.046,24.262z"/>
	<g>
		<polygon fill="#414042" points="144.881,54.67 146.6,54.67 146.699,54.067 145.618,54.067 145.735,53.356 146.676,53.356 
			146.774,52.754 145.836,52.754 145.949,52.068 147.03,52.068 147.127,51.48 145.406,51.48 		"/>
		<path fill="#414042" d="M143.911,51.48l-0.776,1.737l-0.376-1.737h-0.604l-0.875,2.693l-0.425-2.693h-0.76l-1.174,2.578
			l0.107-0.92h-1.181v0.588h0.452l-0.021,0.282c0,0-0.154,0.124-0.483,0.121c-0.418-0.008-0.826-0.33-0.791-0.93
			c0.041-0.626,0.698-1.184,1.436-1.189c0.475-0.005,0.703,0.127,0.703,0.127v-0.603c0,0-0.046-0.156-0.665-0.156
			c-1.037,0-2.083,0.825-2.083,1.885c-0.001,0.828,0.557,1.469,1.444,1.426c0.49-0.022,0.771-0.164,0.916-0.275l-0.114,0.256h0.696
			l0.418-0.944h0.799l0.16,0.944h0.403h0.239h0.433l0.561-1.832l0.439,1.832h0.401l0.89-1.987l0.056,1.987h0.617l-0.129-3.19
			H143.911z M140.017,53.138l0.318-0.721l0.123,0.721H140.017z"/>
		<path fill="#414042" d="M152.028,51.49c-0.702-0.18-1.457,0.381-1.681,1.255c-0.227,0.875,0.163,1.733,0.868,1.913
			c0.704,0.183,1.46-0.378,1.684-1.255C153.124,52.529,152.736,51.674,152.028,51.49z M152.32,53.254
			c-0.141,0.545-0.566,0.906-0.95,0.806c-0.387-0.097-0.584-0.62-0.445-1.166c0.142-0.543,0.566-0.903,0.952-0.806
			C152.261,52.188,152.461,52.71,152.32,53.254z"/>
		<polygon fill="#414042" points="154.471,51.48 153.823,52.566 153.357,51.48 152.676,51.48 153.422,53.048 153.226,54.67 
			153.839,54.67 154.023,53.231 155.191,51.48 		"/>
		<path fill="#414042" d="M150.2,52.304c0-0.597-0.381-0.824-0.731-0.824h-1.193l-0.526,3.19h1.398c0.465,0,0.972-0.336,0.972-0.944
			c0-0.611-0.408-0.693-0.408-0.693S150.2,52.904,150.2,52.304z M149.199,52.068c0.216,0,0.341,0.103,0.336,0.308
			c-0.006,0.235-0.124,0.378-0.34,0.378h-0.491l0.115-0.686H149.199z M148.604,53.356h0.504c0.299,0.013,0.392,0.126,0.392,0.355
			c0,0.21-0.107,0.356-0.437,0.356h-0.575L148.604,53.356z"/>
	</g>
	<g>
		<path fill="#00A2BC" d="M168.207,54.958c-0.089,0-0.179-0.034-0.251-0.093c-0.009-0.01-0.905-0.787-1.173-1.01
			c-0.026-0.021-0.052-0.042-0.076-0.058c0.004,0.437-0.03,0.741-0.033,0.761c-0.022,0.211-0.215,0.361-0.425,0.339
			c-0.211-0.025-0.364-0.215-0.338-0.424l0,0c0-0.009,0.064-0.589-0.003-1.267c-0.107-1.139-0.116-1.444,0.348-1.691l0.013-0.008
			c0.339-0.178,0.92-0.142,1.297-0.017c0.261,0.086,0.58,0.193,0.721,0.49c0.056,0.116,0.102,0.313,0.007,0.568
			c-0.133,0.352-0.53,0.622-0.919,0.799c0.341,0.29,1.053,0.904,1.087,0.934c0.158,0.137,0.176,0.381,0.037,0.541
			C168.423,54.911,168.316,54.958,168.207,54.958z M166.621,52.189c-0.012,0.121,0.004,0.38,0.024,0.607
			c0.363-0.091,0.809-0.331,0.91-0.488c-0.068-0.034-0.176-0.07-0.232-0.089c-0.272-0.087-0.614-0.074-0.694-0.031L166.621,52.189z"
			/>
		<path fill="#DC1F40" d="M157.519,54.927c-0.601,0-1.027-0.124-1.316-0.379c-0.28-0.245-0.422-0.602-0.422-1.064
			c0-0.964,1.127-2.296,1.946-2.296c0.377,0,0.589,0.148,0.699,0.271c0.204,0.229,0.186,0.499,0.181,0.551
			c-0.022,0.207-0.215,0.363-0.426,0.336c-0.193-0.021-0.339-0.184-0.342-0.375c-0.021-0.005-0.058-0.013-0.112-0.013
			c-0.267,0-1.176,0.868-1.176,1.527c0,0.311,0.089,0.428,0.157,0.486c0.149,0.13,0.526,0.263,1.468,0.141
			c0.211-0.025,0.404,0.124,0.431,0.333c0.027,0.211-0.121,0.405-0.333,0.431C157.995,54.91,157.745,54.927,157.519,54.927z"/>
		<path fill="#622D91" d="M159.681,54.776c-0.737,0-1.299-0.448-1.394-1.119c-0.053-0.382,0.067-0.798,0.331-1.145
			c0.289-0.382,0.719-0.632,1.18-0.692c0.047-0.006,0.096-0.007,0.145-0.007c0.665,0,1.241,0.58,1.313,1.318
			c0.079,0.835-0.429,1.487-1.261,1.619C159.89,54.772,159.785,54.776,159.681,54.776z M159.942,52.583
			c-0.017,0-0.032,0.001-0.047,0.004c-0.258,0.033-0.501,0.174-0.668,0.394c-0.138,0.182-0.206,0.39-0.179,0.57
			c0.059,0.416,0.463,0.458,0.632,0.458c0.063,0,0.126-0.003,0.192-0.016c0.427-0.069,0.656-0.362,0.615-0.787
			C160.452,52.819,160.176,52.583,159.942,52.583z"/>
		<path fill="#F9D308" d="M164.286,54.757c-0.65,0-1.145-0.397-1.324-1.065c-0.103-0.371-0.016-0.783,0.234-1.125
			c0.295-0.398,0.766-0.64,1.292-0.659c0.022,0,0.043,0,0.063,0c0.753,0,1.344,0.499,1.405,1.188
			c0.071,0.797-0.415,1.414-1.27,1.613C164.551,54.743,164.415,54.757,164.286,54.757z M164.552,52.674c-0.01,0-0.022,0-0.032,0.001
			c-0.291,0.012-0.548,0.138-0.704,0.349c-0.109,0.151-0.15,0.325-0.112,0.469c0.089,0.329,0.286,0.495,0.583,0.495
			c0.07,0,0.147-0.009,0.229-0.029c0.272-0.061,0.728-0.25,0.679-0.796C165.158,52.779,164.773,52.674,164.552,52.674z"/>
		<path fill="#8DC13E" d="M161.772,54.898c-0.071,0-0.143-0.015-0.216-0.055c-0.256-0.143-0.256-0.402-0.256-0.735
			c0-0.228-0.036-0.691-0.067-1.099c-0.014-0.176-0.027-0.343-0.037-0.488c-0.028-0.398-0.158-0.672-0.163-0.672
			c-0.096-0.189-0.021-0.42,0.166-0.517c0.188-0.099,0.421-0.023,0.519,0.166c0.021,0.04,0.208,0.412,0.245,0.97
			c0.01,0.145,0.022,0.309,0.035,0.48c0.029,0.365,0.059,0.736,0.068,1.002c0.352-0.145,0.766-0.191,0.903-0.191
			c0.213,0,0.385,0.171,0.385,0.384c0,0.211-0.172,0.386-0.385,0.386c-0.097,0-0.52,0.057-0.731,0.192
			C162.115,54.796,161.95,54.898,161.772,54.898z"/>
	</g>
	<path opacity="0.3" fill="#FFFFFF" d="M180.163,55.252V12.154c0-1.045-0.848-1.892-1.891-1.892h-51.158L180.1,55.734
		C180.141,55.581,180.163,55.419,180.163,55.252z"/>
	<g>
		<circle cx="167.536" cy="98.739" r="0.491"/>
		<circle cx="171.271" cy="98.22" r="0.49"/>
		<circle cx="175.056" cy="97.632" r="0.491"/>
		<circle cx="178.842" cy="96.901" r="0.491"/>
		<circle cx="169.403" cy="100.328" r="0.49"/>
		<path d="M173.665,99.785c0,0.271-0.222,0.491-0.489,0.491c-0.272,0-0.491-0.22-0.491-0.491c0-0.27,0.219-0.49,0.491-0.49
			C173.443,99.295,173.665,99.516,173.665,99.785z"/>
		<circle cx="176.944" cy="99.146" r="0.49"/>
		<path d="M169.894,96.6c0,0.269-0.22,0.489-0.491,0.489c-0.27,0-0.489-0.221-0.489-0.489c0-0.273,0.22-0.492,0.489-0.492
			C169.674,96.107,169.894,96.326,169.894,96.6z"/>
		<path d="M173.665,96.031c0,0.274-0.222,0.492-0.489,0.492c-0.272,0-0.491-0.218-0.491-0.492c0-0.269,0.219-0.49,0.491-0.49
			C173.443,95.541,173.665,95.763,173.665,96.031z"/>
		<circle cx="176.944" cy="95.437" r="0.49"/>
		<path d="M181.214,98.371c0,0.268-0.22,0.493-0.49,0.493c-0.272,0-0.49-0.226-0.49-0.493c0-0.27,0.218-0.491,0.49-0.491
			C180.994,97.88,181.214,98.102,181.214,98.371z"/>
		<circle cx="167.536" cy="102.473" r="0.491"/>
		<path d="M171.761,101.983c0,0.271-0.219,0.489-0.49,0.489c-0.272,0-0.49-0.219-0.49-0.489c0-0.273,0.218-0.493,0.49-0.493
			C171.542,101.49,171.761,101.71,171.761,101.983z"/>
		<circle cx="175.056" cy="101.34" r="0.491"/>
		<path d="M179.333,100.646c0,0.272-0.222,0.492-0.49,0.492c-0.271,0-0.491-0.22-0.491-0.492c0-0.269,0.22-0.489,0.491-0.489
			C179.111,100.156,179.333,100.377,179.333,100.646z"/>
		<path d="M169.894,104.104c0,0.271-0.22,0.488-0.491,0.488c-0.27,0-0.489-0.218-0.489-0.488c0-0.274,0.22-0.493,0.489-0.493
			C169.674,103.61,169.894,103.829,169.894,104.104z"/>
		<circle cx="173.137" cy="103.518" r="0.49"/>
		<circle cx="176.944" cy="102.906" r="0.49"/>
		<circle cx="180.724" cy="102.112" r="0.49"/>
		<circle cx="167.536" cy="106.206" r="0.491"/>
		<circle cx="171.271" cy="105.716" r="0.49"/>
		<circle cx="175.056" cy="105.157" r="0.491"/>
		<circle cx="178.842" cy="104.398" r="0.491"/>
		<circle cx="169.403" cy="107.877" r="0.49"/>
		<circle cx="173.137" cy="107.342" r="0.49"/>
		<circle cx="176.944" cy="106.687" r="0.49"/>
		<path d="M181.214,105.896c0,0.271-0.22,0.492-0.49,0.492c-0.272,0-0.49-0.221-0.49-0.492c0-0.268,0.218-0.487,0.49-0.487
			C180.994,105.408,181.214,105.628,181.214,105.896z"/>
		<circle cx="171.271" cy="109.503" r="0.49"/>
		<path d="M175.547,108.907c0,0.27-0.221,0.489-0.491,0.489c-0.271,0-0.49-0.22-0.49-0.489c0-0.273,0.219-0.491,0.49-0.491
			C175.326,108.416,175.547,108.634,175.547,108.907z"/>
		<circle cx="178.842" cy="108.162" r="0.491"/>
	</g>
</g>
<g>
	<path fill="#F9D308" d="M147.561,3.343c0-1.928-1.563-3.493-3.496-3.493H70.438c-1.929,0-3.493,1.565-3.493,3.493V123.6l0,0l0,0
		c0,3.15,1.609,5.926,4.05,7.546h0c0,0,4.527,4.39,36.78,4.39c20.301,0,29.31-1.857,33.199-3.232
		c3.79-1.079,6.564-4.565,6.564-8.703l0,0h0.022V3.343z"/>
	<path opacity="0.15" fill="#FFFFFF" d="M134.654-0.15H79.849v115.259l0,0l0,0c0,2.138,1.094,4.025,2.753,5.128v0.001
		c0,0,3.079,1.639,25.006,1.639c13.799,0,19.924,0.083,22.57-0.854c2.574-0.733,4.462-3.104,4.462-5.913v-1.348h0.014V-0.15z"/>
	<path fill="#333334" d="M126.125,90.955c0,2.755-2.235,4.989-4.994,4.989c-2.757,0-4.992-2.234-4.992-4.989
		c0-2.764,2.235-4.995,4.992-4.995C123.89,85.96,126.125,88.191,126.125,90.955z"/>
	<path fill="#333334" d="M140.883,86.4c0,2.76-2.233,4.995-4.991,4.995c-2.759,0-4.994-2.235-4.994-4.995
		c0-2.754,2.235-4.989,4.994-4.989C138.649,81.411,140.883,83.646,140.883,86.4z"/>
	<path fill="#333334" d="M91.897,84.996h-5.104v-5.104c0-0.56-0.455-1.015-1.016-1.015h-5.029c-0.561,0-1.017,0.455-1.017,1.015
		v5.104h-5.104c-0.562,0-1.015,0.456-1.015,1.016v5.031c0,0.561,0.453,1.016,1.015,1.016h5.104v5.104
		c0,0.562,0.456,1.018,1.017,1.018h5.029c0.562,0,1.016-0.456,1.016-1.018v-5.104h5.104c0.562,0,1.016-0.455,1.016-1.016v-5.031
		C92.914,85.452,92.459,84.996,91.897,84.996z"/>
	<path d="M103.167,110.527h-4.784c-0.659,0-1.195,0.535-1.195,1.195c0,0.658,0.536,1.195,1.195,1.195h4.784
		c0.66,0,1.196-0.537,1.196-1.195C104.364,111.062,103.828,110.527,103.167,110.527z"/>
	<path d="M115.25,110.527h-4.783c-0.661,0-1.196,0.535-1.196,1.195c0,0.658,0.535,1.195,1.196,1.195h4.783
		c0.66,0,1.196-0.537,1.196-1.195C116.446,111.062,115.91,110.527,115.25,110.527z"/>
	<circle fill="#414042" cx="83.28" cy="88.527" r="1.947"/>
	<path fill="#414042" d="M85.074,93.728h-0.001c0.013-0.037,0.021-0.072,0.021-0.114c0-0.186-0.149-0.334-0.333-0.334h-2.958
		c-0.184,0-0.333,0.148-0.333,0.334c0,0.045,0.008,0.087,0.025,0.124l0,0v0.001c0.008,0.024,0.018,0.043,0.032,0.062l1.448,2.716
		c0.05,0.119,0.169,0.202,0.308,0.202c0.128,0,0.242-0.075,0.295-0.183l0,0l1.454-2.729c0.016-0.024,0.031-0.048,0.041-0.074
		L85.074,93.728z"/>
	<path fill="#414042" d="M81.488,83.328l0.003,0.002c-0.014,0.032-0.022,0.072-0.022,0.111c0,0.184,0.149,0.333,0.333,0.333h2.958
		c0.184,0,0.333-0.149,0.333-0.333c0-0.043-0.008-0.087-0.024-0.127l0,0h-0.001c-0.007-0.02-0.019-0.04-0.032-0.059l-1.447-2.716
		c-0.052-0.121-0.17-0.207-0.307-0.207c-0.131,0-0.242,0.076-0.297,0.186l0,0l-1.454,2.731c-0.016,0.021-0.031,0.047-0.04,0.071
		L81.488,83.328z"/>
	<path fill="#414042" d="M88.48,86.734L88.48,86.734c-0.036-0.012-0.074-0.02-0.114-0.02c-0.183,0-0.333,0.148-0.333,0.334v2.958
		c0,0.183,0.149,0.332,0.333,0.332c0.045,0,0.087-0.009,0.125-0.024l0,0h0.002c0.02-0.009,0.04-0.018,0.059-0.031l2.716-1.449
		c0.119-0.05,0.204-0.169,0.204-0.307c0-0.132-0.075-0.241-0.185-0.295l0,0l-2.73-1.457c-0.023-0.016-0.047-0.027-0.073-0.039
		L88.48,86.734z"/>
	<path fill="#414042" d="M78.081,90.319l0.002-0.001c0.035,0.012,0.073,0.021,0.112,0.021c0.183,0,0.333-0.149,0.333-0.332v-2.958
		c0-0.186-0.15-0.334-0.333-0.334c-0.044,0-0.087,0.008-0.126,0.023v-0.001l-0.001,0.001c-0.021,0.01-0.041,0.021-0.059,0.033
		l-2.716,1.449c-0.121,0.05-0.205,0.168-0.205,0.307c0,0.13,0.075,0.24,0.184,0.295v0.003l2.731,1.451
		c0.022,0.02,0.045,0.03,0.073,0.04L78.081,90.319z"/>
	<g>
		<path fill="#414042" d="M120.029,93.435h-1.219v-4.592h1.154c0.73,0,1.273,0.359,1.273,1.212c0,0.373-0.172,0.781-0.538,0.951
			c0.387,0.139,0.618,0.546,0.618,1.044C121.318,92.968,120.793,93.435,120.029,93.435z M119.984,89.464h-0.537v1.247h0.523
			c0.342,0,0.611-0.197,0.611-0.638C120.582,89.623,120.331,89.464,119.984,89.464z M119.958,91.33h-0.511v1.481h0.577
			c0.388,0,0.636-0.213,0.636-0.762C120.66,91.536,120.358,91.33,119.958,91.33z"/>
	</g>
	<g>
		<path fill="#414042" d="M135.78,88.922l-0.269-1.215h-0.998l-0.263,1.215h-0.681l1.128-4.595h0.663l1.12,4.595H135.78z
			 M135.207,86.323c-0.063-0.302-0.162-0.834-0.196-1.005c-0.03,0.171-0.129,0.696-0.195,1.005l-0.171,0.774h0.735L135.207,86.323z"
			/>
	</g>
	<path d="M140.081,4.79H74.244c-1.333,0-2.415,1.083-2.415,2.416v55.038c0,1.27,0.984,2.31,2.23,2.405v0.006
		c0,0,10.972,2.05,33.103,2.05c22.131,0,33.103-2.05,33.103-2.05v-0.006c1.248-0.096,2.232-1.135,2.232-2.405V7.206
		C142.497,5.872,141.413,4.79,140.081,4.79z"/>
	<path fill="#333334" d="M75.816,5.804h-0.492c-1.29,0-2.336,1.046-2.336,2.338v53.23c0,1.23,0.951,2.235,2.157,2.327v0.009
		c0,0,10.613,1.982,32.017,1.982c21.405,0,32.018-1.982,32.018-1.982V63.7c1.002-0.076,1.829-0.788,2.076-1.728L75.816,5.804z"/>
	<rect x="84.02" y="12.828" fill="#DCDDDE" width="46.357" height="39.848"/>
	<g>
		<path fill="#414042" d="M74.244,26.616h0.441c0.07,0,0.135,0.005,0.198,0.019c0.062,0.013,0.117,0.037,0.166,0.067
			c0.048,0.032,0.086,0.072,0.116,0.126c0.029,0.053,0.042,0.115,0.042,0.194c0,0.082-0.015,0.15-0.045,0.201
			c-0.031,0.054-0.072,0.098-0.119,0.127c-0.048,0.032-0.102,0.055-0.16,0.064c-0.056,0.012-0.113,0.019-0.164,0.019h-0.298v0.669
			h-0.178V26.616z M74.421,27.271h0.298c0.087,0,0.159-0.021,0.216-0.06c0.056-0.042,0.083-0.103,0.083-0.188
			c0-0.082-0.027-0.145-0.083-0.186c-0.057-0.04-0.128-0.058-0.216-0.058h-0.298V27.271z"/>
		<path fill="#414042" d="M76.141,28.142c-0.113,0-0.217-0.02-0.312-0.06c-0.096-0.039-0.177-0.092-0.246-0.162
			c-0.069-0.069-0.125-0.152-0.162-0.249c-0.039-0.095-0.059-0.2-0.059-0.311c0-0.115,0.02-0.217,0.059-0.314
			c0.038-0.095,0.093-0.18,0.162-0.249c0.069-0.068,0.15-0.125,0.246-0.164c0.094-0.039,0.198-0.058,0.312-0.058
			s0.217,0.019,0.312,0.058c0.094,0.039,0.177,0.096,0.247,0.164c0.069,0.069,0.123,0.154,0.162,0.249
			c0.037,0.097,0.058,0.199,0.058,0.314c0,0.111-0.021,0.216-0.058,0.311c-0.039,0.097-0.093,0.18-0.162,0.249
			c-0.069,0.069-0.153,0.123-0.247,0.162C76.358,28.122,76.254,28.142,76.141,28.142z M76.141,27.978
			c0.087,0,0.167-0.013,0.238-0.046c0.074-0.033,0.135-0.079,0.187-0.133c0.052-0.058,0.093-0.121,0.122-0.196
			c0.029-0.076,0.042-0.156,0.042-0.24c0-0.086-0.013-0.167-0.042-0.242c-0.029-0.077-0.07-0.141-0.122-0.2
			c-0.052-0.054-0.113-0.099-0.187-0.13c-0.071-0.033-0.15-0.048-0.238-0.048c-0.088,0-0.167,0.015-0.238,0.048
			c-0.073,0.031-0.134,0.076-0.186,0.13c-0.052,0.059-0.093,0.123-0.122,0.2c-0.028,0.074-0.042,0.156-0.042,0.242
			c0,0.084,0.014,0.165,0.042,0.24s0.07,0.138,0.122,0.196c0.052,0.055,0.113,0.1,0.186,0.133
			C75.974,27.964,76.053,27.978,76.141,27.978z"/>
		<path fill="#414042" d="M76.987,26.616h0.197l0.338,1.235h0.005l0.365-1.235h0.199l0.364,1.235h0.003l0.344-1.235h0.186
			l-0.437,1.487h-0.193l-0.368-1.261h-0.004l-0.369,1.261h-0.193L76.987,26.616z"/>
		<path fill="#414042" d="M79.186,26.616h0.936v0.164h-0.759v0.466h0.709v0.163h-0.709v0.531h0.798v0.163h-0.975V26.616z"/>
		<path fill="#414042" d="M80.433,26.616h0.381c0.072,0,0.143,0.003,0.213,0.011c0.07,0.007,0.135,0.026,0.191,0.055
			c0.057,0.029,0.102,0.068,0.136,0.124c0.036,0.052,0.053,0.126,0.053,0.218c0,0.11-0.033,0.199-0.099,0.266
			c-0.066,0.066-0.158,0.112-0.273,0.128l0.423,0.685h-0.218l-0.403-0.669H80.61v0.669h-0.178V26.616z M80.61,27.271h0.157
			c0.05,0,0.1-0.001,0.153-0.004c0.053-0.001,0.101-0.014,0.144-0.027c0.045-0.017,0.082-0.04,0.11-0.073
			c0.03-0.034,0.044-0.081,0.044-0.144c0-0.051-0.011-0.095-0.032-0.128c-0.021-0.032-0.048-0.057-0.083-0.075
			c-0.035-0.017-0.073-0.029-0.116-0.033c-0.042-0.006-0.086-0.008-0.13-0.008H80.61V27.271z"/>
	</g>
	<circle fill="#CE181E" cx="74.798" cy="24.072" r="1.084"/>
	<path fill="#414042" d="M80.96,23.124c0.207,0.258,0.333,0.589,0.333,0.948s-0.125,0.688-0.333,0.948
		c0.433-0.098,0.757-0.484,0.757-0.948S81.393,23.22,80.96,23.124z"/>
	<path fill="#414042" d="M79.047,23.103c0.216,0.264,0.347,0.602,0.347,0.97c0,0.367-0.13,0.705-0.347,0.969
		c0.494-0.047,0.884-0.463,0.884-0.969C79.931,23.562,79.541,23.148,79.047,23.103z"/>
	<path fill="#414042" d="M76.966,23.099c-0.008,0-0.017,0-0.024,0c0.218,0.263,0.35,0.602,0.35,0.974c0,0.37-0.132,0.708-0.35,0.972
		c0.007,0.001,0.016,0.001,0.024,0.001c0.537,0,0.974-0.435,0.974-0.973S77.503,23.099,76.966,23.099z"/>
	<g>
		<polygon fill="#414042" points="97.758,60.654 99.882,60.654 100.007,59.907 98.669,59.907 98.815,59.033 99.977,59.033 
			100.098,58.287 98.937,58.287 99.079,57.443 100.414,57.443 100.531,56.713 98.409,56.713 		"/>
		<path fill="#414042" d="M96.562,56.713l-0.96,2.144l-0.463-2.144h-0.746l-1.082,3.328l-0.523-3.328h-0.937l-1.455,3.185
			l0.134-1.138h-1.456v0.727h0.557l-0.024,0.35c0,0-0.191,0.155-0.597,0.146c-0.518-0.008-1.021-0.403-0.976-1.146
			c0.047-0.775,0.86-1.463,1.77-1.472c0.585-0.007,0.869,0.162,0.869,0.162V56.78c0,0-0.057-0.191-0.822-0.191
			c-1.278,0-2.571,1.016-2.572,2.324c0,1.024,0.688,1.815,1.785,1.766c0.604-0.028,0.949-0.205,1.131-0.34l-0.144,0.314h0.861
			l0.517-1.167h0.988l0.197,1.167h0.498h0.295h0.535l0.692-2.263l0.543,2.263h0.496l1.099-2.453l0.067,2.453h0.765l-0.162-3.94
			H96.562z M91.751,58.76l0.394-0.89l0.15,0.89H91.751z"/>
		<path fill="#414042" d="M106.589,56.729c-0.869-0.224-1.801,0.468-2.079,1.55c-0.278,1.08,0.203,2.136,1.074,2.361
			c0.87,0.225,1.801-0.471,2.079-1.548C107.941,58.01,107.461,56.951,106.589,56.729z M106.948,58.906
			c-0.173,0.674-0.698,1.118-1.174,0.994c-0.476-0.12-0.722-0.766-0.549-1.436c0.174-0.673,0.699-1.118,1.175-0.995
			C106.875,57.591,107.121,58.233,106.948,58.906z"/>
		<polygon fill="#414042" points="109.605,56.713 108.803,58.053 108.229,56.713 107.387,56.713 108.31,58.652 108.066,60.654 
			108.821,60.654 109.05,58.875 110.495,56.713 		"/>
		<path fill="#414042" d="M104.33,57.734c0-0.739-0.471-1.021-0.906-1.021h-1.472l-0.651,3.94h1.729
			c0.574,0,1.197-0.414,1.197-1.167c0-0.751-0.502-0.855-0.502-0.855S104.33,58.473,104.33,57.734z M103.095,57.443
			c0.265,0,0.419,0.125,0.413,0.379c-0.007,0.289-0.152,0.464-0.42,0.464h-0.605l0.14-0.844H103.095z M102.358,59.033h0.621
			c0.369,0.015,0.483,0.155,0.483,0.435c0,0.262-0.132,0.439-0.536,0.439h-0.714L102.358,59.033z"/>
	</g>
	<g>
		<path fill="#00A2BC" d="M126.569,61.007c-0.111,0-0.221-0.038-0.311-0.115c-0.012-0.009-1.119-0.969-1.449-1.244
			c-0.032-0.028-0.062-0.051-0.093-0.073c0.005,0.539-0.039,0.917-0.042,0.939c-0.027,0.263-0.263,0.449-0.522,0.421
			c-0.263-0.03-0.449-0.266-0.419-0.526l0,0c0-0.006,0.08-0.729-0.002-1.563c-0.135-1.409-0.146-1.787,0.428-2.089l0.017-0.009
			c0.418-0.22,1.14-0.173,1.604-0.02c0.317,0.104,0.714,0.237,0.89,0.604c0.067,0.143,0.124,0.383,0.005,0.701
			c-0.162,0.434-0.655,0.767-1.135,0.987c0.422,0.358,1.3,1.118,1.342,1.15c0.198,0.175,0.221,0.474,0.048,0.672
			C126.836,60.951,126.703,61.007,126.569,61.007z M124.609,57.594c-0.014,0.147,0.008,0.466,0.029,0.748
			c0.45-0.116,1.003-0.409,1.128-0.604c-0.085-0.041-0.221-0.086-0.287-0.108c-0.34-0.115-0.761-0.095-0.861-0.04L124.609,57.594z"
			/>
		<path fill="#DC1F40" d="M113.366,60.973c-0.74,0-1.268-0.156-1.625-0.472c-0.345-0.301-0.519-0.743-0.519-1.309
			c0-1.194,1.39-2.841,2.401-2.841c0.467,0,0.729,0.182,0.864,0.335c0.252,0.284,0.23,0.616,0.223,0.679
			c-0.029,0.26-0.264,0.449-0.522,0.42c-0.242-0.028-0.421-0.23-0.423-0.467c-0.026-0.008-0.073-0.015-0.142-0.015
			c-0.327,0-1.453,1.07-1.453,1.89c0,0.382,0.113,0.523,0.198,0.597c0.183,0.163,0.646,0.324,1.812,0.176
			c0.258-0.036,0.496,0.149,0.529,0.41c0.034,0.259-0.15,0.497-0.409,0.53C113.958,60.95,113.646,60.973,113.366,60.973z"/>
		<path fill="#622D91" d="M116.039,60.788c-0.912,0-1.604-0.555-1.72-1.384c-0.066-0.472,0.079-0.986,0.406-1.413
			c0.359-0.47,0.891-0.781,1.459-0.852c0.057-0.01,0.116-0.014,0.175-0.014c0.824,0,1.536,0.715,1.624,1.628
			c0.099,1.031-0.526,1.834-1.557,2.002C116.297,60.778,116.167,60.788,116.039,60.788z M116.359,58.078
			c-0.02,0-0.036,0-0.054,0.002c-0.319,0.04-0.621,0.217-0.826,0.486c-0.171,0.225-0.251,0.483-0.221,0.705
			c0.071,0.512,0.569,0.568,0.78,0.568c0.077,0,0.154-0.007,0.235-0.02c0.529-0.087,0.812-0.452,0.762-0.974
			C116.991,58.372,116.649,58.078,116.359,58.078z"/>
		<path fill="#F9D308" d="M121.727,60.764c-0.803,0-1.414-0.493-1.638-1.315c-0.124-0.462-0.019-0.968,0.292-1.392
			c0.364-0.491,0.945-0.79,1.598-0.816c0.026,0,0.052,0,0.079,0c0.927,0,1.658,0.619,1.732,1.472c0.089,0.984-0.51,1.745-1.566,1.99
			C122.053,60.742,121.887,60.764,121.727,60.764z M122.058,58.189c-0.014,0-0.028,0-0.042,0c-0.361,0.016-0.68,0.171-0.869,0.43
			c-0.137,0.188-0.188,0.405-0.142,0.582c0.111,0.405,0.353,0.613,0.722,0.613c0.088,0,0.183-0.014,0.282-0.037
			c0.337-0.077,0.896-0.31,0.837-0.981C122.803,58.319,122.329,58.189,122.058,58.189z"/>
		<path fill="#8DC13E" d="M118.62,60.938c-0.086,0-0.175-0.021-0.266-0.071c-0.315-0.173-0.315-0.499-0.315-0.906
			c0-0.281-0.044-0.854-0.082-1.358c-0.019-0.214-0.033-0.422-0.047-0.601c-0.033-0.497-0.197-0.829-0.201-0.832
			c-0.118-0.233-0.028-0.519,0.207-0.64c0.232-0.12,0.518-0.026,0.638,0.206c0.026,0.049,0.257,0.509,0.303,1.2
			c0.013,0.174,0.028,0.381,0.046,0.592c0.034,0.45,0.069,0.91,0.083,1.235c0.437-0.175,0.944-0.236,1.116-0.236
			c0.263,0,0.475,0.213,0.475,0.474c0,0.262-0.212,0.477-0.475,0.477c-0.122,0-0.641,0.073-0.905,0.236
			C119.047,60.812,118.841,60.938,118.62,60.938z"/>
	</g>
	<path opacity="0.3" fill="#FFFFFF" d="M141.335,61.373V8.142c0-1.292-1.045-2.338-2.335-2.338H75.816l65.44,56.168
		C141.308,61.78,141.335,61.579,141.335,61.373z"/>
	<g>
		<circle cx="125.741" cy="115.084" r="0.605"/>
		<circle cx="130.352" cy="114.441" r="0.606"/>
		<path d="M135.635,113.713c0,0.337-0.272,0.607-0.604,0.607c-0.336,0-0.607-0.271-0.607-0.607c0-0.332,0.271-0.604,0.607-0.604
			C135.362,113.109,135.635,113.381,135.635,113.713z"/>
		<circle cx="139.704" cy="112.814" r="0.606"/>
		<circle cx="128.047" cy="117.049" r="0.604"/>
		<circle cx="132.706" cy="116.377" r="0.605"/>
		<circle cx="137.362" cy="115.588" r="0.606"/>
		<circle cx="128.047" cy="112.439" r="0.604"/>
		<circle cx="132.706" cy="111.741" r="0.605"/>
		<path d="M137.969,111.004c0,0.336-0.273,0.608-0.607,0.608c-0.335,0-0.605-0.272-0.605-0.608c0-0.332,0.271-0.603,0.605-0.603
			C137.695,110.401,137.969,110.672,137.969,111.004z"/>
		<circle cx="142.028" cy="114.629" r="0.605"/>
		<circle cx="125.741" cy="119.695" r="0.605"/>
		<circle cx="130.352" cy="119.09" r="0.606"/>
		<path d="M135.635,118.298c0,0.335-0.272,0.607-0.604,0.607c-0.336,0-0.607-0.272-0.607-0.607c0-0.331,0.271-0.604,0.607-0.604
			C135.362,117.693,135.635,117.967,135.635,118.298z"/>
		<path d="M140.311,117.438c0,0.335-0.273,0.608-0.606,0.608c-0.335,0-0.606-0.273-0.606-0.608c0-0.332,0.271-0.604,0.606-0.604
			C140.037,116.834,140.311,117.106,140.311,117.438z"/>
		<path d="M128.651,121.708c0,0.333-0.269,0.603-0.604,0.603c-0.336,0-0.605-0.27-0.605-0.603c0-0.336,0.27-0.605,0.605-0.605
			C128.383,121.103,128.651,121.372,128.651,121.708z"/>
		<circle cx="132.658" cy="120.988" r="0.605"/>
		<circle cx="137.362" cy="120.229" r="0.606"/>
		<circle cx="142.028" cy="119.25" r="0.605"/>
		<circle cx="125.741" cy="124.307" r="0.605"/>
		<circle cx="130.352" cy="123.701" r="0.606"/>
		<circle cx="135.029" cy="123.013" r="0.606"/>
		<circle cx="139.704" cy="122.072" r="0.606"/>
		<circle cx="128.047" cy="126.372" r="0.604"/>
		<circle cx="132.658" cy="125.711" r="0.605"/>
		<circle cx="137.362" cy="124.901" r="0.606"/>
		<circle cx="142.028" cy="123.927" r="0.605"/>
		<circle cx="130.352" cy="128.376" r="0.606"/>
		<circle cx="135.029" cy="127.641" r="0.606"/>
		<circle cx="139.704" cy="126.722" r="0.606"/>
	</g>
</g>
</svg>
