<?xml version="1.0" encoding="utf-8"?>
<!-- Generator: Adobe Illustrator 15.1.0, SVG Export Plug-In . SVG Version: 6.00 Build 0)  -->
<!DOCTYPE svg PUBLIC "-//W3C//DTD SVG 1.0//EN" "http://www.w3.org/TR/2001/REC-SVG-20010904/DTD/svg10.dtd">
<svg version="1.0" id="Layer_1" xmlns="http://www.w3.org/2000/svg" xmlns:xlink="http://www.w3.org/1999/xlink" x="0px" y="0px"
	 width="663.766px" height="363.927px" viewBox="0 0 663.766 363.927" enable-background="new 0 0 663.766 363.927"
	 xml:space="preserve">
<g>
	<polygon fill="#414042" points="303.908,69.678 284.01,61.995 284.01,-0.333 303.908,-0.333 	"/>
	<g>
		<path fill="#8DC13E" d="M308.566,162.022c-0.055,0.001-0.109,0.008-0.164,0.008c-0.002,0-0.004,0-0.004,0h-13.943v-14.833h13.461
			c-0.049-2.472-0.074-5.058-0.074-7.769V69.783c0-2.676-1.748-4.941-4.164-5.722l-0.002-0.003l-19.666-7.095v22.924h-27.543v39.644
			h27.543v242.077c20.654-9.128,36.094-63.4,36.094-101.859C320.104,207.145,311.199,199.499,308.566,162.022z"/>
		<path fill="#78A635" d="M294.455,162.031h13.943c0,0,0.002,0,0.004,0c0.055,0,0.109-0.007,0.164-0.008
			c-0.314-4.474-0.539-9.374-0.65-14.825h-13.461V162.031z"/>
	</g>
	<rect x="284.01" y="14.565" fill="#333334" width="19.898" height="3.265"/>
	<rect x="284.01" y="37.266" fill="#333334" width="19.898" height="3.342"/>
	<rect x="284.01" y="31.602" fill="#333334" width="19.898" height="3.343"/>
	<rect x="284.01" y="25.937" fill="#333334" width="19.898" height="3.343"/>
	<rect x="284.01" y="20.272" fill="#333334" width="19.898" height="3.343"/>
	<linearGradient id="SVGID_1_" gradientUnits="userSpaceOnUse" x1="247.335" y1="226.3813" x2="247.335" y2="250.5114">
		<stop  offset="0" style="stop-color:#333334"/>
		<stop  offset="0.1142" style="stop-color:#5C5D60"/>
		<stop  offset="0.2255" style="stop-color:#77787B"/>
		<stop  offset="1" style="stop-color:#333334"/>
	</linearGradient>
	<path fill="url(#SVGID_1_)" d="M244.211,229.841c-2.108,0-3.817,1.708-3.817,3.816v18.83c0,2.108,1.709,3.818,3.817,3.818h10.065
		v-26.465H244.211z"/>
	<linearGradient id="SVGID_2_" gradientUnits="userSpaceOnUse" x1="247.335" y1="217.2144" x2="247.335" y2="235.5293">
		<stop  offset="0" style="stop-color:#333334"/>
		<stop  offset="0.375" style="stop-color:#414042"/>
		<stop  offset="1" style="stop-color:#333334"/>
	</linearGradient>
	<path fill="url(#SVGID_2_)" d="M244.211,217.479c-2.108,0-3.817,1.708-3.817,3.816v19.309c0,2.107,1.709,3.817,3.817,3.817h10.065
		v-26.942H244.211z"/>
	<g>
		<path fill="#8DC13E" d="M254.276,121.806V77.844h27.642V1.138c-1.053-0.91-2.424-1.463-3.926-1.463h-25.451
			c-3.322,0-6.016,2.693-6.016,6.016v351.237c0,3.322,2.693,6.017,6.016,6.017h25.451c1.248,0,2.479-0.181,3.695-0.51V121.806
			H254.276z"/>
		<path fill="#8DC13E" d="M256.467,119.53V79.886h27.543V56.962l-0.002,0V5.69c0-1.821-0.811-3.449-2.09-4.552v76.706h-27.642
			v43.962h27.411v240.628c0.781-0.212,1.555-0.488,2.322-0.827V119.53H256.467z"/>
		<linearGradient id="SVGID_3_" gradientUnits="userSpaceOnUse" x1="269.1426" y1="118.2964" x2="269.1426" y2="123.0106">
			<stop  offset="0" style="stop-color:#78A635"/>
			<stop  offset="0.0038" style="stop-color:#79A736;stop-opacity:0.9937"/>
			<stop  offset="0.261" style="stop-color:#B9CE95;stop-opacity:0.5695"/>
			<stop  offset="0.4362" style="stop-color:#E6EDDB;stop-opacity:0.2805"/>
			<stop  offset="0.5153" style="stop-color:#FFFFFF;stop-opacity:0.15"/>
			<stop  offset="1" style="stop-color:#78A635"/>
		</linearGradient>
		<path fill="url(#SVGID_3_)" d="M256.467,119.53V79.886h27.543V56.962l-0.002,0V5.69c0-1.821-0.811-3.449-2.09-4.552v76.706
			h-27.642v43.962h27.411v240.628c0.781-0.212,1.555-0.488,2.322-0.827V119.53H256.467z"/>
	</g>
	<path opacity="0.15" fill="#FFFFFF" d="M302.969,65.169c-2.221-0.702-15.053-5.545-15.053-5.545
		c-1.08-0.395-2.275,0.16-2.672,1.239c-0.396,1.08,0.158,2.276,1.238,2.672c0,0,13.639,3.78,16.568,4.397
		C305.982,68.549,305.705,66.034,302.969,65.169z"/>
	<rect x="264.882" y="-0.326" fill="#78A635" width="2.167" height="363.27"/>
	<path opacity="0.15" fill="#FFFFFF" d="M278.756,1.138h-26.994c-1.15,0-2.082,0.933-2.082,2.083c0,1.15,0.932,2.082,2.082,2.082
		h26.994c1.15,0,2.082-0.932,2.082-2.082C280.838,2.07,279.906,1.138,278.756,1.138z"/>
	<rect x="264.882" y="91.764" fill="#414042" width="8.329" height="27.766"/>
	<rect x="264.882" y="79.886" fill="#333334" width="8.329" height="11.878"/>
	<rect x="264.882" y="107.112" fill="#333334" width="8.329" height="0.925"/>
	<rect x="264.882" y="103.256" fill="#333334" width="8.329" height="0.925"/>
	<path opacity="0.15" fill="#FFFFFF" d="M274.564,63.767h-17.199c-1.15,0-2.082,0.932-2.082,2.083c0,1.149,0.932,2.083,2.082,2.083
		h17.199c1.15,0,2.084-0.933,2.084-2.083C276.648,64.699,275.715,63.767,274.564,63.767z"/>
	<path opacity="0.15" fill="#FFFFFF" d="M274.564,52.603h-17.199c-1.15,0-2.082,0.932-2.082,2.082c0,1.15,0.932,2.083,2.082,2.083
		h17.199c1.15,0,2.084-0.933,2.084-2.083C276.648,53.535,275.715,52.603,274.564,52.603z"/>
	<path opacity="0.15" fill="#FFFFFF" d="M274.564,41.438h-17.199c-1.15,0-2.082,0.932-2.082,2.083c0,1.15,0.932,2.083,2.082,2.083
		h17.199c1.15,0,2.084-0.933,2.084-2.083C276.648,42.371,275.715,41.438,274.564,41.438z"/>
	<path opacity="0.15" fill="#FFFFFF" d="M274.564,30.274h-17.199c-1.15,0-2.082,0.932-2.082,2.083s0.932,2.083,2.082,2.083h17.199
		c1.15,0,2.084-0.932,2.084-2.083S275.715,30.274,274.564,30.274z"/>
</g>
<g>
	<linearGradient id="SVGID_4_" gradientUnits="userSpaceOnUse" x1="658.835" y1="210.647" x2="658.835" y2="262.3882">
		<stop  offset="0" style="stop-color:#414042"/>
		<stop  offset="0.0916" style="stop-color:#39383A"/>
		<stop  offset="0.3007" style="stop-color:#333334"/>
		<stop  offset="0.3759" style="stop-color:#414042"/>
		<stop  offset="0.4599" style="stop-color:#383839"/>
		<stop  offset="0.6569" style="stop-color:#333334"/>
		<stop  offset="0.7202" style="stop-color:#000000"/>
		<stop  offset="0.7584" style="stop-color:#161617"/>
		<stop  offset="0.8582" style="stop-color:#2D2D2E"/>
		<stop  offset="1" style="stop-color:#333334"/>
	</linearGradient>
	<path fill="url(#SVGID_4_)" d="M661.207,227.64c0,0,1.229-9.213,1.842-12.693c0.615-3.479-0.613-4.505-2.865-4.505
		c-2.254,0-6.279,0-6.279,0v52.209c0,0,4.025,0,6.279,0c2.252,0,3.48-1.022,2.865-4.504c-0.613-3.481-1.842-12.693-1.842-12.693
		s2.559-0.614,2.559-2.15c0-1.261,0-12.253,0-13.513C663.766,228.255,661.207,227.64,661.207,227.64z"/>
	<g>
		<polygon fill="#414042" points="599.779,69.678 619.678,61.995 619.678,-0.333 599.779,-0.333 		"/>
		<rect x="599.779" y="14.565" fill="#333334" width="19.898" height="3.265"/>
		<rect x="599.779" y="37.266" fill="#333334" width="19.898" height="3.342"/>
		<rect x="599.779" y="31.602" fill="#333334" width="19.898" height="3.343"/>
		<rect x="599.779" y="25.937" fill="#333334" width="19.898" height="3.343"/>
		<rect x="599.779" y="20.272" fill="#333334" width="19.898" height="3.343"/>
	</g>
	<g>
		<path fill="#8DC13E" d="M651.1-0.503h-25.416c-1.5,0-2.867,0.553-3.92,1.462c-1.275,1.101-2.088,2.728-2.088,4.545v51.2l0,0
			l-19.641,7.085v0.002c-2.414,0.781-4.158,3.042-4.158,5.715v69.548c0,2.849-0.027,5.557-0.084,8.143h14.109v14.892h-14.783
			c-2.672,37.016-11.488,44.809-11.488,97.116c0,38.404,15.418,92.602,36.045,101.717c0.766,0.338,1.539,0.614,2.318,0.825
			c1.215,0.328,2.443,0.509,3.689,0.509H651.1c3.318,0,6.008-2.689,6.008-6.007V5.504C657.107,2.186,654.418-0.503,651.1-0.503z"/>
		<path fill="#78A635" d="M609.902,147.198h-14.109c-0.115,5.482-0.35,10.402-0.674,14.892h14.783V147.198z"/>
	</g>
	<path opacity="0.15" fill="#FFFFFF" d="M600.74,64.899c2.219-0.701,15.033-5.537,15.033-5.537c1.078-0.395,2.273,0.158,2.668,1.237
		c0.396,1.079-0.156,2.273-1.236,2.668c0,0-13.619,3.775-16.545,4.391C597.732,68.274,598.01,65.763,600.74,64.899z"/>
	<rect x="636.611" y="-0.503" fill="#78A635" width="2.164" height="362.76"/>
	<path opacity="0.15" fill="#FFFFFF" d="M624.92,0.958h26.957c1.148,0,2.08,0.93,2.08,2.079c0,1.149-0.932,2.08-2.08,2.08H624.92
		c-1.148,0-2.08-0.931-2.08-2.08C622.84,1.889,623.771,0.958,624.92,0.958z"/>
	<rect x="627.025" y="114.948" fill="#333334" width="6.031" height="26.802"/>
	<linearGradient id="SVGID_5_" gradientUnits="userSpaceOnUse" x1="638.7686" y1="100.4082" x2="638.7686" y2="104.626">
		<stop  offset="0" style="stop-color:#78A635"/>
		<stop  offset="0.0074" style="stop-color:#79A736;stop-opacity:0.9937"/>
		<stop  offset="0.5065" style="stop-color:#B9CE95;stop-opacity:0.5695"/>
		<stop  offset="0.8464" style="stop-color:#E6EDDB;stop-opacity:0.2805"/>
		<stop  offset="1" style="stop-color:#FFFFFF;stop-opacity:0.15"/>
	</linearGradient>
	<path fill="url(#SVGID_5_)" d="M645.021,103.519H628.17v-1.58h16.852c1.887,0,2.766-0.795,2.766-2.502V77.91
		c0-1.605-0.453-2.369-3.029-2.369H628.17v-1.58h16.588c3.188,0,4.609,1.218,4.609,3.949v21.527
		C649.367,102.031,647.783,103.519,645.021,103.519z"/>
	
		<linearGradient id="SVGID_6_" gradientUnits="userSpaceOnUse" x1="847.7666" y1="144.7124" x2="847.7666" y2="148.4646" gradientTransform="matrix(-1 0 0 1 1474.6719 0)">
		<stop  offset="0" style="stop-color:#78A635"/>
		<stop  offset="0.0038" style="stop-color:#79A736;stop-opacity:0.9937"/>
		<stop  offset="0.261" style="stop-color:#B9CE95;stop-opacity:0.5695"/>
		<stop  offset="0.4362" style="stop-color:#E6EDDB;stop-opacity:0.2805"/>
		<stop  offset="0.5153" style="stop-color:#FFFFFF;stop-opacity:0.15"/>
		<stop  offset="1" style="stop-color:#78A635"/>
	</linearGradient>
	<path fill="url(#SVGID_6_)" d="M647.18,145.108v-32.949c0,0-19.883,0-22.982,0c-7.377,0-19.754-7.011-19.754-23.224
		c0-16.043,12.441-22.204,15.232-22.204V56.704l0,0v-51.2c0-1.818,0.812-3.444,2.088-4.545v66.796
		c-2.113,0-15.477,5.197-15.477,21.18c0,14.831,11.652,21.184,17.482,21.184c1.838,0,25.598,0,25.598,0v37.262h-27.373v214.367
		c-0.779-0.211-1.553-0.487-2.318-0.825V145.108H647.18z"/>
	<path fill="#333334" stroke="#77787B" stroke-width="0.9875" stroke-miterlimit="10" d="M614.082,98.499V78.618l5.004-4.213
		c0,0,8.162,0,9.742,0s2.502,0.395,2.502,2.37s0,22.777,0,24.094c0,1.317-0.922,2.238-2.633,2.238c-1.713,0-9.744,0-9.744,0
		L614.082,98.499z"/>
	<rect x="621.559" y="80.386" fill="#77787B" width="1.74" height="16.533"/>
	<path fill="#78A635" d="M646.119,20.723c0,1.963-1.59,3.555-3.555,3.555h-9.742c-1.963,0-3.555-1.592-3.555-3.555v-6.275
		c0-1.963,1.592-3.556,3.555-3.556h9.742c1.965,0,3.555,1.592,3.555,3.556V20.723z"/>
	<path opacity="0.15" fill="#FFFFFF" d="M629.105,63.5h17.176c1.148,0,2.08,0.931,2.08,2.08c0,1.148-0.932,2.079-2.08,2.079h-17.176
		c-1.148,0-2.08-0.931-2.08-2.079C627.025,64.43,627.957,63.5,629.105,63.5z"/>
	<path opacity="0.15" fill="#FFFFFF" d="M629.105,52.351h17.176c1.148,0,2.08,0.931,2.08,2.08s-0.932,2.08-2.08,2.08h-17.176
		c-1.148,0-2.08-0.931-2.08-2.08S627.957,52.351,629.105,52.351z"/>
	<path opacity="0.15" fill="#FFFFFF" d="M629.105,41.202h17.176c1.148,0,2.08,0.932,2.08,2.08s-0.932,2.079-2.08,2.079h-17.176
		c-1.148,0-2.08-0.93-2.08-2.079S627.957,41.202,629.105,41.202z"/>
	<path opacity="0.15" fill="#FFFFFF" d="M629.105,30.054h17.176c1.148,0,2.08,0.931,2.08,2.08s-0.932,2.08-2.08,2.08h-17.176
		c-1.148,0-2.08-0.932-2.08-2.08S627.957,30.054,629.105,30.054z"/>
</g>
<g>
	<g>
		<g>
			<g>
				<linearGradient id="SVGID_7_" gradientUnits="userSpaceOnUse" x1="450.7451" y1="-0.248" x2="450.7451" y2="80.1963">
					<stop  offset="0" style="stop-color:#8DC13E"/>
					<stop  offset="1" style="stop-color:#78A635"/>
				</linearGradient>
				<path fill="url(#SVGID_7_)" d="M549.168-0.248H352.324c-5.16,0-9.344,4.183-9.344,9.342v45.33v276.18v0.001
					c0,8.422,4.307,15.838,10.834,20.172v0.001c0,0,12.104,11.732,98.33,11.732c54.273,0,78.359-4.962,88.76-8.639
					c10.129-2.891,17.549-12.209,17.549-23.267v-0.001h0.057V54.424V9.094C558.51,3.935,554.328-0.248,549.168-0.248z"/>
			</g>
			<g>
				<rect x="370.299" y="9.254" fill="#333334" width="161.027" height="176.208"/>
				<g>
					<path fill="#333334" d="M514.025,37.266c-0.773,1.222-1.686,2.345-2.723,3.342h20.023v-3.342H514.025z"/>
					<path fill="#333334" d="M387.648,37.266h-17.35v3.342h20.07C389.332,39.611,388.418,38.488,387.648,37.266z"/>
					<path fill="#333334" d="M390.705,14.608h-20.406v3.343h17.553C388.664,16.722,389.623,15.599,390.705,14.608z"/>
					<rect x="370.299" y="75.15" fill="#333334" width="5.215" height="110.311"/>
					<rect x="526.529" y="75.15" fill="#333334" width="4.797" height="110.311"/>
					<g>
						<path fill="#414042" d="M531.326,7.923H516.67v-8.171H370.299v14.856h20.406c-1.082,0.991-2.041,2.113-2.854,3.343h-17.553
							v2.321h16.258c-0.492,1.062-0.883,2.181-1.162,3.343h-15.096v2.322h14.703c-0.062,0.602-0.094,1.212-0.094,1.83
							c0,0.509,0.023,1.014,0.064,1.513h-14.674v2.322h15.023c0.254,1.16,0.623,2.278,1.092,3.343h-16.115v2.321h17.35
							c0.77,1.222,1.684,2.345,2.721,3.342h-20.07V75.15h5.215v110.311h151.016V75.15h4.797V40.607h-20.023
							c1.037-0.997,1.949-2.12,2.723-3.342h17.301v-2.321h-16.068c0.469-1.064,0.838-2.183,1.092-3.343h14.977V29.28h-14.627
							c0.041-0.499,0.064-1.004,0.064-1.513c0-0.618-0.033-1.228-0.094-1.83h14.656v-2.322h-15.051
							c-0.277-1.162-0.668-2.28-1.16-3.343h16.211v-2.321h-17.508c-0.811-1.229-1.771-2.352-2.854-3.343h20.361V7.923z
							 M513.648,27.767c0,9.384-7.607,16.992-16.99,16.992h-91.643c-9.385,0-16.994-7.608-16.994-16.992
							c0-9.384,7.609-16.991,16.994-16.991h91.643C506.041,10.776,513.648,18.383,513.648,27.767z"/>
						<path fill="#333334" d="M496.658,10.776h-91.643c-9.385,0-16.994,7.607-16.994,16.991c0,9.384,7.609,16.992,16.994,16.992
							h91.643c9.383,0,16.99-7.608,16.99-16.992C513.648,18.383,506.041,10.776,496.658,10.776z"/>
					</g>
					<path fill="#333334" d="M510.965,14.608c1.082,0.991,2.043,2.113,2.854,3.343h17.508v-3.343H510.965z"/>
					<path fill="#333334" d="M515.115,20.272c0.492,1.062,0.883,2.181,1.16,3.343h15.051v-3.343H515.115z"/>
					<path fill="#333334" d="M516.67,25.937c0.061,0.602,0.094,1.212,0.094,1.83c0,0.509-0.023,1.014-0.064,1.513h14.627v-3.343
						H516.67z"/>
					<path fill="#333334" d="M516.35,31.602c-0.254,1.16-0.623,2.278-1.092,3.343h16.068v-3.343H516.35z"/>
					<path fill="#333334" d="M386.557,20.272h-16.258v3.343h15.096C385.674,22.453,386.064,21.334,386.557,20.272z"/>
					<path fill="#333334" d="M384.908,27.767c0-0.618,0.031-1.228,0.094-1.83h-14.703v3.343h14.674
						C384.932,28.781,384.908,28.276,384.908,27.767z"/>
					<path fill="#333334" d="M385.322,31.602h-15.023v3.343h16.115C385.945,33.88,385.576,32.762,385.322,31.602z"/>
					<path fill="#333334" d="M463.145,168.539c0-0.884-0.717-1.6-1.6-1.6l-19.732-0.104c-0.885,0-1.6,0.716-1.6,1.6
						c0,0.457,0.193,0.867,0.498,1.157l9.807,9.802h0.002c0.291,0.34,0.727,0.557,1.211,0.557c0.486,0,0.918-0.217,1.213-0.557l0,0
						l9.684-9.681l0,0C462.943,169.422,463.145,169.004,463.145,168.539z"/>
					<path fill="#77787B" d="M506.641,52.586H395.029c-2.051,0-3.713,1.662-3.713,3.714v101.49c0,2.052,1.662,3.714,3.713,3.714
						h111.611c2.053,0,3.715-1.662,3.715-3.714V56.301C510.355,54.249,508.693,52.586,506.641,52.586z"/>
				</g>
			</g>
			<path fill="#8DC13E" d="M549.521,45.327h-2.807h-10.84c-2.514,0-4.549,2.037-4.549,4.549v8.307H370.381v-8.307
				c0-2.512-2.037-4.549-4.549-4.549h-11.115h-2.531c-5.023,0-9.098,4.073-9.098,9.098v276.18v0.001
				c0,8.422,4.307,15.838,10.834,20.172l-0.002,0.001c0,0,12.104,11.732,98.332,11.732c54.273,0,78.359-4.962,88.758-8.639
				c10.131-2.891,17.549-12.209,17.549-23.267v-0.001h0.059V54.424C558.617,49.399,554.545,45.327,549.521,45.327z"/>
			<linearGradient id="SVGID_8_" gradientUnits="userSpaceOnUse" x1="450.2207" y1="320.4263" x2="450.2207" y2="290.3623">
				<stop  offset="0" style="stop-color:#8DC13E;stop-opacity:0"/>
				<stop  offset="1" style="stop-color:#78A635"/>
			</linearGradient>
			<polygon fill="url(#SVGID_8_)" points="467.07,290.365 467.07,306.187 434.637,306.187 434.637,290.365 429.695,290.365 
				429.695,322.008 470.746,322.008 470.746,290.365 			"/>
			<path fill="#77787B" d="M531.119,171.702c0,1.966-1.594,3.56-3.561,3.56H373.844c-1.967,0-3.561-1.593-3.561-3.56v-62.1
				c0-1.966,1.594-3.56,3.561-3.56h153.715c1.967,0,3.561,1.594,3.561,3.56V171.702z"/>
			<path fill="none" stroke="#78A635" stroke-width="0.7911" stroke-miterlimit="10" d="M502.631,253.378
				c0,1.967-1.594,3.561-3.561,3.561h-97.699c-1.967,0-3.561-1.594-3.561-3.561v-23.337c0-1.966,1.594-3.56,3.561-3.56h97.699
				c1.967,0,3.561,1.594,3.561,3.56V253.378z"/>
			<g>
				<polygon fill="#78A635" points="446.197,247.476 453.1,247.476 453.498,245.051 449.156,245.051 449.629,242.209 
					453.404,242.209 453.803,239.792 450.029,239.792 450.486,237.04 454.822,237.04 455.205,234.678 448.311,234.678 				"/>
				<path fill="#78A635" d="M442.314,234.678l-3.121,6.959l-1.506-6.959h-2.422l-3.514,10.803l-1.705-10.803h-3.045l-4.719,10.342
					l0.434-3.695h-4.732v2.36h1.812l-0.082,1.138c0,0-0.617,0.502-1.938,0.478c-1.682-0.03-3.316-1.316-3.168-3.728
					c0.156-2.515,2.795-4.751,5.746-4.781c1.906-0.021,2.826,0.527,2.826,0.527v-2.423c0,0-0.186-0.626-2.67-0.626
					c-4.152,0-8.354,3.305-8.355,7.552c-0.002,3.323,2.236,5.903,5.799,5.736c1.961-0.091,3.086-0.662,3.674-1.104l-0.465,1.022
					h2.795l1.68-3.791h3.211l0.639,3.791h1.615h0.963h1.738l2.246-7.352l1.762,7.352h1.615l3.566-7.974l0.221,7.974h2.486
					l-0.529-12.798H442.314z M426.686,241.325l1.279-2.888l0.486,2.888H426.686z"/>
				<path fill="#78A635" d="M474.887,234.723c-2.83-0.729-5.854,1.525-6.758,5.035c-0.902,3.51,0.658,6.944,3.488,7.673
					c2.826,0.728,5.854-1.526,6.756-5.036S477.715,235.452,474.887,234.723z M476.049,241.796c-0.562,2.183-2.27,3.629-3.814,3.232
					c-1.545-0.398-2.342-2.49-1.781-4.672c0.564-2.184,2.27-3.629,3.814-3.23C475.812,237.523,476.609,239.615,476.049,241.796z"/>
				<polygon fill="#78A635" points="484.682,234.678 482.074,239.027 480.209,234.678 477.475,234.678 480.471,240.973 
					479.682,247.476 482.135,247.476 482.881,241.698 487.57,234.678 				"/>
				<path fill="#78A635" d="M467.547,237.992c0-2.402-1.533-3.313-2.941-3.313h-4.783l-2.111,12.798h5.611
					c1.863,0,3.893-1.348,3.893-3.791s-1.637-2.774-1.637-2.774S467.547,240.393,467.547,237.992z M463.529,237.04
					c0.867,0,1.367,0.414,1.346,1.241c-0.023,0.933-0.498,1.512-1.367,1.512h-1.965L462,237.04H463.529z M461.143,242.209h2.014
					c1.199,0.048,1.574,0.502,1.574,1.413c0,0.85-0.428,1.429-1.746,1.429h-2.314L461.143,242.209z"/>
			</g>
			<path fill="none" stroke="#78A635" stroke-width="0.7911" stroke-miterlimit="10" d="M533.309,186.337H368.396
				c-4.322,0-7.826,2.935-7.826,6.556v92.714l0,0c0,5.91,3.607,11.113,9.076,14.154l-0.002,0.001c0,0,7.967,6.466,60.051,7.938
				v-17.335h41.051v17.412c32.516-0.801,48.227-3.648,55.637-5.843c8.488-2.029,14.703-8.568,14.703-16.327l0,0h0.049v-92.714
				C541.135,189.272,537.631,186.337,533.309,186.337z"/>
			<g opacity="0.15">
				<path fill="#FFFFFF" d="M451.561,348.377c-15.027,0-23.969,4.114-34.555,6.856c-6.221,1.61-12.871,3.522-17.324,5.373
					c13.381,1.139,30.561,1.903,52.57,1.903c21.432,0,38.152-0.774,51.188-1.937c-4.033-1.573-9.941-3.186-16.291-4.812
					C476.396,353.006,466.588,348.377,451.561,348.377z"/>
			</g>
			<g opacity="0.6">
				<radialGradient id="SVGID_9_" cx="451.4883" cy="363.5894" r="209.7982" gradientUnits="userSpaceOnUse">
					<stop  offset="0.1534" style="stop-color:#8DC13E"/>
					<stop  offset="0.2012" style="stop-color:#94C448;stop-opacity:0.9162"/>
					<stop  offset="0.2955" style="stop-color:#A6CC68;stop-opacity:0.7508"/>
					<stop  offset="0.4272" style="stop-color:#C5DC9B;stop-opacity:0.5197"/>
					<stop  offset="0.5898" style="stop-color:#EEF5E4;stop-opacity:0.2345"/>
					<stop  offset="0.638" style="stop-color:#FFFFFF;stop-opacity:0.15"/>
					<stop  offset="1" style="stop-color:#8DC13E"/>
				</radialGradient>
				<path fill="url(#SVGID_9_)" d="M550.744,45.378v271.203h-0.053v0.001c0,11.058-6.889,20.376-16.293,23.267
					c-8.484,3.232-26.791,7.456-65.309,8.432c10.615,2.111,19.404,5.686,28.732,8.146c4.348,1.146,8.531,2.287,12.289,3.418
					c15.791-1.743,25.209-4.065,30.748-6.024c10.129-2.89,17.549-12.209,17.549-23.266v-0.001h0.059V54.372
					C558.467,49.815,555.117,46.042,550.744,45.378z"/>
				<radialGradient id="SVGID_10_" cx="451.4873" cy="363.5894" r="209.7929" gradientUnits="userSpaceOnUse">
					<stop  offset="0.1534" style="stop-color:#8DC13E"/>
					<stop  offset="0.2012" style="stop-color:#94C448;stop-opacity:0.9162"/>
					<stop  offset="0.2955" style="stop-color:#A6CC68;stop-opacity:0.7508"/>
					<stop  offset="0.4272" style="stop-color:#C5DC9B;stop-opacity:0.5197"/>
					<stop  offset="0.5898" style="stop-color:#EEF5E4;stop-opacity:0.2345"/>
					<stop  offset="0.638" style="stop-color:#FFFFFF;stop-opacity:0.15"/>
					<stop  offset="1" style="stop-color:#8DC13E"/>
				</radialGradient>
				<path fill="url(#SVGID_10_)" d="M392.275,359.866c4.469-1.456,9.443-2.872,14.227-4.147c8.941-2.383,16.982-5.539,26.869-7.463
					c-63.215-1.645-72.656-11.5-72.656-11.5l0.002-0.002c-6.061-4.335-10.059-11.749-10.059-20.172v-0.001V45.378
					c-4.371,0.664-7.721,4.438-7.721,8.994v276.18v0.001c0,8.423,4.305,15.837,10.832,20.171v0.003
					C353.77,350.727,359.633,356.41,392.275,359.866z"/>
			</g>
			<linearGradient id="SVGID_11_" gradientUnits="userSpaceOnUse" x1="450.7158" y1="58.1816" x2="450.7158" y2="343.6044">
				<stop  offset="0" style="stop-color:#FFFFFF;stop-opacity:0"/>
				<stop  offset="0.0322" style="stop-color:#FFFFFF;stop-opacity:0.0656"/>
				<stop  offset="0.4908" style="stop-color:#FFFFFF"/>
				<stop  offset="1" style="stop-color:#FFFFFF;stop-opacity:0"/>
			</linearGradient>
			<path opacity="0.15" fill="url(#SVGID_11_)" d="M370.299,294.942c0,7.066,3.215,13.288,8.084,16.924v0.002
				c0,0,9.031,9.845,73.377,9.845c40.5,0,58.475-4.163,66.234-7.249c7.561-2.426,13.094-10.244,13.094-19.521v-0.001h0.045V58.182
				H370.299V294.942L370.299,294.942z"/>
			<linearGradient id="SVGID_12_" gradientUnits="userSpaceOnUse" x1="450.709" y1="142.2607" x2="450.709" y2="211.1939">
				<stop  offset="0" style="stop-color:#FFFFFF;stop-opacity:0"/>
				<stop  offset="0.5031" style="stop-color:#FFFFFF"/>
				<stop  offset="1" style="stop-color:#FFFFFF;stop-opacity:0"/>
			</linearGradient>
			<rect x="370.299" y="140.652" opacity="0.15" fill="url(#SVGID_12_)" width="160.82" height="71.314"/>
		</g>
		<circle fill="#78A635" cx="360.702" cy="35.467" r="5.933"/>
		<path fill="#78A635" d="M546.74,35.467c0,3.277-2.654,5.933-5.934,5.933c-3.275,0-5.932-2.656-5.932-5.933
			s2.656-5.934,5.932-5.934C544.086,29.534,546.74,32.19,546.74,35.467z"/>
		<path fill="#78A635" d="M356.938,147.198H342.99v14.833h13.941c0.002,0,0.004,0,0.004,0c4.096,0,7.418-3.32,7.418-7.417
			C364.354,150.519,361.033,147.198,356.938,147.198z"/>
		<path fill="#78A635" d="M558.412,147.198h-15.205c-4.113,0-7.447,3.333-7.447,7.446c0,4.112,3.334,7.446,7.447,7.446h0.002h15.203
			V147.198z"/>
	</g>
	<path fill="#E6E7E8" d="M512.43,75.751H388.973c-1.047,0-1.896,0.849-1.896,1.896V94.86c0,1.047,0.85,1.896,1.896,1.896H512.43
		c1.049,0,1.896-0.849,1.896-1.896V77.647C514.326,76.6,513.479,75.751,512.43,75.751z"/>
</g>
<g>
	<path fill="#8DC13E" d="M215.529,9.094c0-5.159-4.182-9.342-9.342-9.342H9.342C4.182-0.248,0,3.935,0,9.094v321.51l0,0v0.001
		c0,8.422,4.306,15.838,10.833,20.172l0,0.001c0,0,12.103,11.732,98.332,11.732c54.272,0,78.359-4.962,88.758-8.639
		c10.131-2.891,17.551-12.209,17.551-23.267v-0.001h0.057V9.094z"/>
	<path opacity="0.15" fill="#FFFFFF" d="M181.028-0.248H34.501v308.142l0,0v0.001c0,5.727,2.927,10.766,7.365,13.713l0,0.001
		c0,0,8.228,4.381,66.85,4.381c36.897,0,53.272,0.223,60.343-2.278c6.887-1.964,11.931-8.301,11.931-15.816v-3.596h0.039V-0.248z"/>
	<circle fill="#333334" cx="144.875" cy="243.319" r="13.349"/>
	<circle fill="#333334" cx="184.33" cy="231.157" r="13.35"/>
	<path fill="#333334" d="M66.715,227.395H53.069v-13.646c0-1.501-1.216-2.716-2.716-2.716H36.905c-1.5,0-2.716,1.215-2.716,2.716
		v13.646H20.542c-1.5,0-2.716,1.216-2.716,2.716v13.448c0,1.5,1.216,2.716,2.716,2.716h13.646v13.646
		c0,1.499,1.216,2.716,2.716,2.716h13.448c1.5,0,2.716-1.217,2.716-2.716v-13.646h13.646c1.5,0,2.715-1.216,2.715-2.716v-13.448
		C69.431,228.611,68.215,227.395,66.715,227.395z"/>
	<path d="M96.845,295.652H84.056c-1.765,0-3.197,1.432-3.197,3.197c0,1.767,1.432,3.196,3.197,3.196h12.789
		c1.766,0,3.197-1.43,3.197-3.196C100.042,297.083,98.61,295.652,96.845,295.652z"/>
	<path d="M129.147,295.652h-12.789c-1.766,0-3.197,1.432-3.197,3.197c0,1.767,1.432,3.196,3.197,3.196h12.789
		c1.766,0,3.196-1.43,3.196-3.196C132.344,297.083,130.913,295.652,129.147,295.652z"/>
	<circle fill="#414042" cx="43.678" cy="236.835" r="5.208"/>
	<path fill="#414042" d="M48.471,250.734l-0.002-0.002c0.034-0.095,0.056-0.194,0.056-0.3c0-0.491-0.398-0.89-0.89-0.89h-7.912
		c-0.492,0-0.891,0.398-0.891,0.89c0,0.119,0.024,0.232,0.067,0.336v0.001l0,0.002c0.023,0.056,0.052,0.109,0.085,0.159l3.872,7.262
		c0.135,0.32,0.452,0.547,0.822,0.547c0.348,0,0.646-0.202,0.792-0.494h0l3.887-7.299c0.043-0.06,0.078-0.126,0.104-0.196
		L48.471,250.734z"/>
	<path fill="#414042" d="M38.886,222.934l0.002,0.004c-0.034,0.094-0.056,0.192-0.056,0.299c0,0.492,0.399,0.891,0.891,0.891h7.912
		c0.491,0,0.89-0.398,0.89-0.891c0-0.118-0.024-0.232-0.066-0.335v-0.001l-0.001-0.003c-0.023-0.056-0.051-0.108-0.084-0.158
		l-3.873-7.262c-0.134-0.32-0.451-0.548-0.82-0.548c-0.348,0-0.647,0.202-0.793,0.494h0l-3.887,7.298
		c-0.042,0.062-0.077,0.127-0.104,0.197L38.886,222.934z"/>
	<path fill="#414042" d="M57.579,232.042l-0.003,0.002c-0.094-0.034-0.195-0.056-0.3-0.056c-0.492,0-0.891,0.398-0.891,0.891v7.91
		c0,0.491,0.398,0.891,0.891,0.891c0.118,0,0.232-0.024,0.335-0.066h0.001l0.003-0.001c0.056-0.022,0.109-0.052,0.159-0.084
		l7.261-3.873c0.322-0.135,0.547-0.452,0.547-0.82c0-0.35-0.202-0.646-0.493-0.794v-0.001l-7.3-3.887
		c-0.06-0.042-0.126-0.078-0.195-0.104L57.579,232.042z"/>
	<path fill="#414042" d="M29.778,241.627l0.003-0.004c0.094,0.035,0.195,0.057,0.301,0.057c0.491,0,0.889-0.399,0.889-0.891v-7.91
		c0-0.492-0.398-0.891-0.889-0.891c-0.12,0-0.233,0.024-0.336,0.067l-0.001-0.001l-0.003,0.001
		c-0.056,0.023-0.109,0.051-0.158,0.084l-7.261,3.873c-0.322,0.135-0.547,0.451-0.547,0.822c0,0.348,0.202,0.645,0.493,0.792v0.001
		l7.3,3.887c0.06,0.043,0.126,0.076,0.195,0.104L29.778,241.627z"/>
	<g>
		<path fill="#414042" d="M141.93,249.954h-3.263v-12.281h3.087c1.948,0,3.404,0.965,3.404,3.245c0,1.001-0.456,2.089-1.439,2.545
			c1.035,0.368,1.65,1.456,1.65,2.789C145.369,248.709,143.965,249.954,141.93,249.954z M141.807,239.339h-1.438v3.334h1.403
			c0.913,0,1.632-0.526,1.632-1.702C143.403,239.76,142.736,239.339,141.807,239.339z M141.736,244.322h-1.368v3.966h1.544
			c1.035,0,1.701-0.562,1.701-2.036C143.613,244.883,142.807,244.322,141.736,244.322z"/>
	</g>
	<g>
		<path fill="#414042" d="M184.036,237.89l-0.72-3.245h-2.666l-0.703,3.245h-1.824l3.018-12.282h1.772l3.001,12.282H184.036z
			 M182.51,230.943c-0.176-0.808-0.439-2.229-0.527-2.685c-0.088,0.455-0.35,1.859-0.525,2.685l-0.457,2.07h1.966L182.51,230.943z"
			/>
	</g>
	<path d="M195.533,12.962H19.517c-3.565,0-6.456,2.891-6.456,6.456V166.56c0,3.399,2.628,6.179,5.962,6.432v0.025
		c0,0,29.335,5.476,88.502,5.476s88.502-5.476,88.502-5.476v-0.025c3.334-0.253,5.962-3.033,5.962-6.432V19.418
		C201.989,15.853,199.098,12.962,195.533,12.962z"/>
	<path fill="#333334" d="M23.72,15.677h-1.317c-3.448,0-6.245,2.795-6.245,6.244v142.316c0,3.288,2.542,5.976,5.767,6.221v0.024
		c0,0,28.373,5.295,85.6,5.295c57.227,0,85.6-5.295,85.6-5.295v-0.024c2.682-0.204,4.887-2.101,5.555-4.624L23.72,15.677z"/>
	<rect x="45.655" y="34.449" fill="#DCDDDE" width="123.937" height="106.533"/>
	<g>
		<path fill="#414042" d="M19.517,71.311h1.181c0.184,0,0.359,0.018,0.525,0.054c0.167,0.035,0.315,0.096,0.445,0.18
			c0.129,0.084,0.233,0.196,0.31,0.337c0.077,0.14,0.115,0.314,0.115,0.52c0,0.218-0.042,0.397-0.124,0.54
			c-0.083,0.142-0.188,0.255-0.318,0.337c-0.129,0.083-0.271,0.141-0.425,0.175c-0.154,0.033-0.299,0.051-0.438,0.051h-0.798v1.788
			h-0.472V71.311z M19.989,73.065h0.798c0.236,0,0.429-0.053,0.577-0.16c0.148-0.106,0.222-0.273,0.222-0.498
			c0-0.224-0.074-0.39-0.222-0.497s-0.34-0.161-0.577-0.161h-0.798V73.065z"/>
		<path fill="#414042" d="M24.589,75.393c-0.304,0-0.582-0.053-0.835-0.158c-0.253-0.104-0.473-0.25-0.658-0.436
			s-0.33-0.407-0.433-0.664c-0.103-0.257-0.154-0.535-0.154-0.835s0.052-0.578,0.154-0.835c0.104-0.257,0.248-0.478,0.433-0.664
			s0.405-0.331,0.658-0.436c0.253-0.105,0.531-0.157,0.835-0.157c0.303,0,0.582,0.052,0.835,0.157s0.473,0.25,0.658,0.436
			c0.186,0.186,0.33,0.407,0.433,0.664s0.155,0.535,0.155,0.835s-0.052,0.578-0.155,0.835c-0.103,0.256-0.247,0.478-0.433,0.664
			c-0.185,0.186-0.405,0.331-0.658,0.436C25.171,75.34,24.892,75.393,24.589,75.393z M24.589,74.955
			c0.232,0,0.445-0.043,0.638-0.129c0.193-0.086,0.36-0.204,0.498-0.354c0.139-0.15,0.247-0.325,0.324-0.525
			c0.077-0.201,0.115-0.415,0.115-0.644c0-0.229-0.038-0.443-0.115-0.644c-0.077-0.2-0.185-0.375-0.324-0.525
			c-0.138-0.15-0.305-0.268-0.498-0.354c-0.192-0.086-0.405-0.129-0.638-0.129c-0.233,0-0.445,0.043-0.639,0.129
			c-0.192,0.086-0.358,0.204-0.497,0.354c-0.138,0.15-0.246,0.325-0.323,0.525c-0.077,0.201-0.116,0.416-0.116,0.644
			c0,0.229,0.039,0.443,0.116,0.644c0.077,0.2,0.185,0.375,0.323,0.525c0.139,0.15,0.305,0.269,0.497,0.354
			C24.144,74.911,24.356,74.955,24.589,74.955z"/>
		<path fill="#414042" d="M26.854,71.311h0.523l0.906,3.306h0.011l0.979-3.306h0.528l0.974,3.306h0.011l0.922-3.306h0.494
			l-1.169,3.981h-0.512l-0.984-3.374h-0.012l-0.989,3.374h-0.517L26.854,71.311z"/>
		<path fill="#414042" d="M32.731,71.311h2.502v0.438h-2.03v1.249h1.895v0.438h-1.895v1.417h2.131v0.438h-2.604V71.311z"/>
		<path fill="#414042" d="M36.065,71.311h1.018c0.191,0,0.381,0.012,0.571,0.034c0.189,0.022,0.359,0.071,0.509,0.146
			c0.149,0.075,0.271,0.185,0.365,0.329c0.093,0.144,0.141,0.34,0.141,0.587c0,0.292-0.088,0.529-0.265,0.709
			c-0.176,0.18-0.419,0.294-0.731,0.343l1.13,1.833h-0.579l-1.08-1.788h-0.607v1.788h-0.473V71.311z M36.538,73.065h0.422
			c0.131,0,0.267-0.003,0.408-0.011c0.14-0.008,0.27-0.032,0.388-0.073s0.216-0.106,0.292-0.194c0.077-0.088,0.116-0.214,0.116-0.38
			c0-0.142-0.028-0.256-0.085-0.342c-0.056-0.086-0.13-0.153-0.222-0.2c-0.092-0.046-0.194-0.078-0.309-0.093
			c-0.114-0.015-0.229-0.022-0.346-0.022h-0.664V73.065z"/>
	</g>
	<circle fill="#CE181E" cx="21" cy="64.51" r="2.9"/>
	<path fill="#414042" d="M37.471,61.973c0.557,0.696,0.891,1.577,0.891,2.538s-0.334,1.842-0.891,2.538
		c1.161-0.262,2.029-1.297,2.029-2.538C39.5,63.271,38.632,62.235,37.471,61.973z"/>
	<path fill="#414042" d="M32.354,61.919c0.582,0.704,0.932,1.606,0.932,2.591s-0.35,1.888-0.932,2.592
		c1.326-0.12,2.365-1.234,2.365-2.592C34.72,63.153,33.68,62.039,32.354,61.919z"/>
	<path fill="#414042" d="M26.793,61.906c-0.023,0-0.044,0.003-0.066,0.003c0.587,0.706,0.94,1.612,0.94,2.601
		c0,0.989-0.353,1.895-0.94,2.601c0.022,0.001,0.043,0.003,0.066,0.003c1.438,0,2.604-1.166,2.604-2.604
		C29.397,63.073,28.23,61.906,26.793,61.906z"/>
	<g>
		<polygon fill="#414042" points="82.384,162.315 88.063,162.315 88.392,160.321 84.819,160.321 85.208,157.981 88.314,157.981 
			88.642,155.992 85.538,155.992 85.914,153.726 89.481,153.726 89.797,151.783 84.122,151.783 		"/>
		<path fill="#414042" d="M79.188,151.783l-2.569,5.727l-1.24-5.727h-1.994l-2.892,8.892l-1.403-8.892h-2.505l-3.884,8.512
			l0.356-3.042h-3.894v1.942h1.492l-0.068,0.937c0,0-0.508,0.412-1.595,0.393c-1.384-0.025-2.73-1.084-2.607-3.068
			c0.128-2.07,2.301-3.911,4.729-3.937c1.568-0.017,2.326,0.435,2.326,0.435v-1.994c0,0-0.153-0.515-2.198-0.515
			c-3.416,0-6.874,2.721-6.876,6.216c-0.001,2.735,1.841,4.857,4.772,4.721c1.614-0.075,2.54-0.545,3.024-0.91l-0.383,0.841h2.301
			l1.382-3.119h2.643l0.525,3.119h1.329h0.792h1.432l1.849-6.05l1.449,6.05h1.329l2.936-6.562l0.183,6.562h2.045l-0.435-10.532
			H79.188z M66.325,157.253l1.054-2.377l0.4,2.377H66.325z"/>
		<path fill="#414042" d="M105.995,151.819c-2.328-0.599-4.816,1.256-5.562,4.145c-0.742,2.888,0.542,5.715,2.871,6.314
			c2.327,0.599,4.817-1.257,5.561-4.145S108.323,152.419,105.995,151.819z M106.951,157.641c-0.461,1.796-1.867,2.987-3.138,2.66
			s-1.928-2.049-1.467-3.845c0.464-1.796,1.869-2.986,3.14-2.659C106.757,154.125,107.414,155.845,106.951,157.641z"/>
		<polygon fill="#414042" points="114.057,151.783 111.91,155.361 110.375,151.783 108.126,151.783 110.591,156.964 109.94,162.315 
			111.96,162.315 112.574,157.56 116.434,151.783 		"/>
		<path fill="#414042" d="M99.953,154.509c0-1.977-1.26-2.726-2.419-2.726h-3.936l-1.739,10.532h4.618
			c1.535,0,3.205-1.108,3.205-3.12c0-2.011-1.347-2.283-1.347-2.283S99.953,156.486,99.953,154.509z M96.647,153.726
			c0.715,0,1.125,0.341,1.108,1.022c-0.019,0.768-0.409,1.245-1.125,1.245h-1.618l0.376-2.267H96.647z M94.683,157.981h1.658
			c0.987,0.039,1.295,0.413,1.295,1.163c0,0.699-0.351,1.177-1.436,1.177h-1.905L94.683,157.981z"/>
	</g>
	<g>
		<path fill="#00A2BC" d="M159.412,163.262c-0.294,0-0.589-0.102-0.829-0.31c-0.03-0.025-2.991-2.589-3.876-3.329
			c-0.084-0.07-0.167-0.135-0.246-0.194c0.008,1.441-0.104,2.455-0.111,2.517c-0.079,0.696-0.709,1.198-1.404,1.118
			c-0.696-0.08-1.196-0.707-1.118-1.403l0,0c0.001-0.02,0.212-1.946-0.002-4.18c-0.36-3.76-0.392-4.776,1.142-5.584l0.041-0.021
			c1.12-0.593,3.047-0.471,4.29-0.056c0.853,0.284,1.911,0.638,2.377,1.618c0.184,0.387,0.337,1.027,0.017,1.875
			c-0.438,1.16-1.75,2.051-3.033,2.637c1.125,0.954,3.477,2.989,3.586,3.084c0.529,0.459,0.588,1.261,0.129,1.791
			C160.123,163.113,159.77,163.262,159.412,163.262z M154.171,154.131c-0.035,0.396,0.019,1.25,0.081,2.003
			c1.203-0.309,2.674-1.093,3.013-1.619c-0.229-0.108-0.59-0.228-0.771-0.288c-0.902-0.302-2.03-0.251-2.299-0.108L154.171,154.131z
			"/>
		<path fill="#DC1F40" d="M124.115,163.166c-1.981,0-3.391-0.413-4.35-1.258c-0.919-0.809-1.385-1.989-1.385-3.506
			c0-3.19,3.72-7.587,6.418-7.587c1.252,0,1.949,0.486,2.314,0.893c0.676,0.756,0.615,1.644,0.597,1.814
			c-0.077,0.697-0.706,1.2-1.403,1.122c-0.645-0.073-1.121-0.615-1.128-1.248c-0.069-0.02-0.192-0.042-0.38-0.042
			c-0.872,0-3.879,2.866-3.879,5.048c0,1.021,0.299,1.403,0.522,1.601c0.492,0.433,1.732,0.866,4.848,0.469
			c0.692-0.089,1.331,0.403,1.42,1.098c0.089,0.696-0.403,1.331-1.099,1.419C125.692,163.107,124.863,163.166,124.115,163.166z"/>
		<path fill="#622D91" d="M131.261,162.674c-2.442,0-4.292-1.487-4.603-3.699c-0.178-1.263,0.219-2.641,1.088-3.781
			c0.958-1.255,2.379-2.087,3.899-2.281c0.155-0.02,0.312-0.03,0.469-0.03c2.2,0,4.106,1.912,4.342,4.354
			c0.264,2.753-1.41,4.904-4.164,5.352C131.945,162.646,131.599,162.674,131.261,162.674z M132.114,155.421
			c-0.049,0-0.099,0.003-0.146,0.01c-0.851,0.108-1.654,0.583-2.203,1.303c-0.46,0.604-0.677,1.292-0.594,1.887
			c0.193,1.367,1.526,1.515,2.09,1.515c0.202,0,0.413-0.018,0.625-0.053c1.413-0.229,2.177-1.202,2.042-2.603
			C133.807,156.208,132.892,155.421,132.114,155.421z"/>
		<path fill="#F9D308" d="M146.463,162.604c-2.145,0-3.781-1.314-4.375-3.514c-0.335-1.232-0.05-2.587,0.779-3.715
			c0.972-1.32,2.527-2.116,4.271-2.183c0.069-0.003,0.139-0.004,0.208-0.004c2.482,0,4.434,1.653,4.637,3.93
			c0.237,2.629-1.369,4.671-4.191,5.327C147.338,162.551,146.892,162.604,146.463,162.604z M147.346,155.728
			c-0.037,0-0.074,0-0.111,0.002c-0.965,0.037-1.812,0.457-2.321,1.15c-0.364,0.494-0.504,1.074-0.375,1.548
			c0.294,1.087,0.942,1.638,1.925,1.638c0.234,0,0.488-0.031,0.754-0.093c0.906-0.21,2.399-0.832,2.238-2.627
			C149.34,156.068,148.074,155.728,147.346,155.728z"/>
		<path fill="#8DC13E" d="M138.163,163.073c-0.233,0-0.474-0.053-0.714-0.187c-0.844-0.467-0.844-1.331-0.844-2.425
			c0-0.752-0.119-2.283-0.224-3.632c-0.045-0.575-0.089-1.13-0.122-1.606c-0.092-1.325-0.529-2.215-0.533-2.224
			c-0.322-0.623-0.076-1.385,0.547-1.707c0.621-0.322,1.389-0.075,1.711,0.548c0.07,0.134,0.682,1.363,0.809,3.208
			c0.033,0.47,0.075,1.017,0.119,1.583c0.094,1.199,0.189,2.431,0.222,3.306c1.164-0.474,2.526-0.632,2.985-0.632
			c0.702,0,1.27,0.568,1.27,1.269c0,0.701-0.567,1.27-1.27,1.27c-0.326,0-1.718,0.199-2.418,0.637
			C139.301,162.73,138.753,163.073,138.163,163.073z"/>
	</g>
	<path opacity="0.3" fill="#FFFFFF" d="M198.892,164.237V21.921c0-3.449-2.796-6.244-6.244-6.244H23.72l174.96,150.157
		C198.814,165.324,198.892,164.79,198.892,164.237z"/>
	<g>
		<circle cx="157.197" cy="307.834" r="1.619"/>
		<circle cx="169.525" cy="306.117" r="1.619"/>
		<circle cx="182.027" cy="304.176" r="1.62"/>
		<circle cx="194.527" cy="301.766" r="1.619"/>
		<circle cx="163.361" cy="313.083" r="1.619"/>
		<circle cx="175.812" cy="311.292" r="1.619"/>
		<circle cx="188.265" cy="309.178" r="1.619"/>
		<circle cx="163.361" cy="300.764" r="1.619"/>
		<circle cx="175.812" cy="298.898" r="1.619"/>
		<circle cx="188.265" cy="296.933" r="1.619"/>
		<circle cx="200.74" cy="306.62" r="1.619"/>
		<circle cx="157.197" cy="320.163" r="1.619"/>
		<circle cx="169.525" cy="318.543" r="1.619"/>
		<circle cx="182.027" cy="316.43" r="1.62"/>
		<circle cx="194.527" cy="314.135" r="1.619"/>
		<circle cx="163.361" cy="325.542" r="1.619"/>
		<circle cx="175.689" cy="323.62" r="1.619"/>
		<circle cx="188.265" cy="321.588" r="1.619"/>
		<circle cx="200.74" cy="318.972" r="1.619"/>
		<circle cx="157.197" cy="332.491" r="1.619"/>
		<circle cx="169.525" cy="330.872" r="1.619"/>
		<circle cx="182.027" cy="329.03" r="1.62"/>
		<circle cx="194.527" cy="326.521" r="1.619"/>
		<circle cx="163.361" cy="338.012" r="1.619"/>
		<circle cx="175.689" cy="336.245" r="1.619"/>
		<circle cx="188.265" cy="334.082" r="1.619"/>
		<circle cx="200.74" cy="331.474" r="1.619"/>
		<circle cx="169.525" cy="343.373" r="1.619"/>
		<circle cx="182.027" cy="341.407" r="1.62"/>
		<circle cx="194.527" cy="338.947" r="1.619"/>
	</g>
</g>
</svg>
