<?xml version="1.0" encoding="utf-8"?>
<!-- Generator: Adobe Illustrator 15.1.0, SVG Export Plug-In . SVG Version: 6.00 Build 0)  -->
<!DOCTYPE svg PUBLIC "-//W3C//DTD SVG 1.0//EN" "http://www.w3.org/TR/2001/REC-SVG-20010904/DTD/svg10.dtd">
<svg version="1.0" id="Layer_1" xmlns="http://www.w3.org/2000/svg" xmlns:xlink="http://www.w3.org/1999/xlink" x="0px" y="0px"
	 width="216px" height="90.676px" viewBox="0 0 216 90.676" enable-background="new 0 0 216 90.676" xml:space="preserve">
<polygon fill="#414042" points="96.624,31.707 113.198,31.707 114.155,25.89 103.731,25.89 104.865,19.068 113.926,19.068 
	114.882,13.26 105.827,13.26 106.923,6.651 117.328,6.651 118.254,0.981 101.697,0.981 "/>
<g>
	<defs>
		<rect id="SVGID_1_" width="216" height="90.676"/>
	</defs>
	<clipPath id="SVGID_2_">
		<use xlink:href="#SVGID_1_"  overflow="visible"/>
	</clipPath>
	<path clip-path="url(#SVGID_2_)" fill="#414042" d="M49.773,16.941l3.073-6.936l1.17,6.936H49.773z M87.303,0.981l-7.495,16.708
		L76.189,0.981h-5.815l-8.438,25.938l-4.09-25.938h-7.31L39.206,25.814l1.04-8.874H28.883v5.67h4.351l-0.192,2.73
		c0,0-1.487,1.204-4.654,1.146c-4.039-0.072-7.966-3.163-7.608-8.949c0.373-6.041,6.713-11.412,13.798-11.484
		c4.576-0.052,6.784,1.266,6.784,1.266V1.506c0,0-0.445-1.506-6.412-1.506c-9.966,0-20.052,7.941-20.061,18.134
		c-0.007,7.982,5.371,14.17,13.924,13.772c4.706-0.216,7.407-1.588,8.822-2.656l-1.12,2.456h6.713l4.032-9.096h7.709l1.535,9.096
		h3.877h2.312h4.176l5.395-17.651l4.224,17.651h3.877l8.566-19.143l0.535,19.143h5.963L94.164,0.981H87.303z"/>
	<path clip-path="url(#SVGID_2_)" fill="#414042" d="M168.298,18.069c-1.347,5.241-5.446,8.716-9.157,7.762
		c-3.708-0.954-5.626-5.975-4.273-11.213c1.351-5.244,5.446-8.716,9.158-7.762C167.733,7.81,169.649,12.835,168.298,18.069
		 M165.51,1.087c-6.795-1.75-14.053,3.663-16.227,12.094c-2.169,8.424,1.584,16.67,8.376,18.419
		c6.791,1.746,14.056-3.663,16.221-12.09C176.051,11.086,172.305,2.837,165.51,1.087"/>
</g>
<polygon fill="#414042" points="189.029,0.981 182.771,11.419 178.286,0.981 171.729,0.981 178.918,16.094 177.018,31.707 
	182.91,31.707 184.701,17.836 195.965,0.981 "/>
<g>
	<defs>
		<rect id="SVGID_3_" width="216" height="90.676"/>
	</defs>
	<clipPath id="SVGID_4_">
		<use xlink:href="#SVGID_3_"  overflow="visible"/>
	</clipPath>
	<path clip-path="url(#SVGID_4_)" fill="#414042" d="M132.506,19.064h4.84c2.878,0.114,3.777,1.208,3.777,3.396
		c0,2.041-1.026,3.43-4.189,3.43h-5.556L132.506,19.064z M138.237,6.651c2.085,0,3.283,0.991,3.231,2.981
		c-0.051,2.24-1.193,3.632-3.279,3.632h-4.721l1.099-6.613H138.237z M147.883,8.935c0-5.766-3.677-7.954-7.059-7.954H129.34
		l-5.073,30.726h13.473c4.478,0,9.351-3.231,9.351-9.096s-3.93-6.665-3.93-6.665S147.883,14.705,147.883,8.935"/>
	<path clip-path="url(#SVGID_4_)" fill="#00A1BC" d="M182.745,41.191c-0.182,2.013,0.097,6.376,0.416,10.228
		c6.143-1.577,13.654-5.584,15.38-8.27c-1.173-0.552-3.009-1.166-3.934-1.475c-4.604-1.54-10.366-1.279-11.734-0.552L182.745,41.191
		z M209.515,87.809c-1.503,0-3.012-0.518-4.241-1.581c-0.15-0.134-15.27-13.22-19.787-16.993c-0.433-0.36-0.854-0.689-1.267-0.991
		c0.05,7.361-0.523,12.534-0.562,12.845c-0.4,3.557-3.614,6.116-7.168,5.708c-3.553-0.397-6.108-3.604-5.707-7.162
		c0.007-0.096,1.08-9.94-0.015-21.342c-1.838-19.202-1.995-24.391,5.831-28.514l0.207-0.114c5.724-3.028,15.558-2.407,21.911-0.284
		c4.346,1.451,9.751,3.258,12.135,8.259c0.94,1.979,1.715,5.245,0.086,9.573c-2.232,5.92-8.933,10.472-15.491,13.466
		c5.746,4.871,17.751,15.261,18.311,15.748c2.706,2.342,3.002,6.434,0.662,9.141C213.137,87.051,211.332,87.809,209.515,87.809"/>
	<path clip-path="url(#SVGID_4_)" fill="#DC1F40" d="M29.272,90.676c-10.112,0-17.304-2.106-22.208-6.424
		C2.375,80.122,0,74.103,0,66.358c0-16.297,18.992-38.746,32.774-38.746c6.39,0,9.947,2.48,11.81,4.562
		c3.453,3.862,3.144,8.393,3.047,9.265c-0.396,3.557-3.6,6.123-7.162,5.721c-3.291-0.366-5.729-3.138-5.759-6.369
		c-0.355-0.103-0.984-0.212-1.937-0.212c-4.457,0-19.812,14.632-19.812,25.78c0,5.21,1.522,7.158,2.672,8.167
		c2.511,2.213,8.841,4.421,24.751,2.394c3.535-0.452,6.797,2.062,7.246,5.612c0.455,3.553-2.058,6.798-5.608,7.248
		C37.334,90.375,33.095,90.676,29.272,90.676"/>
	<path clip-path="url(#SVGID_4_)" fill="#622D91" d="M70.12,51.132c-0.249,0-0.5,0.017-0.744,0.048
		c-4.347,0.556-8.45,2.98-11.252,6.654c-2.352,3.084-3.458,6.593-3.029,9.636c0.985,6.98,7.788,7.734,10.668,7.734
		c1.032,0,2.107-0.092,3.193-0.267c7.217-1.17,11.115-6.14,10.427-13.292C78.763,55.151,74.094,51.132,70.12,51.132 M65.763,88.163
		c-12.465,0-21.911-7.591-23.501-18.89c-0.911-6.448,1.117-13.483,5.56-19.304c4.89-6.408,12.146-10.653,19.912-11.645
		c0.788-0.104,1.592-0.151,2.387-0.151c11.234,0,20.97,9.762,22.167,22.234c1.35,14.062-7.192,25.042-21.255,27.324
		C69.261,88.018,67.491,88.163,65.763,88.163"/>
	<path clip-path="url(#SVGID_4_)" fill="#F9D308" d="M147.889,52.692c-0.185,0-0.37,0.004-0.555,0.011
		c-4.933,0.192-9.254,2.333-11.861,5.875c-1.855,2.524-2.572,5.478-1.914,7.906c1.499,5.55,4.81,8.366,9.831,8.366
		c1.2,0,2.493-0.162,3.845-0.474c4.621-1.077,12.255-4.25,11.433-13.415C158.08,54.435,151.618,52.692,147.889,52.692
		 M143.39,87.809c-10.952,0-19.305-6.706-22.344-17.939c-1.701-6.294-0.254-13.213,3.985-18.972
		c4.957-6.74,12.904-10.805,21.802-11.145c0.351-0.014,0.707-0.02,1.056-0.02c12.682,0,22.643,8.438,23.688,20.065
		c1.207,13.429-6.997,23.849-21.406,27.2C147.855,87.535,145.571,87.809,143.39,87.809"/>
	<path clip-path="url(#SVGID_4_)" fill="#8EC23F" d="M101.006,90.204c-1.19,0-2.417-0.271-3.643-0.951
		c-4.306-2.387-4.306-6.798-4.306-12.386c0-3.842-0.611-11.651-1.144-18.55c-0.232-2.936-0.455-5.766-0.619-8.201
		c-0.466-6.764-2.708-11.312-2.729-11.357c-1.645-3.179-0.389-7.073,2.789-8.716c3.178-1.643,7.102-0.377,8.747,2.799
		c0.354,0.686,3.473,6.963,4.126,16.382c0.165,2.401,0.383,5.193,0.607,8.091c0.479,6.116,0.966,12.407,1.129,16.876
		c5.945-2.422,12.902-3.228,15.248-3.228c3.581,0,6.482,2.902,6.482,6.479c0,3.581-2.901,6.479-6.482,6.479
		c-1.664,0-8.773,1.016-12.348,3.255C106.818,88.454,104.023,90.204,101.006,90.204"/>
</g>
</svg>
