<?xml version="1.0" encoding="utf-8"?>
<!-- Generator: Adobe Illustrator 15.1.0, SVG Export Plug-In . SVG Version: 6.00 Build 0)  -->
<!DOCTYPE svg PUBLIC "-//W3C//DTD SVG 1.0//EN" "http://www.w3.org/TR/2001/REC-SVG-20010904/DTD/svg10.dtd">
<svg version="1.0" id="Layer_1" xmlns="http://www.w3.org/2000/svg" xmlns:xlink="http://www.w3.org/1999/xlink" x="0px" y="0px"
	 width="144px" height="61.229px" viewBox="0 0 144 61.229" enable-background="new 0 0 144 61.229" xml:space="preserve">
<path fill="#DC2041" d="M93.064,52.395H67.787v8.834h25.278V52.395z M101.565,52.395V8.785h-8.501V0H76.209v8.832h16.855v17.37
	H76.193V8.785H67.69v17.417v8.832h8.503h16.871v17.361H101.565z"/>
<path fill="#DC2041" d="M135.492,52.395h-25.274v8.834h25.274V52.395z M144,52.395V8.785h-8.508V0h-16.848v8.832h16.848v17.37
	h-16.864V8.785h-8.5v17.417v8.832h8.5h16.864v17.361H144z"/>
<polygon fill="#DC2041" points="33.798,0 33.798,8.646 25.406,8.646 25.406,0 8.482,0 8.482,8.499 0,8.499 0,34.89 8.482,34.89 
	8.482,43.64 16.904,43.64 16.904,52.581 25.344,52.581 25.344,61.229 33.85,61.229 33.85,52.581 42.299,52.581 42.299,43.64 
	50.807,43.64 50.807,34.89 59.266,34.89 59.266,8.499 50.807,8.499 50.807,0 "/>
</svg>
