<?xml version="1.0" encoding="utf-8"?>
<!-- Generator: Adobe Illustrator 15.1.0, SVG Export Plug-In . SVG Version: 6.00 Build 0)  -->
<!DOCTYPE svg PUBLIC "-//W3C//DTD SVG 1.0//EN" "http://www.w3.org/TR/2001/REC-SVG-20010904/DTD/svg10.dtd">
<svg version="1.0" id="Layer_1" xmlns="http://www.w3.org/2000/svg" xmlns:xlink="http://www.w3.org/1999/xlink" x="0px" y="0px"
	 width="216.225px" height="363.927px" viewBox="0 0 216.225 363.927" enable-background="new 0 0 216.225 363.927"
	 xml:space="preserve">
<g>
	<path fill="#622D91" d="M216.225,8.851c0-5.176-4.196-9.372-9.372-9.372H9.372C4.196-0.521,0,3.675,0,8.851v322.546l0,0v0.001
		c0,8.449,4.32,15.888,10.868,20.236l-0.001,0.002c0,0,12.142,11.771,98.648,11.771c54.448,0,78.612-4.979,89.045-8.668
		c10.163-2.899,17.606-12.248,17.606-23.341v-0.001h0.058V8.851z"/>
	<path opacity="0.08" fill="#FFFFFF" d="M181.612-0.521h-147v309.135l0,0l0,0c0,5.745,2.937,10.802,7.389,13.758L42,322.374
		c0,0,8.255,4.395,67.066,4.395c37.016,0,53.443,0.223,60.536-2.285c6.91-1.972,11.97-8.327,11.97-15.869v-3.607h0.04V-0.521z"/>
	<circle fill="#333334" cx="145.341" cy="243.831" r="13.392"/>
	<circle fill="#333334" cx="184.924" cy="231.628" r="13.393"/>
	<path fill="#333334" d="M66.93,227.855H53.24v-13.69c0-1.505-1.22-2.725-2.725-2.725H37.023c-1.504,0-2.725,1.22-2.725,2.725v13.69
		h-13.69c-1.505,0-2.725,1.22-2.725,2.725v13.492c0,1.504,1.22,2.725,2.725,2.725h13.69v13.689c0,1.505,1.22,2.725,2.725,2.725
		h13.492c1.505,0,2.725-1.22,2.725-2.725v-13.689h13.69c1.505,0,2.725-1.221,2.725-2.725V230.58
		C69.655,229.075,68.435,227.855,66.93,227.855z"/>
	<path d="M97.157,296.333h-12.83c-1.771,0-3.208,1.436-3.208,3.207s1.436,3.208,3.208,3.208h12.83c1.771,0,3.208-1.437,3.208-3.208
		S98.929,296.333,97.157,296.333z"/>
	<path d="M129.563,296.333h-12.83c-1.771,0-3.208,1.436-3.208,3.207s1.437,3.208,3.208,3.208h12.83c1.771,0,3.208-1.437,3.208-3.208
		S131.335,296.333,129.563,296.333z"/>
	<circle fill="#414042" cx="43.819" cy="237.326" r="5.224"/>
	<path fill="#414042" d="M48.627,251.271l-0.002-0.003c0.034-0.096,0.056-0.195,0.056-0.302c0-0.492-0.4-0.893-0.893-0.893h-7.937
		c-0.493,0-0.893,0.4-0.893,0.893c0,0.12,0.024,0.233,0.067,0.338h0l0.001,0.003c0.023,0.056,0.052,0.109,0.085,0.159l3.885,7.284
		c0.135,0.322,0.453,0.55,0.824,0.55c0.349,0,0.648-0.203,0.795-0.496h0.001l3.899-7.322c0.043-0.061,0.078-0.126,0.105-0.196
		L48.627,251.271z"/>
	<path fill="#414042" d="M39.011,223.38l0.002,0.003c-0.034,0.095-0.056,0.195-0.056,0.301c0,0.493,0.4,0.894,0.893,0.894h7.937
		c0.493,0,0.893-0.4,0.893-0.894c0-0.119-0.024-0.233-0.067-0.337v-0.001l-0.001-0.003c-0.023-0.056-0.052-0.108-0.085-0.158
		l-3.885-7.285c-0.135-0.322-0.453-0.549-0.824-0.549c-0.35,0-0.648,0.202-0.795,0.495h0l-3.9,7.322
		c-0.043,0.061-0.077,0.127-0.104,0.197L39.011,223.38z"/>
	<path fill="#414042" d="M57.765,232.517l-0.003,0.002c-0.095-0.033-0.196-0.056-0.302-0.056c-0.493,0-0.893,0.4-0.893,0.894v7.938
		c0,0.492,0.4,0.892,0.893,0.892c0.12,0,0.233-0.024,0.337-0.066h0l0.003-0.001c0.056-0.023,0.109-0.052,0.159-0.085l7.285-3.885
		c0.322-0.135,0.549-0.453,0.549-0.824c0-0.349-0.203-0.647-0.495-0.795l0,0l-7.323-3.9c-0.061-0.043-0.126-0.077-0.196-0.104
		L57.765,232.517z"/>
	<path fill="#414042" d="M29.874,242.133l0.003-0.002c0.095,0.034,0.196,0.055,0.302,0.055c0.493,0,0.893-0.399,0.893-0.892v-7.938
		c0-0.493-0.4-0.894-0.893-0.894c-0.12,0-0.233,0.024-0.337,0.067h0l-0.003,0.001c-0.056,0.022-0.109,0.052-0.159,0.085
		l-7.284,3.885c-0.323,0.135-0.549,0.453-0.549,0.823c0,0.35,0.203,0.648,0.495,0.796l0,0l7.324,3.9
		c0.06,0.043,0.126,0.077,0.196,0.104L29.874,242.133z"/>
	<g>
		<path fill="#414042" d="M142.388,250.487h-3.274v-12.32h3.098c1.954,0,3.415,0.968,3.415,3.256c0,1.003-0.458,2.095-1.443,2.552
			c1.038,0.37,1.655,1.461,1.655,2.799C145.838,249.238,144.429,250.487,142.388,250.487z M142.264,239.838h-1.443v3.345h1.408
			c0.916,0,1.638-0.528,1.638-1.708C143.866,240.26,143.196,239.838,142.264,239.838z M142.193,244.837h-1.373v3.978h1.55
			c1.038,0,1.707-0.563,1.707-2.042C144.077,245.4,143.268,244.837,142.193,244.837z"/>
	</g>
	<g>
		<path fill="#414042" d="M184.629,238.384l-0.722-3.256h-2.675l-0.705,3.256h-1.83l3.027-12.321h1.778l3.01,12.321H184.629z
			 M183.098,231.415c-0.176-0.81-0.44-2.236-0.528-2.693c-0.088,0.457-0.352,1.865-0.527,2.693l-0.458,2.077h1.972L183.098,231.415z
			"/>
	</g>
	<path d="M196.163,12.732H19.58c-3.577,0-6.477,2.9-6.477,6.477v147.616c0,3.409,2.637,6.197,5.981,6.451v0.025
		c0,0,29.43,5.493,88.787,5.493c59.358,0,88.788-5.493,88.788-5.493v-0.025c3.344-0.254,5.981-3.042,5.981-6.451V19.209
		C202.641,15.632,199.74,12.732,196.163,12.732z"/>
	<path fill="#333334" d="M23.796,15.455h-1.321c-3.459,0-6.265,2.805-6.265,6.265v142.774c0,3.298,2.551,5.995,5.786,6.24v0.025
		c0,0,28.464,5.313,85.875,5.313c57.412,0,85.876-5.313,85.876-5.313v-0.025c2.69-0.203,4.902-2.106,5.571-4.638L23.796,15.455z"/>
	<rect x="45.802" y="34.288" fill="#DCDDDE" width="124.335" height="106.876"/>
	<g>
		<path fill="#414042" d="M19.58,71.268h1.185c0.184,0,0.36,0.018,0.527,0.054c0.167,0.036,0.316,0.096,0.446,0.18
			c0.13,0.085,0.233,0.198,0.31,0.339c0.078,0.141,0.116,0.315,0.116,0.521c0,0.218-0.042,0.399-0.124,0.542
			c-0.083,0.143-0.189,0.256-0.319,0.338c-0.129,0.083-0.271,0.141-0.426,0.175c-0.154,0.034-0.301,0.051-0.44,0.051h-0.801v1.794
			H19.58V71.268z M20.054,73.028h0.801c0.237,0,0.43-0.053,0.578-0.161c0.148-0.107,0.223-0.273,0.223-0.5
			c0-0.225-0.074-0.392-0.223-0.499c-0.148-0.107-0.341-0.161-0.578-0.161h-0.801V73.028z"/>
		<path fill="#414042" d="M24.668,75.364c-0.305,0-0.583-0.053-0.837-0.158s-0.474-0.251-0.66-0.437
			c-0.186-0.186-0.331-0.408-0.435-0.666c-0.104-0.258-0.155-0.537-0.155-0.838s0.051-0.58,0.155-0.838s0.249-0.479,0.435-0.666
			c0.187-0.186,0.406-0.332,0.66-0.438c0.254-0.105,0.533-0.158,0.837-0.158s0.584,0.053,0.838,0.158
			c0.254,0.105,0.474,0.251,0.66,0.438s0.331,0.408,0.435,0.666c0.103,0.258,0.155,0.537,0.155,0.838s-0.052,0.58-0.155,0.838
			c-0.104,0.257-0.249,0.479-0.435,0.666s-0.406,0.332-0.66,0.437S24.973,75.364,24.668,75.364z M24.668,74.924
			c0.233,0,0.447-0.043,0.64-0.13c0.194-0.087,0.36-0.205,0.5-0.355c0.14-0.151,0.248-0.326,0.324-0.528
			c0.078-0.201,0.116-0.416,0.116-0.646s-0.038-0.445-0.116-0.646c-0.077-0.201-0.185-0.377-0.324-0.527
			c-0.139-0.15-0.306-0.27-0.5-0.355c-0.193-0.086-0.407-0.13-0.64-0.13c-0.233,0-0.446,0.043-0.64,0.13
			c-0.194,0.086-0.36,0.205-0.499,0.355s-0.247,0.326-0.324,0.527s-0.116,0.417-0.116,0.646s0.039,0.445,0.116,0.646
			c0.077,0.202,0.185,0.377,0.324,0.528c0.139,0.15,0.305,0.269,0.499,0.355C24.222,74.88,24.435,74.924,24.668,74.924z"/>
		<path fill="#414042" d="M26.941,71.268h0.525l0.909,3.317h0.011l0.982-3.317h0.53l0.977,3.317h0.011l0.925-3.317h0.497
			l-1.173,3.994H30.62l-0.987-3.385h-0.011l-0.993,3.385h-0.519L26.941,71.268z"/>
		<path fill="#414042" d="M32.836,71.268h2.51v0.44h-2.036v1.252h1.901v0.44h-1.901v1.421h2.138v0.44h-2.612V71.268z"/>
		<path fill="#414042" d="M36.182,71.268h1.021c0.192,0,0.382,0.011,0.572,0.034c0.19,0.022,0.36,0.071,0.511,0.146
			s0.272,0.185,0.367,0.33c0.094,0.145,0.141,0.341,0.141,0.589c0,0.294-0.088,0.531-0.265,0.711
			c-0.177,0.18-0.421,0.295-0.733,0.344l1.134,1.839h-0.581l-1.083-1.794h-0.609v1.794h-0.474V71.268z M36.655,73.028h0.423
			c0.131,0,0.268-0.003,0.409-0.011c0.141-0.007,0.271-0.032,0.389-0.073c0.119-0.042,0.216-0.106,0.293-0.194
			s0.116-0.215,0.116-0.381c0-0.143-0.028-0.257-0.085-0.344c-0.056-0.086-0.13-0.153-0.223-0.2
			c-0.092-0.047-0.195-0.078-0.31-0.093s-0.23-0.022-0.347-0.022h-0.666V73.028z"/>
	</g>
	<circle fill="#CE181E" cx="21.068" cy="64.446" r="2.91"/>
	<path fill="#414042" d="M37.592,61.9c0.558,0.698,0.894,1.583,0.894,2.546s-0.336,1.848-0.894,2.546
		c1.165-0.263,2.035-1.302,2.035-2.546S38.756,62.163,37.592,61.9z"/>
	<path fill="#414042" d="M32.459,61.845c0.583,0.707,0.934,1.612,0.934,2.601c0,0.988-0.351,1.894-0.934,2.6
		c1.33-0.121,2.373-1.238,2.373-2.6S33.789,61.967,32.459,61.845z"/>
	<path fill="#414042" d="M26.879,61.833c-0.022,0-0.044,0.003-0.067,0.003c0.589,0.708,0.943,1.617,0.943,2.609
		s-0.354,1.901-0.943,2.609c0.022,0,0.044,0.003,0.067,0.003c1.443,0,2.612-1.169,2.612-2.612S28.322,61.833,26.879,61.833z"/>
	<g>
		<polygon fill="#414042" points="82.649,162.565 88.347,162.565 88.677,160.565 85.093,160.565 85.482,158.218 88.599,158.218 
			88.928,156.222 85.813,156.222 86.19,153.948 89.77,153.948 90.086,152 84.393,152 		"/>
		<path fill="#414042" d="M79.443,152l-2.577,5.746L75.623,152h-2l-2.901,8.92L69.314,152H66.8l-3.896,8.539l0.358-3.051h-3.907
			v1.949h1.497l-0.067,0.939c0,0-0.51,0.414-1.6,0.395c-1.388-0.025-2.738-1.088-2.616-3.077c0.128-2.077,2.308-3.924,4.745-3.95
			c1.574-0.016,2.333,0.436,2.333,0.436v-2c0,0-0.154-0.517-2.206-0.517c-3.427,0-6.896,2.729-6.898,6.236
			c-0.002,2.744,1.846,4.873,4.788,4.736c1.619-0.075,2.548-0.548,3.034-0.912l-0.385,0.843h2.309l1.387-3.129h2.651l0.527,3.129
			h1.333h0.795h1.436l1.854-6.069l1.454,6.069h1.333l2.945-6.583l0.184,6.583h2.052L81.803,152H79.443z M66.539,157.487l1.057-2.385
			l0.401,2.385H66.539z"/>
		<path fill="#414042" d="M106.337,152.036c-2.336-0.601-4.833,1.26-5.58,4.158c-0.745,2.897,0.544,5.733,2.88,6.334
			c2.334,0.601,4.833-1.261,5.579-4.158S108.672,152.638,106.337,152.036z M107.296,157.876c-0.464,1.802-1.874,2.996-3.149,2.668
			s-1.934-2.055-1.471-3.856c0.465-1.802,1.875-2.997,3.15-2.668C107.101,154.348,107.76,156.075,107.296,157.876z"/>
		<polygon fill="#414042" points="114.424,152 112.271,155.589 110.731,152 108.475,152 110.947,157.197 110.295,162.565 
			112.321,162.565 112.937,157.795 116.809,152 		"/>
		<path fill="#414042" d="M100.275,154.734c0-1.983-1.264-2.735-2.427-2.735h-3.949l-1.744,10.565h4.633
			c1.54,0,3.215-1.111,3.215-3.129c0-2.017-1.351-2.291-1.351-2.291S100.275,156.718,100.275,154.734z M96.959,153.948
			c0.716,0,1.128,0.342,1.111,1.026c-0.019,0.77-0.411,1.248-1.128,1.248h-1.623l0.377-2.274H96.959z M94.988,158.218h1.664
			c0.991,0.038,1.299,0.414,1.299,1.166c0,0.702-0.352,1.181-1.441,1.181h-1.912L94.988,158.218z"/>
	</g>
	<g>
		<path fill="#00A2BC" d="M159.927,163.515c-0.295,0-0.592-0.102-0.832-0.311c-0.031-0.025-3.002-2.598-3.889-3.339
			c-0.085-0.071-0.168-0.136-0.248-0.195c0.009,1.446-0.104,2.464-0.111,2.524c-0.079,0.698-0.711,1.202-1.408,1.122
			c-0.698-0.079-1.2-0.709-1.122-1.407l0,0c0.002-0.02,0.213-1.953-0.002-4.194c-0.361-3.771-0.393-4.792,1.146-5.602l0.041-0.022
			c1.124-0.594,3.057-0.473,4.304-0.056c0.854,0.285,1.917,0.641,2.385,1.623c0.185,0.389,0.338,1.03,0.018,1.88
			c-0.439,1.164-1.756,2.058-3.044,2.646c1.129,0.957,3.487,2.998,3.598,3.094c0.531,0.46,0.59,1.265,0.13,1.797
			C160.639,163.367,160.284,163.515,159.927,163.515z M154.668,154.356c-0.035,0.396,0.019,1.253,0.081,2.009
			c1.208-0.31,2.684-1.097,3.022-1.625c-0.23-0.108-0.592-0.228-0.773-0.289c-0.904-0.303-2.036-0.251-2.306-0.109L154.668,154.356z
			"/>
		<path fill="#DC1F40" d="M124.515,163.419c-1.987,0-3.4-0.414-4.363-1.263c-0.922-0.812-1.388-1.994-1.388-3.516
			c0-3.202,3.73-7.612,6.438-7.612c1.255,0,1.954,0.487,2.32,0.896c0.678,0.759,0.617,1.649,0.599,1.82
			c-0.077,0.699-0.707,1.204-1.407,1.125c-0.646-0.072-1.125-0.617-1.132-1.251c-0.069-0.02-0.193-0.042-0.38-0.042
			c-0.876,0-3.893,2.875-3.893,5.065c0,1.024,0.3,1.406,0.524,1.604c0.493,0.435,1.737,0.869,4.863,0.471
			c0.694-0.089,1.335,0.405,1.424,1.103c0.09,0.698-0.404,1.335-1.103,1.424C126.098,163.361,125.266,163.419,124.515,163.419z"/>
		<path fill="#622D91" d="M131.684,162.925c-2.449,0-4.305-1.491-4.617-3.711c-0.179-1.267,0.219-2.649,1.092-3.793
			c0.961-1.259,2.387-2.093,3.912-2.288c0.155-0.02,0.312-0.03,0.47-0.03c2.208,0,4.12,1.918,4.355,4.369
			c0.265,2.763-1.414,4.92-4.177,5.368C132.371,162.897,132.022,162.925,131.684,162.925z M132.54,155.65
			c-0.05,0-0.099,0.003-0.146,0.01c-0.854,0.108-1.66,0.585-2.211,1.307c-0.462,0.605-0.679,1.295-0.595,1.892
			c0.193,1.372,1.53,1.521,2.096,1.521c0.203,0,0.414-0.018,0.627-0.053c1.418-0.229,2.184-1.206,2.05-2.612
			C134.237,156.44,133.319,155.65,132.54,155.65z"/>
		<path fill="#F9D308" d="M146.936,162.856c-2.152,0-3.793-1.317-4.391-3.524c-0.335-1.237-0.049-2.595,0.783-3.728
			c0.975-1.325,2.535-2.123,4.284-2.19c0.068-0.002,0.139-0.004,0.208-0.004c2.49,0,4.448,1.658,4.653,3.943
			c0.236,2.638-1.375,4.686-4.206,5.344C147.812,162.802,147.365,162.856,146.936,162.856z M147.82,155.957
			c-0.037,0-0.074,0.001-0.111,0.002c-0.969,0.038-1.817,0.458-2.328,1.154c-0.366,0.496-0.506,1.077-0.377,1.554
			c0.295,1.09,0.945,1.643,1.932,1.643c0.235,0,0.49-0.031,0.756-0.093c0.908-0.211,2.407-0.834,2.245-2.635
			C149.821,156.299,148.552,155.957,147.82,155.957z"/>
		<path fill="#8DC13E" d="M138.608,163.327c-0.234,0-0.476-0.054-0.717-0.188c-0.845-0.469-0.845-1.335-0.845-2.433
			c0-0.755-0.12-2.29-0.226-3.645c-0.045-0.577-0.089-1.133-0.121-1.611c-0.093-1.33-0.532-2.223-0.537-2.231
			c-0.322-0.625-0.076-1.389,0.55-1.712c0.623-0.323,1.394-0.075,1.717,0.55c0.069,0.135,0.684,1.368,0.811,3.219
			c0.033,0.471,0.075,1.02,0.119,1.589c0.094,1.203,0.19,2.439,0.223,3.316c1.168-0.476,2.534-0.634,2.996-0.634
			c0.703,0,1.273,0.57,1.273,1.272c0,0.704-0.57,1.274-1.273,1.274c-0.327,0-1.725,0.199-2.427,0.639
			C139.75,162.983,139.2,163.327,138.608,163.327z"/>
	</g>
	<path opacity="0.3" fill="#FFFFFF" d="M199.533,164.494V21.719c0-3.46-2.806-6.265-6.266-6.265H23.796l175.523,150.642
		C199.455,165.584,199.533,165.048,199.533,164.494z"/>
	<g>
		<circle cx="157.705" cy="308.554" r="1.625"/>
		<circle cx="170.072" cy="306.831" r="1.625"/>
		<circle cx="182.613" cy="304.884" r="1.625"/>
		<circle cx="195.155" cy="302.465" r="1.625"/>
		<circle cx="163.888" cy="313.821" r="1.625"/>
		<circle cx="176.379" cy="312.023" r="1.625"/>
		<circle cx="188.872" cy="309.902" r="1.625"/>
		<circle cx="163.888" cy="301.462" r="1.625"/>
		<circle cx="176.379" cy="299.589" r="1.625"/>
		<circle cx="188.872" cy="297.618" r="1.625"/>
		<circle cx="201.388" cy="307.335" r="1.624"/>
		<circle cx="157.705" cy="320.922" r="1.625"/>
		<circle cx="170.072" cy="319.297" r="1.625"/>
		<circle cx="182.613" cy="317.177" r="1.625"/>
		<circle cx="195.155" cy="314.875" r="1.625"/>
		<circle cx="163.888" cy="326.32" r="1.625"/>
		<circle cx="176.256" cy="324.39" r="1.624"/>
		<circle cx="188.872" cy="322.352" r="1.625"/>
		<circle cx="201.388" cy="319.728" r="1.624"/>
		<circle cx="157.705" cy="333.29" r="1.625"/>
		<circle cx="170.072" cy="331.666" r="1.625"/>
		<circle cx="182.613" cy="329.818" r="1.625"/>
		<circle cx="195.155" cy="327.3" r="1.625"/>
		<circle cx="163.888" cy="338.829" r="1.625"/>
		<circle cx="176.256" cy="337.056" r="1.624"/>
		<circle cx="188.872" cy="334.885" r="1.625"/>
		<circle cx="201.388" cy="332.269" r="1.624"/>
		<circle cx="170.072" cy="344.207" r="1.625"/>
		<circle cx="182.613" cy="342.235" r="1.625"/>
		<circle cx="195.155" cy="339.767" r="1.625"/>
	</g>
</g>
</svg>
