<?xml version="1.0" encoding="utf-8"?>
<!-- Generator: Adobe Illustrator 15.1.0, SVG Export Plug-In . SVG Version: 6.00 Build 0)  -->
<!DOCTYPE svg PUBLIC "-//W3C//DTD SVG 1.0//EN" "http://www.w3.org/TR/2001/REC-SVG-20010904/DTD/svg10.dtd">
<svg version="1.0" id="Layer_1" xmlns="http://www.w3.org/2000/svg" xmlns:xlink="http://www.w3.org/1999/xlink" x="0px" y="0px"
	 width="216.225px" height="363.927px" viewBox="0 0 216.225 363.927" enable-background="new 0 0 216.225 363.927"
	 xml:space="preserve">
<g>
	<path fill="#DC1F40" d="M216.225,9.371c0-5.176-4.195-9.372-9.371-9.372H9.371c-5.176,0-9.372,4.196-9.372,9.372v322.55l0,0l0,0
		c0,8.45,4.32,15.889,10.868,20.236l-0.001,0.002c0,0,12.143,11.771,98.65,11.771c54.447,0,78.611-4.978,89.045-8.667
		c10.163-2.899,17.606-12.249,17.606-23.342l0,0h0.058V9.371z"/>
	<path opacity="0.08" fill="#FFFFFF" d="M181.612-0.001H34.611v309.138l0,0l0,0c0,5.745,2.937,10.802,7.389,13.758l0,0.002
		c0,0,8.255,4.395,67.066,4.395c37.016,0,53.444,0.223,60.538-2.285c6.909-1.972,11.97-8.327,11.97-15.869v-3.607h0.039V-0.001z"/>
	<circle fill="#333334" cx="145.341" cy="244.353" r="13.393"/>
	<circle fill="#333334" cx="184.924" cy="232.151" r="13.393"/>
	<path fill="#333334" d="M66.929,228.376h-13.69v-13.689c0-1.505-1.22-2.725-2.725-2.725H37.022c-1.505,0-2.725,1.22-2.725,2.725
		v13.689h-13.69c-1.504,0-2.725,1.221-2.725,2.725v13.492c0,1.505,1.22,2.725,2.725,2.725h13.69v13.69
		c0,1.505,1.22,2.725,2.725,2.725h13.492c1.504,0,2.725-1.22,2.725-2.725v-13.69h13.69c1.505,0,2.725-1.22,2.725-2.725v-13.492
		C69.654,229.597,68.434,228.376,66.929,228.376z"/>
	<path d="M97.157,296.855H84.326c-1.771,0-3.208,1.436-3.208,3.207s1.436,3.208,3.208,3.208h12.831c1.771,0,3.208-1.437,3.208-3.208
		S98.928,296.855,97.157,296.855z"/>
	<path d="M129.563,296.855h-12.83c-1.772,0-3.208,1.436-3.208,3.207s1.436,3.208,3.208,3.208h12.83c1.771,0,3.208-1.437,3.208-3.208
		S131.335,296.855,129.563,296.855z"/>
	<circle fill="#414042" cx="43.818" cy="237.847" r="5.224"/>
	<path fill="#414042" d="M48.626,251.792l-0.002-0.003c0.034-0.095,0.056-0.194,0.056-0.301c0-0.493-0.4-0.894-0.893-0.894H39.85
		c-0.493,0-0.893,0.4-0.893,0.894c0,0.119,0.024,0.233,0.067,0.337v0.001l0.001,0.003c0.023,0.056,0.052,0.108,0.085,0.158
		l3.885,7.285c0.135,0.322,0.453,0.549,0.824,0.549c0.349,0,0.648-0.203,0.795-0.495h0.001l3.899-7.322
		c0.043-0.061,0.078-0.126,0.104-0.197L48.626,251.792z"/>
	<path fill="#414042" d="M39.01,223.902l0.002,0.003c-0.034,0.095-0.056,0.195-0.056,0.301c0,0.493,0.4,0.894,0.893,0.894h7.937
		c0.493,0,0.893-0.4,0.893-0.894c0-0.119-0.024-0.232-0.067-0.337l0-0.001l-0.001-0.002c-0.023-0.056-0.052-0.109-0.085-0.159
		l-3.885-7.285c-0.135-0.322-0.453-0.549-0.824-0.549c-0.349,0-0.648,0.203-0.795,0.495h-0.001l-3.899,7.323
		c-0.043,0.061-0.078,0.126-0.104,0.196L39.01,223.902z"/>
	<path fill="#414042" d="M57.764,233.04l-0.003,0.002c-0.095-0.034-0.195-0.056-0.302-0.056c-0.493,0-0.893,0.399-0.893,0.893v7.938
		c0,0.492,0.4,0.893,0.893,0.893c0.12,0,0.233-0.024,0.337-0.067l0,0.001l0.003-0.001c0.056-0.023,0.109-0.052,0.159-0.085
		l7.285-3.885c0.322-0.136,0.549-0.453,0.549-0.824c0-0.35-0.203-0.648-0.495-0.795v-0.001l-7.323-3.899
		c-0.061-0.043-0.126-0.078-0.196-0.105L57.764,233.04z"/>
	<path fill="#414042" d="M29.873,242.655l0.003-0.002c0.095,0.034,0.195,0.056,0.301,0.056c0.493,0,0.893-0.4,0.893-0.893v-7.938
		c0-0.493-0.4-0.893-0.893-0.893c-0.119,0-0.233,0.024-0.337,0.066h-0.001l-0.003,0.001c-0.056,0.023-0.109,0.052-0.159,0.085
		l-7.285,3.886c-0.322,0.134-0.549,0.452-0.549,0.823c0,0.349,0.202,0.648,0.495,0.795v0.001l7.323,3.899
		c0.061,0.044,0.126,0.078,0.196,0.104L29.873,242.655z"/>
	<g>
		<path fill="#414042" d="M142.387,251.009h-3.273v-12.321h3.098c1.954,0,3.415,0.969,3.415,3.256c0,1.004-0.457,2.095-1.443,2.553
			c1.039,0.37,1.655,1.461,1.655,2.799C145.838,249.759,144.429,251.009,142.387,251.009z M142.264,240.36h-1.443v3.345h1.408
			c0.916,0,1.637-0.528,1.637-1.708C143.865,240.783,143.197,240.36,142.264,240.36z M142.193,245.359h-1.373v3.979h1.55
			c1.037,0,1.706-0.563,1.706-2.042C144.076,245.922,143.268,245.359,142.193,245.359z"/>
	</g>
	<g>
		<path fill="#414042" d="M184.63,238.906l-0.723-3.256h-2.676l-0.703,3.256h-1.831l3.027-12.32h1.778l3.01,12.32H184.63z
			 M183.099,231.936c-0.177-0.81-0.44-2.235-0.529-2.693c-0.087,0.458-0.352,1.866-0.527,2.693l-0.457,2.077h1.971L183.099,231.936z
			"/>
	</g>
	<path d="M196.164,13.251H19.579c-3.577,0-6.477,2.9-6.477,6.477v147.617c0,3.41,2.637,6.198,5.981,6.452v0.025
		c0,0,29.43,5.494,88.788,5.494s88.788-5.494,88.788-5.494v-0.025c3.344-0.254,5.981-3.042,5.981-6.452V19.729
		C202.641,16.151,199.74,13.251,196.164,13.251z"/>
	<path fill="#333334" d="M23.795,15.975h-1.321c-3.459,0-6.265,2.805-6.265,6.264v142.776c0,3.298,2.55,5.995,5.785,6.241v0.024
		c0,0,28.465,5.313,85.876,5.313c57.412,0,85.877-5.313,85.877-5.313v-0.024c2.69-0.205,4.902-2.107,5.571-4.639L23.795,15.975z"/>
	<rect x="45.801" y="34.808" fill="#DCDDDE" width="124.336" height="106.877"/>
	<g>
		<path fill="#414042" d="M19.579,71.789h1.185c0.184,0,0.36,0.018,0.528,0.054c0.167,0.036,0.315,0.096,0.445,0.18
			s0.233,0.197,0.311,0.338s0.115,0.315,0.115,0.522c0,0.218-0.041,0.399-0.124,0.542c-0.083,0.143-0.189,0.256-0.319,0.338
			c-0.129,0.083-0.271,0.142-0.426,0.175s-0.301,0.051-0.44,0.051h-0.801v1.793h-0.474V71.789z M20.053,73.548h0.801
			c0.237,0,0.43-0.054,0.578-0.161s0.223-0.273,0.223-0.5c0-0.226-0.075-0.392-0.223-0.499s-0.341-0.161-0.578-0.161h-0.801V73.548z
			"/>
		<path fill="#414042" d="M24.667,75.884c-0.305,0-0.584-0.053-0.837-0.158c-0.254-0.105-0.474-0.251-0.661-0.437
			c-0.186-0.187-0.331-0.408-0.434-0.666c-0.104-0.257-0.155-0.537-0.155-0.837c0-0.301,0.052-0.58,0.155-0.838
			s0.248-0.479,0.434-0.666c0.187-0.187,0.406-0.332,0.661-0.438c0.253-0.105,0.533-0.158,0.837-0.158s0.584,0.053,0.838,0.158
			c0.253,0.105,0.474,0.251,0.66,0.438c0.187,0.186,0.331,0.408,0.435,0.666s0.155,0.537,0.155,0.838
			c0,0.301-0.051,0.58-0.155,0.837c-0.104,0.258-0.248,0.479-0.435,0.666c-0.186,0.186-0.406,0.332-0.66,0.437
			C25.251,75.831,24.972,75.884,24.667,75.884z M24.667,75.444c0.233,0,0.447-0.043,0.64-0.129c0.194-0.087,0.36-0.205,0.5-0.356
			c0.139-0.15,0.247-0.326,0.324-0.527c0.077-0.201,0.116-0.417,0.116-0.646c0-0.229-0.039-0.445-0.116-0.646
			s-0.185-0.377-0.324-0.527c-0.139-0.15-0.306-0.269-0.5-0.355c-0.193-0.086-0.407-0.13-0.64-0.13c-0.233,0-0.447,0.043-0.64,0.13
			c-0.194,0.086-0.36,0.205-0.5,0.355c-0.139,0.15-0.247,0.326-0.324,0.527s-0.116,0.417-0.116,0.646
			c0,0.229,0.039,0.444,0.116,0.646c0.077,0.202,0.186,0.377,0.324,0.527c0.139,0.151,0.306,0.269,0.5,0.356
			C24.22,75.401,24.434,75.444,24.667,75.444z"/>
		<path fill="#414042" d="M26.94,71.789h0.525l0.908,3.317h0.011l0.981-3.317h0.53l0.976,3.317h0.011l0.925-3.317h0.496
			l-1.173,3.994h-0.513l-0.987-3.384H29.62l-0.993,3.384h-0.519L26.94,71.789z"/>
		<path fill="#414042" d="M32.835,71.789h2.51v0.44h-2.037v1.252h1.901v0.44h-1.901v1.421h2.138v0.44h-2.612V71.789z"/>
		<path fill="#414042" d="M36.181,71.789h1.021c0.192,0,0.382,0.011,0.572,0.034s0.36,0.072,0.511,0.147
			c0.15,0.075,0.272,0.185,0.367,0.33c0.094,0.145,0.141,0.341,0.141,0.589c0,0.293-0.088,0.53-0.265,0.711
			c-0.177,0.18-0.421,0.295-0.734,0.344l1.134,1.839h-0.581l-1.083-1.793h-0.609v1.793h-0.474V71.789z M36.654,73.548h0.423
			c0.131,0,0.268-0.003,0.409-0.011c0.141-0.007,0.271-0.032,0.389-0.073c0.119-0.042,0.216-0.106,0.293-0.194
			c0.077-0.088,0.116-0.215,0.116-0.381c0-0.143-0.028-0.257-0.085-0.344c-0.056-0.086-0.13-0.153-0.223-0.2
			c-0.092-0.047-0.195-0.078-0.31-0.093s-0.23-0.022-0.347-0.022h-0.666V73.548z"/>
	</g>
	<circle fill="#CE181E" cx="21.066" cy="64.966" r="2.91"/>
	<path fill="#414042" d="M37.591,62.42c0.558,0.699,0.894,1.583,0.894,2.546c0,0.963-0.336,1.848-0.894,2.546
		c1.164-0.263,2.035-1.302,2.035-2.546C39.625,63.722,38.755,62.684,37.591,62.42z"/>
	<path fill="#414042" d="M32.458,62.366c0.584,0.707,0.935,1.612,0.935,2.601c0,0.988-0.351,1.894-0.935,2.6
		c1.331-0.121,2.373-1.238,2.373-2.6S33.788,62.487,32.458,62.366z"/>
	<path fill="#414042" d="M26.878,62.354c-0.022,0-0.044,0.003-0.066,0.003c0.588,0.708,0.943,1.617,0.943,2.609
		c0,0.992-0.354,1.901-0.943,2.609c0.022,0,0.044,0.003,0.066,0.003c1.443,0,2.612-1.17,2.612-2.612
		C29.49,63.523,28.321,62.354,26.878,62.354z"/>
	<g>
		<polygon fill="#414042" points="82.648,163.086 88.346,163.086 88.677,161.086 85.092,161.086 85.482,158.739 88.598,158.739 
			88.927,156.744 85.813,156.744 86.19,154.47 89.769,154.47 90.086,152.521 84.393,152.521 		"/>
		<path fill="#414042" d="M79.443,152.521l-2.577,5.746l-1.244-5.746h-2l-2.901,8.92l-1.407-8.92h-2.514l-3.896,8.54l0.358-3.051
			h-3.907v1.949h1.497l-0.067,0.939c0,0-0.51,0.414-1.6,0.394c-1.388-0.025-2.738-1.088-2.616-3.077
			c0.128-2.078,2.308-3.924,4.745-3.95c1.574-0.016,2.333,0.436,2.333,0.436v-2c0,0-0.154-0.516-2.205-0.516
			c-3.427,0-6.896,2.729-6.898,6.235c-0.002,2.744,1.847,4.873,4.788,4.736c1.619-0.075,2.548-0.547,3.034-0.912l-0.385,0.843h2.308
			l1.387-3.128h2.651l0.527,3.128h1.333h0.795h1.436l1.855-6.069l1.454,6.069h1.333l2.945-6.583l0.184,6.583h2.051l-0.436-10.566
			H79.443z M66.538,158.009l1.057-2.385l0.401,2.385H66.538z"/>
		<path fill="#414042" d="M106.336,152.557c-2.336-0.601-4.833,1.26-5.58,4.158c-0.745,2.897,0.544,5.733,2.88,6.334
			c2.334,0.601,4.833-1.261,5.578-4.158C109.961,155.994,108.672,153.159,106.336,152.557z M107.295,158.397
			c-0.463,1.802-1.874,2.997-3.149,2.668s-1.934-2.055-1.471-3.857c0.465-1.802,1.875-2.997,3.15-2.668
			C107.101,154.87,107.76,156.596,107.295,158.397z"/>
		<polygon fill="#414042" points="114.424,152.521 112.271,156.11 110.73,152.521 108.474,152.521 110.946,157.718 110.295,163.086 
			112.321,163.086 112.937,158.316 116.809,152.521 		"/>
		<path fill="#414042" d="M100.275,155.256c0-1.983-1.264-2.735-2.427-2.735h-3.949l-1.744,10.566h4.633
			c1.54,0,3.215-1.112,3.215-3.129c0-2.017-1.351-2.29-1.351-2.29S100.275,157.239,100.275,155.256z M96.958,154.47
			c0.717,0,1.128,0.342,1.111,1.025c-0.019,0.77-0.411,1.249-1.128,1.249h-1.623l0.377-2.274H96.958z M94.987,158.739h1.664
			c0.991,0.039,1.299,0.415,1.299,1.167c0,0.702-0.352,1.18-1.44,1.18h-1.912L94.987,158.739z"/>
	</g>
	<g>
		<path fill="#00A2BC" d="M159.927,164.036c-0.295,0-0.592-0.102-0.832-0.31c-0.03-0.025-3.002-2.598-3.889-3.339
			c-0.084-0.071-0.168-0.136-0.248-0.195c0.009,1.446-0.104,2.463-0.11,2.524c-0.079,0.699-0.712,1.202-1.409,1.122
			c-0.698-0.08-1.201-0.709-1.122-1.408l0,0c0.002-0.019,0.213-1.952-0.002-4.193c-0.361-3.772-0.393-4.792,1.146-5.602l0.041-0.022
			c1.124-0.595,3.057-0.473,4.304-0.056c0.855,0.285,1.917,0.64,2.385,1.623c0.185,0.389,0.338,1.03,0.018,1.88
			c-0.439,1.164-1.756,2.058-3.044,2.646c1.129,0.957,3.487,2.999,3.598,3.094c0.532,0.46,0.59,1.264,0.13,1.796
			C160.639,163.887,160.284,164.036,159.927,164.036z M154.668,154.876c-0.035,0.397,0.019,1.254,0.081,2.01
			c1.208-0.31,2.683-1.097,3.022-1.625c-0.23-0.108-0.592-0.229-0.772-0.29c-0.905-0.302-2.037-0.251-2.307-0.108L154.668,154.876z"
			/>
		<path fill="#DC1F40" d="M124.515,163.94c-1.987,0-3.401-0.414-4.363-1.262c-0.922-0.812-1.389-1.995-1.389-3.517
			c0-3.201,3.731-7.611,6.438-7.611c1.256,0,1.955,0.487,2.32,0.896c0.679,0.759,0.618,1.649,0.6,1.82
			c-0.078,0.699-0.708,1.204-1.407,1.125c-0.646-0.073-1.126-0.617-1.132-1.252c-0.07-0.02-0.193-0.042-0.381-0.042
			c-0.875,0-3.893,2.875-3.893,5.064c0,1.024,0.301,1.407,0.525,1.605c0.493,0.434,1.737,0.869,4.863,0.471
			c0.694-0.089,1.335,0.405,1.424,1.102c0.089,0.698-0.405,1.335-1.103,1.424C126.098,163.881,125.265,163.94,124.515,163.94z"/>
		<path fill="#622D91" d="M131.684,163.447c-2.45,0-4.306-1.491-4.617-3.711c-0.18-1.267,0.219-2.649,1.092-3.793
			c0.96-1.259,2.386-2.094,3.911-2.289c0.156-0.02,0.313-0.03,0.471-0.03c2.207,0,4.119,1.918,4.354,4.369
			c0.266,2.763-1.413,4.92-4.176,5.369C132.371,163.418,132.022,163.447,131.684,163.447z M132.54,156.171
			c-0.05,0-0.1,0.002-0.147,0.009c-0.854,0.109-1.659,0.585-2.21,1.307c-0.462,0.605-0.679,1.295-0.596,1.893
			c0.194,1.372,1.531,1.52,2.097,1.52c0.203,0,0.414-0.018,0.627-0.053c1.418-0.229,2.184-1.206,2.049-2.611
			C134.237,156.961,133.319,156.171,132.54,156.171z"/>
		<path fill="#F9D308" d="M146.935,163.377c-2.151,0-3.793-1.318-4.39-3.525c-0.335-1.237-0.05-2.595,0.783-3.728
			c0.974-1.325,2.535-2.123,4.283-2.189c0.07-0.003,0.14-0.004,0.209-0.004c2.49,0,4.447,1.658,4.653,3.943
			c0.237,2.638-1.374,4.686-4.206,5.344C147.812,163.324,147.365,163.377,146.935,163.377z M147.82,156.478
			c-0.037,0-0.074,0.001-0.111,0.002c-0.969,0.038-1.817,0.458-2.329,1.154c-0.365,0.496-0.506,1.077-0.376,1.553
			c0.294,1.091,0.945,1.644,1.931,1.644c0.236,0,0.491-0.031,0.756-0.093c0.909-0.21,2.408-0.834,2.246-2.635
			C149.821,156.82,148.552,156.478,147.82,156.478z"/>
		<path fill="#8DC13E" d="M138.607,163.848c-0.233,0-0.475-0.053-0.716-0.188c-0.846-0.468-0.846-1.334-0.846-2.433
			c0-0.755-0.119-2.29-0.225-3.645c-0.045-0.577-0.089-1.133-0.122-1.612c-0.092-1.329-0.531-2.223-0.536-2.231
			c-0.323-0.625-0.076-1.39,0.549-1.712c0.624-0.323,1.395-0.074,1.717,0.55c0.07,0.135,0.685,1.368,0.812,3.219
			c0.032,0.472,0.075,1.02,0.119,1.589c0.094,1.203,0.19,2.438,0.223,3.316c1.167-0.476,2.534-0.635,2.995-0.635
			c0.704,0,1.273,0.571,1.273,1.273c0,0.704-0.569,1.274-1.273,1.274c-0.326,0-1.724,0.199-2.426,0.639
			C139.749,163.504,139.2,163.848,138.607,163.848z"/>
	</g>
	<path opacity="0.3" fill="#FFFFFF" d="M199.533,165.015V22.239c0-3.459-2.805-6.264-6.265-6.264H23.795l175.524,150.643
		C199.455,166.105,199.533,165.57,199.533,165.015z"/>
	<g>
		<circle cx="157.705" cy="309.077" r="1.625"/>
		<circle cx="170.072" cy="307.354" r="1.625"/>
		<circle cx="182.614" cy="305.407" r="1.625"/>
		<circle cx="195.155" cy="302.989" r="1.625"/>
		<circle cx="163.888" cy="314.343" r="1.625"/>
		<circle cx="176.38" cy="312.545" r="1.625"/>
		<circle cx="188.872" cy="310.425" r="1.625"/>
		<circle cx="163.888" cy="301.984" r="1.625"/>
		<circle cx="176.38" cy="300.112" r="1.625"/>
		<circle cx="188.872" cy="298.14" r="1.625"/>
		<circle cx="201.388" cy="307.858" r="1.625"/>
		<circle cx="157.705" cy="321.445" r="1.625"/>
		<circle cx="170.072" cy="319.82" r="1.625"/>
		<circle cx="182.614" cy="317.7" r="1.625"/>
		<circle cx="195.155" cy="315.398" r="1.625"/>
		<circle cx="163.888" cy="326.842" r="1.625"/>
		<circle cx="176.256" cy="324.913" r="1.625"/>
		<circle cx="188.872" cy="322.875" r="1.625"/>
		<circle cx="201.388" cy="320.25" r="1.625"/>
		<circle cx="157.705" cy="333.812" r="1.625"/>
		<circle cx="170.072" cy="332.188" r="1.625"/>
		<circle cx="182.614" cy="330.34" r="1.625"/>
		<circle cx="195.155" cy="327.823" r="1.625"/>
		<circle cx="163.888" cy="339.352" r="1.625"/>
		<circle cx="176.256" cy="337.579" r="1.625"/>
		<circle cx="188.872" cy="335.408" r="1.625"/>
		<circle cx="201.388" cy="332.792" r="1.625"/>
		<circle cx="170.072" cy="344.729" r="1.625"/>
		<circle cx="182.614" cy="342.757" r="1.625"/>
		<circle cx="195.155" cy="340.29" r="1.625"/>
	</g>
</g>
</svg>
