<?xml version="1.0" encoding="utf-8"?>
<!-- Generator: Adobe Illustrator 15.1.0, SVG Export Plug-In . SVG Version: 6.00 Build 0)  -->
<!DOCTYPE svg PUBLIC "-//W3C//DTD SVG 1.0//EN" "http://www.w3.org/TR/2001/REC-SVG-20010904/DTD/svg10.dtd">
<svg version="1.0" id="Layer_1" xmlns="http://www.w3.org/2000/svg" xmlns:xlink="http://www.w3.org/1999/xlink" x="0px" y="0px"
	 width="216.225px" height="363.927px" viewBox="0 0 216.225 363.927" enable-background="new 0 0 216.225 363.927"
	 xml:space="preserve">
<g>
	<path fill="#F9D308" d="M216.225,9.372c0-5.176-4.196-9.372-9.372-9.372H9.372C4.196,0,0,4.196,0,9.372v322.546l0,0l0,0
		c0,8.45,4.32,15.889,10.868,20.237l-0.001,0.001c0,0,12.143,11.771,98.648,11.771c54.448,0,78.611-4.978,89.045-8.667
		c10.162-2.899,17.605-12.249,17.605-23.342l0,0h0.059V9.372z"/>
	<path opacity="0.2" fill="#FFFFFF" d="M181.612,0h-147v309.135l0,0l0,0c0,5.744,2.937,10.802,7.389,13.758L42,322.894
		c0,0,8.255,4.395,67.066,4.395c37.016,0,53.443,0.224,60.536-2.285c6.91-1.972,11.97-8.326,11.97-15.868v-3.607h0.04V0z"/>
	<circle fill="#333334" cx="145.342" cy="244.352" r="13.393"/>
	<circle fill="#333334" cx="184.924" cy="232.15" r="13.393"/>
	<path fill="#333334" d="M66.93,228.375H53.24v-13.689c0-1.505-1.22-2.725-2.725-2.725H37.023c-1.504,0-2.725,1.22-2.725,2.725
		v13.689h-13.69c-1.505,0-2.725,1.221-2.725,2.726v13.491c0,1.505,1.22,2.725,2.725,2.725h13.69v13.69
		c0,1.505,1.22,2.725,2.725,2.725h13.492c1.504,0,2.725-1.22,2.725-2.725v-13.69h13.69c1.505,0,2.725-1.22,2.725-2.725v-13.491
		C69.655,229.596,68.435,228.375,66.93,228.375z"/>
	<path d="M97.157,296.853h-12.83c-1.771,0-3.208,1.437-3.208,3.208s1.436,3.207,3.208,3.207h12.83c1.771,0,3.208-1.436,3.208-3.207
		S98.929,296.853,97.157,296.853z"/>
	<path d="M129.563,296.853h-12.83c-1.771,0-3.207,1.437-3.207,3.208s1.436,3.207,3.207,3.207h12.83c1.771,0,3.208-1.436,3.208-3.207
		S131.335,296.853,129.563,296.853z"/>
	<circle fill="#414042" cx="43.819" cy="237.847" r="5.224"/>
	<path fill="#414042" d="M48.627,251.792l-0.002-0.003c0.034-0.095,0.056-0.195,0.056-0.301c0-0.493-0.4-0.894-0.893-0.894h-7.937
		c-0.493,0-0.893,0.4-0.893,0.894c0,0.119,0.024,0.232,0.067,0.337l0,0.001l0.001,0.003c0.023,0.056,0.052,0.109,0.085,0.158
		l3.885,7.285c0.135,0.322,0.453,0.549,0.824,0.549c0.349,0,0.648-0.202,0.795-0.495h0.001l3.899-7.323
		c0.043-0.061,0.078-0.126,0.104-0.195L48.627,251.792z"/>
	<path fill="#414042" d="M39.011,223.901l0.002,0.003c-0.034,0.095-0.056,0.195-0.056,0.301c0,0.494,0.4,0.894,0.893,0.894h7.937
		c0.493,0,0.893-0.399,0.893-0.894c0-0.118-0.024-0.232-0.067-0.336l0-0.001l-0.001-0.003c-0.023-0.056-0.052-0.109-0.085-0.159
		l-3.885-7.284c-0.135-0.322-0.453-0.55-0.824-0.55c-0.349,0-0.648,0.203-0.795,0.495h-0.001l-3.899,7.323
		c-0.043,0.061-0.078,0.126-0.104,0.196L39.011,223.901z"/>
	<path fill="#414042" d="M57.765,233.039l-0.003,0.002c-0.095-0.034-0.195-0.056-0.302-0.056c-0.493,0-0.893,0.4-0.893,0.893v7.938
		c0,0.493,0.4,0.893,0.893,0.893c0.12,0,0.233-0.024,0.337-0.067l0,0.001l0.003-0.001c0.056-0.023,0.109-0.052,0.159-0.085
		l7.285-3.886c0.322-0.135,0.549-0.452,0.549-0.823c0-0.349-0.203-0.648-0.495-0.795v-0.001l-7.323-3.899
		c-0.061-0.043-0.126-0.077-0.196-0.104L57.765,233.039z"/>
	<path fill="#414042" d="M29.874,242.655l0.003-0.003c0.094,0.034,0.195,0.056,0.301,0.056c0.493,0,0.893-0.399,0.893-0.893v-7.938
		c0-0.492-0.4-0.893-0.893-0.893c-0.119,0-0.233,0.024-0.337,0.066h0l-0.003,0.001c-0.056,0.023-0.109,0.052-0.159,0.086
		l-7.285,3.884c-0.322,0.136-0.548,0.453-0.548,0.824c0,0.35,0.202,0.648,0.494,0.795v0.001l7.323,3.899
		c0.061,0.043,0.126,0.078,0.196,0.105L29.874,242.655z"/>
	<g>
		<path fill="#414042" d="M142.388,251.008h-3.274v-12.321h3.098c1.954,0,3.415,0.968,3.415,3.257c0,1.003-0.457,2.094-1.443,2.552
			c1.039,0.37,1.654,1.461,1.654,2.799C145.837,249.758,144.429,251.008,142.388,251.008z M142.264,240.36h-1.443v3.344h1.408
			c0.916,0,1.637-0.528,1.637-1.707C143.865,240.782,143.197,240.36,142.264,240.36z M142.193,245.359h-1.373v3.977h1.55
			c1.038,0,1.707-0.563,1.707-2.041C144.077,245.921,143.268,245.359,142.193,245.359z"/>
	</g>
	<g>
		<path fill="#414042" d="M184.629,238.906l-0.722-3.257h-2.676l-0.704,3.257h-1.83l3.027-12.321h1.778l3.01,12.321H184.629z
			 M183.098,231.935c-0.176-0.81-0.44-2.235-0.528-2.693c-0.088,0.458-0.352,1.866-0.527,2.693l-0.458,2.077h1.972L183.098,231.935z
			"/>
	</g>
	<path d="M196.163,13.253H19.58c-3.577,0-6.477,2.9-6.477,6.477v147.615c0,3.41,2.637,6.198,5.981,6.452v0.025
		c0,0,29.429,5.494,88.787,5.494s88.788-5.494,88.788-5.494v-0.025c3.344-0.254,5.981-3.042,5.981-6.452V19.73
		C202.641,16.153,199.74,13.253,196.163,13.253z"/>
	<path fill="#333334" d="M23.796,15.976h-1.321c-3.459,0-6.265,2.805-6.265,6.265v142.775c0,3.298,2.551,5.995,5.785,6.24v0.024
		c0,0,28.465,5.313,85.876,5.313c57.412,0,85.875-5.313,85.875-5.313v-0.024c2.691-0.204,4.903-2.107,5.572-4.638L23.796,15.976z"/>
	<rect x="45.802" y="34.809" fill="#DCDDDE" width="124.335" height="106.876"/>
	<g>
		<path fill="#414042" d="M19.58,71.789h1.185c0.184,0,0.36,0.018,0.527,0.054s0.316,0.096,0.446,0.18
			c0.13,0.085,0.233,0.198,0.311,0.339c0.077,0.141,0.115,0.315,0.115,0.521c0,0.218-0.042,0.399-0.124,0.542
			c-0.083,0.143-0.189,0.256-0.319,0.339c-0.129,0.083-0.271,0.141-0.426,0.175c-0.154,0.034-0.301,0.051-0.44,0.051h-0.801v1.794
			H19.58V71.789z M20.054,73.549h0.801c0.237,0,0.43-0.054,0.578-0.161c0.148-0.107,0.223-0.273,0.223-0.499
			s-0.074-0.392-0.223-0.499c-0.148-0.107-0.341-0.161-0.578-0.161h-0.801V73.549z"/>
		<path fill="#414042" d="M24.668,75.884c-0.305,0-0.583-0.052-0.837-0.158c-0.254-0.105-0.474-0.251-0.66-0.437
			c-0.186-0.186-0.331-0.408-0.435-0.666c-0.104-0.257-0.155-0.537-0.155-0.837s0.051-0.58,0.155-0.838
			c0.104-0.257,0.249-0.479,0.435-0.666c0.187-0.186,0.406-0.332,0.66-0.438c0.254-0.105,0.533-0.158,0.837-0.158
			s0.584,0.053,0.838,0.158c0.254,0.105,0.474,0.251,0.66,0.438s0.331,0.408,0.434,0.666c0.104,0.258,0.155,0.537,0.155,0.838
			s-0.052,0.58-0.155,0.837c-0.104,0.258-0.248,0.48-0.434,0.666s-0.406,0.332-0.66,0.437
			C25.252,75.832,24.973,75.884,24.668,75.884z M24.668,75.444c0.233,0,0.447-0.043,0.64-0.129c0.194-0.087,0.36-0.205,0.5-0.355
			s0.248-0.326,0.325-0.527s0.115-0.417,0.115-0.646s-0.038-0.444-0.115-0.646c-0.077-0.201-0.186-0.377-0.325-0.527
			s-0.306-0.269-0.5-0.355c-0.193-0.086-0.407-0.13-0.64-0.13c-0.233,0-0.446,0.043-0.64,0.13s-0.36,0.205-0.499,0.355
			s-0.247,0.326-0.324,0.527c-0.077,0.202-0.116,0.417-0.116,0.646s0.039,0.445,0.116,0.646s0.185,0.377,0.324,0.527
			s0.305,0.269,0.499,0.355C24.222,75.401,24.435,75.444,24.668,75.444z"/>
		<path fill="#414042" d="M26.941,71.789h0.524l0.909,3.317h0.011l0.981-3.317h0.53l0.976,3.317h0.011l0.925-3.317h0.497
			l-1.173,3.994H30.62l-0.987-3.385h-0.011l-0.993,3.385h-0.519L26.941,71.789z"/>
		<path fill="#414042" d="M32.836,71.789h2.51v0.44h-2.036v1.252h1.901v0.44h-1.901v1.421h2.138v0.44h-2.612V71.789z"/>
		<path fill="#414042" d="M36.182,71.789h1.021c0.192,0,0.382,0.011,0.572,0.034s0.36,0.072,0.511,0.147s0.272,0.185,0.367,0.33
			c0.094,0.145,0.141,0.341,0.141,0.589c0,0.293-0.088,0.53-0.265,0.711c-0.177,0.181-0.421,0.295-0.733,0.344l1.134,1.839h-0.581
			l-1.083-1.794h-0.609v1.794h-0.474V71.789z M36.656,73.549h0.423c0.131,0,0.268-0.004,0.409-0.011
			c0.141-0.008,0.271-0.032,0.389-0.074c0.119-0.041,0.216-0.106,0.293-0.194s0.116-0.215,0.116-0.381
			c0-0.143-0.028-0.258-0.084-0.344c-0.057-0.086-0.131-0.153-0.223-0.2c-0.092-0.047-0.195-0.078-0.31-0.093
			c-0.115-0.015-0.23-0.023-0.347-0.023h-0.666V73.549z"/>
	</g>
	<circle fill="#CE181E" cx="21.068" cy="64.967" r="2.91"/>
	<path fill="#414042" d="M37.592,62.421c0.559,0.698,0.894,1.583,0.894,2.546s-0.335,1.848-0.894,2.546
		c1.165-0.263,2.035-1.302,2.035-2.546C39.626,63.723,38.756,62.684,37.592,62.421z"/>
	<path fill="#414042" d="M32.458,62.367c0.584,0.707,0.935,1.612,0.935,2.6s-0.351,1.894-0.935,2.6
		c1.331-0.121,2.374-1.238,2.374-2.6S33.789,62.487,32.458,62.367z"/>
	<path fill="#414042" d="M26.879,62.354c-0.022,0-0.044,0.003-0.067,0.003c0.589,0.708,0.943,1.617,0.943,2.609
		s-0.354,1.901-0.943,2.609c0.022,0,0.044,0.003,0.067,0.003c1.442,0,2.612-1.169,2.612-2.612S28.322,62.354,26.879,62.354z"/>
	<g>
		<polygon fill="#414042" points="82.649,163.086 88.347,163.086 88.677,161.086 85.093,161.086 85.482,158.739 88.599,158.739 
			88.928,156.743 85.813,156.743 86.19,154.469 89.77,154.469 90.086,152.521 84.393,152.521 		"/>
		<path fill="#414042" d="M79.443,152.521l-2.577,5.746l-1.244-5.746h-2l-2.901,8.92l-1.407-8.92H66.8l-3.896,8.54l0.358-3.052
			h-3.907v1.949h1.497l-0.067,0.939c0,0-0.51,0.414-1.6,0.394c-1.388-0.025-2.738-1.088-2.616-3.077
			c0.128-2.078,2.308-3.924,4.745-3.95c1.574-0.017,2.333,0.436,2.333,0.436v-2c0,0-0.154-0.517-2.206-0.517
			c-3.427,0-6.896,2.729-6.898,6.236c-0.002,2.744,1.847,4.873,4.788,4.736c1.619-0.075,2.548-0.547,3.034-0.913l-0.385,0.844h2.308
			l1.387-3.129h2.651l0.527,3.129h1.333h0.795h1.436l1.854-6.069l1.454,6.069h1.333l2.945-6.583l0.184,6.583h2.052l-0.436-10.566
			H79.443z M66.539,158.008l1.057-2.385l0.401,2.385H66.539z"/>
		<path fill="#414042" d="M106.337,152.557c-2.336-0.601-4.833,1.26-5.58,4.158c-0.745,2.897,0.544,5.733,2.88,6.334
			c2.334,0.601,4.833-1.26,5.579-4.158C109.961,155.994,108.672,153.159,106.337,152.557z M107.296,158.397
			c-0.463,1.802-1.874,2.997-3.149,2.668s-1.934-2.055-1.471-3.857c0.465-1.802,1.875-2.997,3.15-2.668
			C107.101,154.869,107.76,156.596,107.296,158.397z"/>
		<polygon fill="#414042" points="114.424,152.521 112.271,156.11 110.731,152.521 108.474,152.521 110.947,157.718 
			110.295,163.086 112.321,163.086 112.937,158.316 116.809,152.521 		"/>
		<path fill="#414042" d="M100.275,155.255c0-1.983-1.264-2.735-2.427-2.735h-3.949l-1.744,10.566h4.633
			c1.539,0,3.214-1.112,3.214-3.129c0-2.017-1.351-2.291-1.351-2.291S100.275,157.239,100.275,155.255z M96.959,154.469
			c0.717,0,1.129,0.342,1.112,1.026c-0.019,0.77-0.411,1.248-1.129,1.248h-1.623l0.377-2.274H96.959z M94.988,158.739h1.664
			c0.991,0.039,1.299,0.415,1.299,1.167c0,0.701-0.352,1.18-1.441,1.18h-1.911L94.988,158.739z"/>
	</g>
	<g>
		<path fill="#00A2BC" d="M159.927,164.036c-0.295,0-0.592-0.102-0.832-0.311c-0.03-0.025-3.002-2.598-3.889-3.339
			c-0.085-0.071-0.168-0.136-0.248-0.195c0.009,1.446-0.104,2.463-0.111,2.524c-0.079,0.698-0.711,1.201-1.408,1.122
			c-0.698-0.079-1.2-0.709-1.122-1.408l0,0c0.002-0.02,0.213-1.953-0.002-4.193c-0.361-3.772-0.393-4.792,1.146-5.602l0.041-0.022
			c1.124-0.595,3.057-0.473,4.304-0.056c0.854,0.285,1.917,0.641,2.385,1.623c0.185,0.388,0.338,1.03,0.017,1.88
			c-0.438,1.164-1.755,2.058-3.043,2.646c1.129,0.958,3.487,2.999,3.598,3.094c0.531,0.46,0.59,1.265,0.129,1.796
			C160.639,163.887,160.284,164.036,159.927,164.036z M154.668,154.876c-0.035,0.396,0.019,1.254,0.081,2.01
			c1.208-0.31,2.684-1.097,3.022-1.625c-0.23-0.108-0.592-0.229-0.772-0.29c-0.905-0.302-2.037-0.251-2.307-0.108L154.668,154.876z"
			/>
		<path fill="#DC1F40" d="M124.515,163.94c-1.987,0-3.4-0.415-4.363-1.262c-0.922-0.812-1.388-1.995-1.388-3.517
			c0-3.201,3.73-7.611,6.438-7.611c1.255,0,1.955,0.487,2.32,0.896c0.679,0.759,0.617,1.649,0.599,1.82
			c-0.078,0.699-0.707,1.204-1.407,1.125c-0.646-0.072-1.125-0.617-1.132-1.252c-0.069-0.02-0.193-0.042-0.38-0.042
			c-0.876,0-3.893,2.875-3.893,5.065c0,1.024,0.3,1.407,0.524,1.605c0.493,0.434,1.737,0.868,4.863,0.471
			c0.694-0.089,1.335,0.405,1.424,1.102c0.089,0.698-0.404,1.335-1.103,1.424C126.098,163.881,125.266,163.94,124.515,163.94z"/>
		<path fill="#622D91" d="M131.684,163.447c-2.449,0-4.305-1.492-4.617-3.711c-0.179-1.267,0.219-2.649,1.092-3.793
			c0.961-1.259,2.387-2.093,3.912-2.288c0.155-0.02,0.312-0.03,0.47-0.03c2.207,0,4.12,1.918,4.355,4.369
			c0.265,2.763-1.414,4.92-4.177,5.369C132.371,163.418,132.022,163.447,131.684,163.447z M132.54,156.171
			c-0.05,0-0.099,0.002-0.146,0.009c-0.854,0.109-1.66,0.585-2.211,1.307c-0.462,0.605-0.679,1.295-0.595,1.893
			c0.193,1.371,1.53,1.519,2.096,1.519c0.203,0,0.414-0.017,0.627-0.052c1.418-0.23,2.184-1.206,2.05-2.611
			C134.237,156.96,133.32,156.171,132.54,156.171z"/>
		<path fill="#F9D308" d="M146.936,163.377c-2.152,0-3.793-1.318-4.391-3.525c-0.335-1.236-0.049-2.595,0.783-3.728
			c0.975-1.324,2.535-2.122,4.283-2.189c0.07-0.003,0.14-0.004,0.209-0.004c2.49,0,4.448,1.658,4.653,3.943
			c0.236,2.638-1.375,4.686-4.206,5.344C147.812,163.324,147.365,163.377,146.936,163.377z M147.82,156.478
			c-0.037,0-0.074,0.001-0.111,0.002c-0.969,0.037-1.817,0.458-2.328,1.153c-0.366,0.496-0.507,1.077-0.377,1.554
			c0.295,1.091,0.945,1.644,1.932,1.644c0.235,0,0.49-0.031,0.755-0.093c0.909-0.211,2.408-0.834,2.246-2.635
			C149.821,156.82,148.552,156.478,147.82,156.478z"/>
		<path fill="#8DC13E" d="M138.608,163.847c-0.234,0-0.476-0.053-0.716-0.187c-0.846-0.468-0.846-1.335-0.846-2.433
			c0-0.754-0.12-2.29-0.226-3.645c-0.045-0.577-0.089-1.133-0.121-1.611c-0.093-1.329-0.532-2.223-0.537-2.231
			c-0.322-0.625-0.076-1.39,0.55-1.712c0.623-0.323,1.394-0.074,1.717,0.55c0.069,0.135,0.684,1.368,0.811,3.219
			c0.033,0.472,0.075,1.02,0.119,1.589c0.094,1.203,0.19,2.438,0.223,3.316c1.168-0.475,2.534-0.634,2.996-0.634
			c0.703,0,1.273,0.57,1.273,1.273s-0.57,1.273-1.273,1.273c-0.327,0-1.725,0.2-2.427,0.639
			C139.75,163.504,139.2,163.847,138.608,163.847z"/>
	</g>
	<path opacity="0.3" fill="#FFFFFF" d="M199.533,165.015V22.24c0-3.46-2.806-6.265-6.266-6.265H23.796l175.523,150.642
		C199.455,166.105,199.533,165.57,199.533,165.015z"/>
	<g>
		<circle cx="157.705" cy="309.076" r="1.625"/>
		<circle cx="170.072" cy="307.352" r="1.624"/>
		<circle cx="182.614" cy="305.405" r="1.625"/>
		<circle cx="195.155" cy="302.987" r="1.625"/>
		<circle cx="163.888" cy="314.341" r="1.625"/>
		<circle cx="176.38" cy="312.543" r="1.624"/>
		<circle cx="188.872" cy="310.423" r="1.625"/>
		<circle cx="163.888" cy="301.983" r="1.625"/>
		<circle cx="176.38" cy="300.111" r="1.624"/>
		<circle cx="188.872" cy="298.139" r="1.625"/>
		<circle cx="201.388" cy="307.856" r="1.625"/>
		<circle cx="157.705" cy="321.443" r="1.625"/>
		<circle cx="170.072" cy="319.819" r="1.624"/>
		<circle cx="182.614" cy="317.699" r="1.625"/>
		<circle cx="195.155" cy="315.396" r="1.625"/>
		<circle cx="163.888" cy="326.84" r="1.625"/>
		<circle cx="176.255" cy="324.912" r="1.625"/>
		<circle cx="188.872" cy="322.873" r="1.625"/>
		<circle cx="201.388" cy="320.249" r="1.625"/>
		<circle cx="157.705" cy="333.81" r="1.625"/>
		<circle cx="170.072" cy="332.186" r="1.624"/>
		<circle cx="182.614" cy="330.338" r="1.625"/>
		<circle cx="195.155" cy="327.821" r="1.625"/>
		<circle cx="163.888" cy="339.35" r="1.625"/>
		<circle cx="176.255" cy="337.577" r="1.625"/>
		<circle cx="188.872" cy="335.407" r="1.625"/>
		<circle cx="201.388" cy="332.79" r="1.625"/>
		<circle cx="170.072" cy="344.728" r="1.624"/>
		<circle cx="182.614" cy="342.756" r="1.625"/>
		<circle cx="195.155" cy="340.289" r="1.625"/>
	</g>
</g>
<g>
	<g>
		<linearGradient id="SVGID_1_" gradientUnits="userSpaceOnUse" x1="59.5127" y1="82.1909" x2="156.5022" y2="82.1909">
			<stop  offset="0.1963" style="stop-color:#00A2BC"/>
			<stop  offset="0.1963" style="stop-color:#8DC13E"/>
			<stop  offset="0.3926" style="stop-color:#8DC13E"/>
			<stop  offset="0.3926" style="stop-color:#DC1F40"/>
			<stop  offset="0.5828" style="stop-color:#DC1F40"/>
			<stop  offset="0.6135" style="stop-color:#CE181E"/>
			<stop  offset="0.7669" style="stop-color:#CE181E"/>
			<stop  offset="0.773" style="stop-color:#F9D308"/>
		</linearGradient>
		<polygon fill="url(#SVGID_1_)" points="103.935,90.679 113.089,90.679 113.62,87.465 107.861,87.465 108.487,83.695 
			113.493,83.695 114.022,80.488 109.019,80.488 109.625,76.835 115.374,76.835 115.884,73.704 106.737,73.704 		"/>
		<linearGradient id="SVGID_2_" gradientUnits="userSpaceOnUse" x1="59.5132" y1="81.981" x2="156.5018" y2="81.981">
			<stop  offset="0.1963" style="stop-color:#00A2BC"/>
			<stop  offset="0.1963" style="stop-color:#8DC13E"/>
			<stop  offset="0.3926" style="stop-color:#8DC13E"/>
			<stop  offset="0.3926" style="stop-color:#DC1F40"/>
			<stop  offset="0.5828" style="stop-color:#DC1F40"/>
			<stop  offset="0.6135" style="stop-color:#CE181E"/>
			<stop  offset="0.7669" style="stop-color:#CE181E"/>
			<stop  offset="0.773" style="stop-color:#F9D308"/>
		</linearGradient>
		<path fill="url(#SVGID_2_)" d="M98.785,73.704l-4.141,9.231l-1.999-9.231h-3.213l-4.661,14.331L82.51,73.704h-4.039l-6.26,13.72
			l0.574-4.903H66.51v3.132h2.404l-0.108,1.509c0,0-0.82,0.665-2.571,0.633c-2.231-0.041-4.399-1.747-4.203-4.944
			c0.206-3.337,3.708-6.304,7.623-6.345c2.528-0.027,3.75,0.701,3.75,0.701v-3.214c0,0-0.247-0.83-3.543-0.83
			c-5.507,0-11.079,4.385-11.083,10.018c-0.003,4.408,2.967,7.83,7.691,7.609c2.602-0.121,4.094-0.879,4.875-1.466l-0.619,1.355
			h3.708l2.229-5.026h4.259l0.847,5.026h2.143h1.277h2.307l2.98-9.751l2.335,9.751h2.143l4.732-10.576l0.295,10.576h3.296
			l-0.701-16.975H98.785z M78.051,82.521l1.699-3.832l0.645,3.832H78.051z"/>
		<linearGradient id="SVGID_3_" gradientUnits="userSpaceOnUse" x1="59.5107" y1="82.1909" x2="156.5018" y2="82.1909">
			<stop  offset="0.1963" style="stop-color:#00A2BC"/>
			<stop  offset="0.1963" style="stop-color:#8DC13E"/>
			<stop  offset="0.3926" style="stop-color:#8DC13E"/>
			<stop  offset="0.3926" style="stop-color:#DC1F40"/>
			<stop  offset="0.5828" style="stop-color:#DC1F40"/>
			<stop  offset="0.6135" style="stop-color:#CE181E"/>
			<stop  offset="0.7669" style="stop-color:#CE181E"/>
			<stop  offset="0.773" style="stop-color:#F9D308"/>
		</linearGradient>
		<path fill="url(#SVGID_3_)" d="M141.991,73.763c-3.752-0.965-7.764,2.024-8.965,6.68c-1.195,4.655,0.875,9.211,4.627,10.177
			c3.752,0.965,7.766-2.024,8.963-6.68C147.815,79.285,145.743,74.729,141.991,73.763z M143.532,83.146
			c-0.744,2.895-3.01,4.814-5.059,4.287c-2.049-0.528-3.107-3.302-2.363-6.197c0.746-2.895,3.012-4.814,5.061-4.287
			C143.22,77.478,144.278,80.251,143.532,83.146z"/>
		<linearGradient id="SVGID_4_" gradientUnits="userSpaceOnUse" x1="59.5" y1="82.1909" x2="156.5022" y2="82.1909">
			<stop  offset="0.1963" style="stop-color:#00A2BC"/>
			<stop  offset="0.1963" style="stop-color:#8DC13E"/>
			<stop  offset="0.3926" style="stop-color:#8DC13E"/>
			<stop  offset="0.3926" style="stop-color:#DC1F40"/>
			<stop  offset="0.5828" style="stop-color:#DC1F40"/>
			<stop  offset="0.6135" style="stop-color:#CE181E"/>
			<stop  offset="0.7669" style="stop-color:#CE181E"/>
			<stop  offset="0.773" style="stop-color:#F9D308"/>
		</linearGradient>
		<polygon fill="url(#SVGID_4_)" points="154.985,73.704 151.526,79.472 149.052,73.704 145.425,73.704 149.399,82.054 
			148.351,90.679 151.606,90.679 152.595,83.015 158.817,73.704 		"/>
		<linearGradient id="SVGID_5_" gradientUnits="userSpaceOnUse" x1="59.5225" y1="82.1909" x2="156.4972" y2="82.1909">
			<stop  offset="0.1963" style="stop-color:#00A2BC"/>
			<stop  offset="0.1963" style="stop-color:#8DC13E"/>
			<stop  offset="0.3926" style="stop-color:#8DC13E"/>
			<stop  offset="0.3926" style="stop-color:#DC1F40"/>
			<stop  offset="0.5828" style="stop-color:#DC1F40"/>
			<stop  offset="0.6135" style="stop-color:#CE181E"/>
			<stop  offset="0.7669" style="stop-color:#CE181E"/>
			<stop  offset="0.773" style="stop-color:#F9D308"/>
		</linearGradient>
		<path fill="url(#SVGID_5_)" d="M132.253,78.098c0-3.186-2.031-4.395-3.898-4.395h-6.346l-2.801,16.975h7.443
			c2.473,0,5.164-1.786,5.164-5.027s-2.17-3.681-2.17-3.681S132.253,81.284,132.253,78.098z M126.925,76.835
			c1.152,0,1.812,0.549,1.787,1.647c-0.031,1.237-0.66,2.005-1.814,2.005h-2.607l0.605-3.653H126.925z M123.759,83.695h2.672
			c1.592,0.062,2.088,0.666,2.088,1.875c0,1.126-0.566,1.896-2.316,1.896h-3.068L123.759,83.695z"/>
	</g>
	<g>
		<polygon points="89.637,117.277 87.126,113.239 85.324,113.239 85.324,119.047 87.126,119.047 87.126,114.928 89.652,119.047 
			91.422,119.047 91.422,113.239 89.637,113.239 		"/>
		<rect x="92.419" y="113.239" width="1.754" height="1.174"/>
		<rect x="92.419" y="115.169" width="1.754" height="3.878"/>
		<polygon points="103.875,114.642 102.918,114.642 102.918,113.827 101.164,113.827 101.164,114.642 100.207,114.642 
			100.207,115.213 101.164,115.213 101.164,119.047 102.918,119.047 102.918,115.213 103.875,115.213 		"/>
		<path d="M98.34,114.99c-0.593,0-1.123,0.231-1.464,0.591v-0.411h-1.754v3.878h1.754v-2.503h0.002
			c0.025-0.427,0.377-0.766,0.81-0.766c0.433,0,0.786,0.339,0.81,0.766h0.003v2.503h1.706v-2.553h-0.001
			C100.173,115.66,99.351,114.99,98.34,114.99z"/>
		<path d="M112.542,114.99c-0.594,0-1.123,0.231-1.465,0.591v-0.411h-1.753v3.878h1.753v-2.503h0.002
			c0.025-0.427,0.378-0.766,0.811-0.766c0.434,0,0.785,0.339,0.811,0.766h0.002v2.503h1.707v-2.553h-0.004
			C114.374,115.66,113.552,114.99,112.542,114.99z"/>
		<path d="M122.983,114.939c-1.424,0-2.58,0.969-2.58,2.166s1.156,2.167,2.58,2.167s2.58-0.97,2.58-2.167
			S124.407,114.939,122.983,114.939z M123.708,118.076c0,0.4-0.324,0.724-0.725,0.724s-0.725-0.324-0.725-0.724v-1.941
			c0-0.399,0.324-0.724,0.725-0.724s0.725,0.325,0.725,0.724V118.076z"/>
		<path d="M106.208,114.927c-1.425,0-2.58,0.97-2.58,2.166c0,1.197,1.155,2.167,2.58,2.167c1.176,0,2.168-0.662,2.479-1.566h-1.755
			v0.37c0,0.4-0.324,0.724-0.724,0.724s-0.724-0.324-0.724-0.724v-0.917h3.302c0-0.019,0.001-0.036,0.001-0.054
			C108.788,115.897,107.633,114.927,106.208,114.927z M106.932,116.514h-1.448v-0.391c0-0.4,0.324-0.724,0.724-0.724
			s0.724,0.324,0.724,0.724V116.514z"/>
		<path d="M118.138,115.355c-0.324-0.214-0.713-0.338-1.129-0.338c-1.137,0-2.059,0.922-2.059,2.06c0,1.137,0.922,2.06,2.059,2.06
			c0.416,0,0.805-0.124,1.129-0.338v0.248h1.754v-5.808h-1.754V115.355z M118.138,117.856c0,0.373-0.301,0.674-0.674,0.674
			s-0.674-0.301-0.674-0.674v-1.566c0-0.372,0.301-0.675,0.674-0.675s0.674,0.303,0.674,0.675V117.856z"/>
		<path d="M129.077,114.26c-1.496,0-2.713,1.217-2.713,2.712s1.217,2.712,2.713,2.712c1.494,0,2.711-1.217,2.711-2.712
			S130.571,114.26,129.077,114.26z M129.077,118.999c-1.119,0-2.027-0.91-2.027-2.027c0-1.119,0.908-2.028,2.027-2.028
			c1.117,0,2.027,0.91,2.027,2.028C131.104,118.089,130.194,118.999,129.077,118.999z"/>
		<path d="M130.413,116.335c0-0.478-0.436-0.865-0.973-0.865h-1.129v0.001h-0.299v2.938h0.678V117.2h0.355l0.561,1.209h0.807
			l-0.646-1.262C130.144,117.027,130.413,116.711,130.413,116.335z M129.204,116.79h-0.514v-0.885h0.514
			c0.244,0,0.441,0.198,0.441,0.442C129.646,116.592,129.448,116.79,129.204,116.79z"/>
	</g>
</g>
</svg>
